<svg width="1920" height="1144" viewBox="0 0 1920 1144" fill="none" xmlns="http://www.w3.org/2000/svg">
<g opacity="0.3">
<g opacity="0.2">
<mask id="mask0_57_84" style="mask-type:luminance" maskUnits="userSpaceOnUse" x="0" y="0" width="1920" height="1144">
<path d="M0.00012207 1144L1920 1144L1920 0.00012207L0.000216487 -5.57282e-05L0.00012207 1144Z" fill="white"/>
</mask>
<g mask="url(#mask0_57_84)">
<path d="M1422.28 582.54C1419.05 568.399 1419.38 553.4 1422.99 539.365C1428.81 516.76 1410.68 494.886 1388.95 499.272C1388.79 499.303 1388.62 499.335 1388.46 499.378C1372.12 502.884 1358.14 513.762 1345.22 524.916C1331.89 536.42 1318.85 548.728 1309.53 564.035C1300.21 579.341 1294.9 598.122 1298.32 615.97C1300.64 628.088 1306.8 639.03 1314.05 648.733C1335.45 677.365 1394.06 719.576 1431.46 702.681C1478.15 681.602 1429.54 614.318 1422.29 582.54L1422.28 582.54Z" stroke="white" stroke-miterlimit="10"/>
<path d="M1399 596.522C1397.12 588.27 1397.31 579.521 1399.41 571.333C1402.8 558.145 1392.23 545.381 1379.55 547.944C1379.45 547.966 1379.36 547.987 1379.26 548.008C1369.72 550.052 1361.57 556.408 1354.03 562.912C1346.25 569.617 1338.64 576.809 1333.21 585.739C1327.77 594.668 1324.67 605.632 1326.67 616.044C1328.03 623.12 1331.62 629.507 1335.85 635.164C1348.33 651.868 1382.53 676.496 1404.36 666.645C1431.6 654.347 1403.24 615.091 1399.01 596.543L1399 596.522Z" stroke="white" stroke-miterlimit="10"/>
<path d="M1873.27 300.142C1887.16 219.373 1878.81 135.459 1856.88 56.7134C1845.75 16.7581 1828.72 -25.2203 1794.3 -45.3886C1780.76 -53.3225 1765.48 -57.2311 1750.33 -60.5572C1699.63 -71.6794 1643.03 -76.2025 1599.71 -46.1725C1560.02 -18.6635 1539.23 32.8694 1498.76 59.0755C1474.53 74.7631 1443.25 81.5847 1427.63 106.7C1420.02 118.934 1417.42 133.796 1414.64 148.149C1403.35 206.397 1384.34 266.87 1340.97 304.622C1322.13 321.02 1299.77 332.11 1278.96 345.584C1255.89 360.519 1234.58 378.495 1215.69 398.981C1191.86 424.816 1170.82 458.872 1176.04 494.569C1182.24 536.95 1231.21 565.38 1268.27 548.125C1296.93 534.789 1312.59 502.767 1331.31 476.191C1350.03 449.614 1380.94 425.081 1410.3 436.585C1426.46 442.909 1437.52 458.819 1445.18 475.163C1463.51 514.228 1467.6 558.929 1480.93 600.209C1494.25 641.488 1521.85 682.884 1562.53 689.758C1596.75 695.542 1630.1 675.204 1656.47 651.381C1684.27 626.266 1708.83 601.151 1740.33 581.163C1762.01 567.403 1774.54 554.47 1786.4 530.933C1823.12 458.056 1859.18 382.075 1873.28 300.142L1873.27 300.142Z" stroke="white" stroke-width="2.2" stroke-miterlimit="10"/>
<path d="M1668.59 292.907C1666.37 282.219 1659.99 273.025 1656.81 262.612C1653.02 250.155 1654.01 236.628 1656.23 223.748C1657.33 217.318 1658.71 210.518 1656.51 204.416C1653.81 196.906 1646.03 192.383 1638.44 192.129C1630.86 191.875 1623.53 195.211 1617.16 199.576C1597.33 213.187 1584.82 237.762 1584.34 262.782C1583.86 287.801 1595.19 312.63 1613.6 328.307C1623.71 336.908 1642.21 345.796 1654.22 335.892C1664.97 327.026 1671.41 306.508 1668.58 292.907L1668.59 292.907Z" stroke="white" stroke-miterlimit="10"/>
<path d="M1742.96 387.584C1753.68 371.366 1766.49 356.177 1772.71 337.512C1778.01 321.613 1778.11 304.368 1778.16 287.505C1778.22 266.743 1778.27 245.971 1778.33 225.21C1778.4 197.786 1778.4 169.789 1770.22 143.774C1756.18 99.1049 1716.86 64.5413 1672.83 58.1646C1663.79 56.8511 1654.37 56.6816 1645.75 59.8488C1638.35 62.5605 1631.93 67.5814 1625.68 72.5705C1562.19 123.224 1498.74 184.82 1481.91 267.103C1476.96 291.286 1476.34 316.211 1476.12 340.955C1475.86 370.826 1476.61 402.477 1491.64 427.761C1498.96 440.08 1509.34 450.218 1515.79 463.066C1530.94 493.276 1523.38 535.859 1547.95 558.071C1570.14 578.134 1603.87 568.23 1631.02 556.906C1688.65 532.861 1710.51 436.701 1742.98 387.594L1742.96 387.584Z" stroke="white" stroke-miterlimit="10"/>
<path d="M1619.64 456.933C1641.35 454.772 1659.97 442.601 1676.41 427.433C1690.69 414.266 1704.85 386.312 1713.28 368.358C1715.22 364.216 1717.01 360.17 1718.73 356.314C1724.8 342.777 1730.37 329.526 1731.11 315.331C1731.16 314.336 1731.19 313.34 1731.19 312.344C1731.23 301.243 1728.6 290.174 1726.45 278.755C1724.3 267.336 1723.11 256.182 1723.3 244.605C1723.4 238.44 1723.85 232.328 1724.42 226.237C1725.22 217.721 1726.26 209.194 1726.69 200.614C1727.44 185.89 1725.6 170.647 1719.51 157.724C1710.93 139.516 1696.39 124.855 1678.68 117.6C1670.76 114.348 1662.36 112.473 1653.78 112.134C1648.08 111.911 1642.21 112.335 1636.77 114.496C1632.1 116.35 1627.95 119.411 1623.88 122.44C1578.21 156.464 1535.98 201.927 1523.56 259.636C1519.91 276.605 1518.97 294.083 1518.84 311.497C1518.7 329.038 1519.23 347.491 1527.1 362.712C1530.93 370.127 1536.35 376.451 1539.85 384.109C1548.08 402.117 1545.8 425.622 1558.84 439.953C1574.69 457.378 1598.1 459.031 1619.63 456.944L1619.64 456.933Z" stroke="white" stroke-miterlimit="10"/>
<path d="M1692.38 334.387C1696.97 320.267 1695.52 304.061 1688.48 291.117C1684.45 283.702 1678.76 277.41 1674.76 269.984C1670.26 261.637 1668.01 251.956 1668.34 242.348C1668.76 230.082 1673.25 218.42 1675.43 206.365C1677.6 194.311 1676.95 180.445 1668.84 171.664C1662.97 165.308 1654.06 162.83 1645.7 163.571C1637.34 164.302 1629.43 167.925 1622.13 172.31C1585.7 194.216 1561.73 237.656 1561.6 282.028C1561.56 295.746 1563.72 309.707 1569.77 321.835C1577.85 338.021 1592.38 349.831 1608.29 356.971C1624.2 364.11 1641.52 366.981 1658.72 368.718C1672.11 370.063 1688.67 345.806 1692.38 334.387Z" stroke="white" stroke-miterlimit="10"/>
<path d="M1762.39 400.03C1774.91 381.09 1789.87 363.348 1797.13 341.548C1803.32 322.979 1803.44 302.843 1803.49 283.151C1803.56 258.905 1803.62 234.648 1803.69 210.401C1803.78 178.369 1803.77 145.68 1794.21 115.29C1777.81 63.1218 1731.9 22.7641 1680.47 15.3069C1669.91 13.771 1658.91 13.5697 1648.84 17.2665C1640.2 20.4337 1632.7 26.2915 1625.4 32.128C1551.26 91.277 1477.16 163.222 1457.5 259.307C1451.72 287.547 1451 316.656 1450.74 345.552C1450.43 380.444 1451.31 417.402 1468.86 446.923C1477.41 461.308 1489.54 473.15 1497.06 488.16C1514.76 523.444 1505.93 573.176 1534.62 599.107C1560.54 622.527 1599.92 610.971 1631.63 597.751C1698.93 569.67 1724.46 457.368 1762.38 400.03L1762.39 400.03Z" stroke="white" stroke-width="1.7" stroke-miterlimit="10"/>
<path d="M1231.71 500.903C1227.5 500.489 1223.17 499.812 1219.61 497.407C1211.78 492.111 1210.43 480.586 1211.48 470.82C1212.92 457.505 1217.49 444.37 1225.67 434.138C1233.75 424.022 1253.41 410.241 1266.68 417.242C1275.82 422.062 1281.87 446.192 1287.5 456.287C1307.06 491.295 1256.4 503.35 1231.71 500.913L1231.71 500.903Z" stroke="white" stroke-miterlimit="10"/>
<path d="M1234.44 523.243C1228.47 523.836 1222.25 524.09 1216.69 521.728C1204.47 516.516 1199.72 500.818 1198.77 486.899C1197.48 467.928 1200.6 448.342 1209.47 431.797C1218.24 415.442 1242.24 390.761 1262.49 396.83C1276.43 401.015 1290.84 432.994 1301.2 445.503C1337.15 488.891 1269.48 519.789 1234.44 523.243Z" stroke="white" stroke-miterlimit="10"/>
<path d="M1243.24 476.095C1241.48 475.926 1239.67 475.64 1238.18 474.634C1234.91 472.42 1234.34 467.6 1234.78 463.511C1235.38 457.94 1237.29 452.453 1240.71 448.173C1244.09 443.947 1252.31 438.184 1257.86 441.108C1261.68 443.121 1264.21 453.215 1266.57 457.431C1274.75 472.07 1253.57 477.112 1243.24 476.085L1243.24 476.095Z" stroke="white" stroke-miterlimit="10"/>
<path d="M1465.98 -22.011C1467.71 -4.6709 1458.87 11.9807 1448.08 25.1473C1437.29 38.3139 1424.26 49.4467 1414.77 63.6937C1391.38 98.8293 1392.84 147.523 1369.52 182.712C1351.33 210.157 1321.09 225.03 1295.68 245.007C1267.91 266.828 1245.46 295.269 1224.21 324.166C1209.8 343.762 1195.28 364.227 1175.06 376.811C1154.84 389.395 1127.1 392.085 1109.05 376.218C1081.74 352.204 1091.87 305.173 1077.21 270.938C1071.46 257.506 1061.73 245.865 1058.63 231.491C1056.98 223.801 1057.34 215.814 1056.79 207.954C1052.23 142.81 986.721 94.4546 987.181 29.13C987.541 -22.1063 1028.43 -61.9557 1068.53 -90.6086C1140.27 -141.877 1221.51 -180.148 1307.31 -192.149C1329.16 -195.21 1351.65 -196.524 1373.04 -190.867C1412.55 -180.423 1428.7 -149.948 1438.33 -110.713C1445.38 -81.9756 1463.14 -50.5156 1466 -21.9898L1465.98 -22.011Z" stroke="white" stroke-width="2.2" stroke-miterlimit="10"/>
<path d="M1184.06 345.891C1174.77 352.861 1165.63 360.096 1154.11 361.706C1140.62 363.581 1127.94 356.96 1118.37 347.078C1096.31 324.282 1102.79 284.888 1090.53 254.71C1085.72 242.868 1077.77 232.455 1075.16 219.85C1073.77 213.113 1074 206.132 1073.51 199.247C1069.45 142.217 1016.76 98.5118 1018.36 41.3965C1019.57 -1.95893 1045.45 -38.6729 1074.38 -69.1689C1080.39 -75.5351 1086.5 -81.7954 1093.32 -87.1553C1107.81 -98.5317 1123.55 -108.319 1139.57 -117.238C1192.58 -146.611 1248.95 -163.041 1305.68 -165.286C1324.48 -166.028 1343.57 -165.17 1361.63 -158.751C1394.68 -147.014 1408.59 -119.293 1416.5 -84.5388C1420.7 -65.7475 1429.04 -45.8865 1433.81 -26.7668C1435.66 -19.3626 1436.97 -12.0642 1437.32 -4.96721C1438.1 10.4026 1430.28 25.1687 1420.93 37.1595C1411.58 49.1504 1400.51 59.5523 1392.42 72.4964C1372.88 103.734 1373.89 145.988 1353.82 176.982C1338.2 201.101 1312.31 214.607 1290.09 232.031C1265.87 251.024 1245.69 275.112 1226.77 299.856C1213.91 316.656 1200.59 333.498 1184.05 345.912L1184.06 345.891Z" stroke="white" stroke-width="1.8" stroke-miterlimit="10"/>
<path d="M1193.07 312.853C1183.78 321.157 1176.38 331.771 1164.12 334.25C1149.84 337.11 1137.03 327.163 1127.69 315.829C1110.46 294.909 1113.71 262.496 1103.86 236.374C1100 226.131 1093.82 216.937 1091.7 206.09C1090.57 200.296 1090.67 194.322 1090.24 188.422C1086.67 139.516 1047.1 100.45 1049.56 51.5336C1051.79 7.23534 1075.35 -31.5441 1100.78 -65.6205C1106.08 -72.7705 1111.4 -80.0053 1118.14 -85.8418C1130.41 -96.4556 1144.53 -104.908 1158.82 -112.344C1206.69 -137.036 1256.32 -145.309 1304.08 -140.574C1319.81 -139.017 1335.51 -135.987 1350.26 -128.784C1376.84 -115.808 1388.62 -90.8203 1394.71 -60.5149C1398.1 -43.6621 1404.08 -26.0359 1406.98 -9.21489C1408.11 -2.71104 1408.76 3.67621 1408.67 9.90466C1408.47 23.3149 1401.7 36.1849 1393.79 47.0105C1385.89 57.8362 1376.77 67.4967 1370.08 79.1273C1354.37 106.446 1354.95 142.28 1338.14 169.09C1325.09 189.883 1303.55 202.033 1284.52 216.894C1263.85 233.048 1245.93 252.803 1229.34 273.374C1218.02 287.388 1206.15 301.127 1193.06 312.842L1193.07 312.853Z" stroke="white" stroke-width="1.8" stroke-miterlimit="10"/>
<path d="M1202.08 279.825C1192.89 289.666 1187.13 303.468 1174.14 306.794C1159.07 310.628 1146 297.568 1137.02 284.581C1124.19 266.023 1124.65 240.103 1117.2 218.039C1114.28 209.384 1109.88 201.419 1108.25 192.341C1107.38 187.5 1107.34 182.522 1106.97 177.607C1103.89 136.815 1077.69 102.389 1080.75 61.6919C1084.15 16.4616 1105.23 -24.394 1127.16 -62.0507C1131.75 -69.9845 1136.31 -78.1409 1142.94 -84.507C1153.08 -94.2416 1165.48 -101.497 1178.05 -107.429C1220.73 -127.534 1263.65 -127.608 1302.47 -115.829C1315.13 -111.984 1327.44 -106.815 1338.87 -98.7858C1358.97 -84.6659 1368.54 -62.2942 1372.91 -36.4589C1375.43 -21.5233 1379.1 -6.15355 1380.14 8.3689C1380.56 13.9618 1380.55 19.4488 1380.01 24.8086C1378.86 36.2486 1373.1 47.2438 1366.64 56.883C1360.18 66.5329 1353 75.4517 1347.73 85.7901C1335.82 109.147 1336 138.605 1322.45 161.22C1311.97 178.687 1294.78 189.47 1278.95 201.79C1261.83 215.115 1246.18 230.517 1231.92 246.935C1222.15 258.153 1211.96 269.211 1202.07 279.804L1202.08 279.825Z" stroke="white" stroke-width="1.8" stroke-miterlimit="10"/>
<path d="M1217.42 198.749C1211.22 206.948 1208.13 218.706 1198.47 221.64C1187.32 225.029 1177.71 213.812 1171.87 203.346C1165.64 192.182 1164.29 178.284 1160.75 165.626C1159.36 160.658 1157.52 155.913 1156.71 150.775C1156.28 148.032 1156.16 145.246 1155.94 142.471C1154.12 119.485 1145.27 98.5538 1147.67 75.6844C1151.09 43.2287 1163.97 13.0186 1176.93 -15.9839C1179.66 -22.117 1182.38 -28.4514 1186.92 -33.3558C1192.62 -39.5101 1200.08 -43.8106 1207.7 -46.9566C1234.13 -57.7293 1259.56 -52.253 1280.56 -38.9169C1287.3 -34.6375 1293.61 -29.5212 1299.29 -23.2292C1308.92 -12.5836 1314.02 1.40912 1315.9 16.4294C1317.05 25.592 1318.02 34.8075 1317.45 43.4087C1317.24 46.7136 1316.78 49.9338 1316.08 53.0904C1314.61 59.7531 1311.27 66.1617 1307.74 72.1147C1304.21 78.0784 1300.51 83.8089 1297.81 90.1856C1292.06 103.808 1291.95 120.067 1284.71 133.022C1279.14 142.979 1270.11 149.599 1261.22 156.463C1251.67 163.846 1242.26 171.621 1233.87 180.244C1228.08 186.176 1222.3 192.245 1217.4 198.728L1217.42 198.749Z" stroke="white" stroke-miterlimit="10"/>
<path d="M1274.63 61.8293C1272.34 70.3669 1266.93 77.6335 1264.41 86.097C1262.42 92.7915 1262.26 100.122 1259.19 106.339C1252.65 119.57 1235.41 123.288 1228.2 136.126C1224.81 142.174 1223.19 150.574 1216.88 152.767C1209.62 155.298 1203.08 147.206 1200.08 139.759C1192.37 120.692 1191.62 99.1152 1194.61 78.6185C1197.6 58.1219 1204.15 38.4197 1210.67 18.8658C1212.05 14.7135 1213.49 10.4658 1216.18 7.11853C1218.87 3.76068 1222.67 1.54684 1226.64 0.243952C1257.32 -9.81901 1282.09 34.0343 1274.63 61.8399L1274.63 61.8293Z" stroke="white" stroke-miterlimit="10"/>
<path d="M2104.96 466.668C2069.34 432.698 2017.58 424.192 1969.88 429.149C1955.33 430.664 1940.77 433.302 1927.16 438.958C1912.28 445.133 1898.92 454.73 1885.7 464.243C1873.12 473.299 1857.99 486.466 1850.2 500.3C1843.11 512.894 1839.57 527.311 1834.6 540.996C1819.74 581.905 1791.22 617.083 1755.27 638.798C1719.98 660.121 1677.92 668.934 1646.63 696.39C1614.02 725 1590.3 774.468 1547.97 775.252C1518.4 775.802 1493.48 750.624 1464.14 746.662C1442.27 743.707 1420.77 752.827 1399.05 756.81C1371.31 761.905 1342.23 758.462 1316.23 747.012C1305.75 742.393 1295.43 736.186 1288.87 726.377C1268.12 695.33 1294.65 647.261 1274.46 615.801C1254.32 584.405 1204.75 594.531 1179.38 567.711C1163.94 551.388 1161.87 526.135 1153.83 504.653C1145.79 483.171 1123.06 462.664 1104.01 473.913C1099.1 476.816 1095.33 481.445 1091.91 486.169C1059.02 531.527 1049.69 594.913 1067.98 648.723C1074.33 667.419 1083.8 685.098 1087.24 704.641C1091.92 731.165 1085.08 758.25 1078.92 784.435C1055.77 882.872 1043.21 993.575 1093.03 1080.21C1107.3 1105.02 1130.13 1139.05 1153.59 1154.72C1167.78 1164.2 1178.99 1178.02 1191.48 1189.89C1210.94 1208.35 1231.43 1226.87 1243.19 1251.58C1254.17 1274.66 1256.52 1302.2 1249.62 1327" stroke="white" stroke-width="2.2" stroke-miterlimit="10"/>
<path d="M2108 569.883C2079.45 563.527 1936 476.668 1880.97 524.017C1855.29 546.113 1834.95 574.67 1818.11 604.838C1805.58 627.284 1794.67 652.251 1774.32 666.921C1752.88 682.376 1725.33 683.266 1700.28 690.384C1666.31 700.034 1635.64 722.246 1614.81 752.266C1601.76 771.068 1591.92 793.407 1573.66 806.468C1556.23 818.946 1534.06 820.789 1513.03 820.916C1502.3 820.98 1491.22 820.62 1481.47 815.895C1471.67 811.139 1464.14 802.432 1455.22 796.024C1409.95 763.473 1345.64 797.337 1294.73 776.11C1285.7 772.349 1277.14 766.725 1271.23 758.579C1245.91 723.687 1280.55 666.773 1256.36 631.002C1232.87 596.279 1173.48 610.632 1150.66 575.412C1139.45 558.125 1136.95 529.599 1117.36 526.527C1105.1 524.599 1093.85 536.145 1090.85 548.877C1087.84 561.61 1090.94 574.977 1094.22 587.636C1109.68 647.134 1129.87 707.067 1126.29 768.663C1123.21 821.541 1102.68 871.888 1098.9 924.724C1094.4 987.527 1116.27 1051.06 1155.18 1098.26C1166.91 1112.5 1180.23 1125.28 1194.85 1136.12C1211.26 1148.27 1230.26 1155.1 1246.1 1168.51C1273.32 1191.56 1287.95 1227.88 1293.83 1264.26C1296.52 1280.9 1297.42 1298.83 1290.19 1313.88" stroke="white" stroke-width="1.7" stroke-miterlimit="10"/>
<path d="M2108.5 645.619C2086.5 632.908 1947.5 548.167 1859.2 597.169C1840.61 607.486 1831.97 630.228 1820.58 648.914C1810 666.264 1796.61 681.698 1781.17 694.313C1770.05 703.402 1757.69 711.124 1744.12 714.99C1718.04 722.405 1688.77 715.329 1664.52 727.892C1622.45 749.691 1618.53 816.923 1578.32 842.355C1569.1 848.181 1558.62 851.306 1548.24 854.251C1525.5 860.691 1501.81 866.559 1478.6 862.386C1445.05 856.338 1416.77 830.036 1382.97 825.82C1346.28 821.244 1306.31 843.054 1273.72 824.634C1257.3 815.355 1246.61 797.146 1241.9 778.069C1237.19 758.992 1237.78 738.929 1239.19 719.259C1241.03 693.466 1242.61 663.192 1223.93 646.53C1199.74 624.942 1153.95 639.009 1138.68 609.678C1133.61 599.944 1130.93 585.294 1123.6 579.998C1120.39 577.678 1115.98 580.115 1115.91 584.225C1115.63 599.732 1120.07 615.112 1124.5 630.016C1143.99 695.659 1164.39 764.394 1152.7 832.081C1145.7 872.618 1127.33 911.144 1127.23 952.349C1127.13 992.813 1145.03 1031.45 1169.57 1062.46C1194.11 1093.46 1225.06 1117.91 1255.7 1142.06C1274.22 1156.66 1293.39 1172.71 1307.61 1191.96C1332.13 1225.18 1344.11 1268.52 1340.36 1310.51" stroke="white" stroke-miterlimit="10"/>
<path d="M1289.36 941.067C1289.63 947.454 1289.55 953.948 1287.97 960.123C1283.71 976.775 1269.07 988.554 1253.55 993.786C1234.18 1000.31 1211.68 997.949 1195.46 984.963C1176.56 969.826 1168.92 943.133 1168.75 918.039C1168.58 892.945 1174.68 868.328 1177.92 843.467C1184.41 793.767 1179.36 742.424 1163.34 695.213C1159.57 684.112 1155.19 671.867 1159.36 660.935C1163.7 649.548 1176.68 643.712 1188.14 645.587C1199.59 647.462 1209.4 655.597 1216.57 665.257C1223.1 674.06 1227.88 684.324 1230.48 695.181C1236.81 721.536 1230.28 749.129 1227.3 776.14C1224.32 803.152 1226.19 833.785 1244.81 852.502C1268.98 876.802 1287.78 903.929 1289.35 941.067L1289.36 941.067Z" stroke="white" stroke-miterlimit="10"/>
<path d="M1202.92 917.107C1202.26 923.653 1201.65 930.58 1204.23 936.565C1207.26 943.609 1214.01 947.857 1220.37 951.67C1225.26 954.604 1230.26 957.581 1235.78 958.757C1241.29 959.922 1247.51 959 1251.61 954.912C1256.48 950.05 1257.19 942.158 1256.79 935.072C1255.34 909.046 1242.71 883.952 1223.12 868.179C1210.67 858.148 1203.76 908.876 1202.93 917.096L1202.92 917.107Z" stroke="white" stroke-miterlimit="10"/>
<path d="M1230.98 907.859C1230.38 905.794 1229.47 903.453 1227.5 902.87C1218.88 900.339 1216.91 921.259 1221.68 925.962C1224.8 929.034 1228.43 927.773 1230.79 924.267C1234.02 919.458 1232.48 912.986 1230.98 907.859Z" stroke="white" stroke-miterlimit="10"/>
<path d="M1213.73 734.353C1213.43 719.767 1212.64 704.672 1206.39 691.675C1203.7 686.082 1200.04 681.019 1195.65 676.803C1194 675.214 1192.02 673.668 1189.8 673.805C1188.12 673.911 1186.62 674.981 1185.44 676.252C1182.25 679.727 1180.97 684.79 1181.07 689.641C1181.17 694.493 1182.52 699.206 1183.94 703.814C1191.33 727.69 1201.38 751.661 1199.88 776.744C1199.49 783.322 1198.29 789.911 1198.98 796.468C1199.51 801.52 1203.29 813.331 1209.8 813.013C1216.44 812.695 1212.79 800.016 1212.74 795.535C1212.51 775.166 1214.12 754.775 1213.71 734.353L1213.73 734.353Z" stroke="white" stroke-miterlimit="10"/>
<path d="M1193.46 686.57C1193.2 686.496 1192.91 686.453 1192.69 686.612C1192.5 686.75 1192.43 687.004 1192.37 687.237C1191.24 691.824 1190.84 716.96 1199.44 710.689C1206.26 705.711 1200.34 688.445 1193.46 686.57Z" stroke="white" stroke-miterlimit="10"/>
<path d="M1321.88 1149.33C1320.14 1147.93 1318.48 1146.44 1317.09 1144.67C1308.82 1134.18 1295.83 1128.66 1284.98 1120.87C1264.48 1106.13 1250.43 1079.39 1255.04 1053.6C1262.97 1009.21 1317.69 988.935 1328.34 945.188C1331.79 931.015 1330.14 915.624 1335.22 902.013C1339.09 891.642 1346.61 883.179 1355.15 876.654C1364.58 869.451 1375.64 864.282 1387.23 863.36C1418.93 860.839 1445.24 889.026 1476.22 896.557C1511.22 905.074 1551.07 886.96 1582.36 905.635C1592.74 911.832 1600.89 921.545 1607.65 931.937C1623.07 955.632 1632.21 983.851 1633.78 1012.59C1634.71 1029.66 1633.12 1047.4 1638.91 1063.36C1643.04 1074.74 1650.66 1084.39 1654.91 1095.71C1659.16 1107.03 1658.96 1121.95 1649.74 1129.24C1631.51 1143.69 1604.97 1146.17 1583.71 1154.82C1573.46 1158.99 1563.2 1163.16 1553.31 1168.2C1545.49 1172.2 1537.91 1176.72 1529.91 1180.29C1511.4 1188.55 1491.13 1191.47 1471.12 1192.97C1439.06 1195.36 1406.86 1194.4 1374.9 1190.72C1364.94 1189.58 1354.48 1188.99 1345.16 1184.74C1337.57 1181.28 1330.73 1174.98 1328.32 1166.62C1326.7 1160.99 1326 1152.64 1321.88 1149.33Z" stroke="white" stroke-width="1.7" stroke-miterlimit="10"/>
<path d="M1577.56 1062.49C1580.74 1055.52 1583.28 1047.83 1582.33 1040.15C1581.05 1029.75 1573.75 1021.48 1566.7 1014.11C1557.87 1004.9 1548.55 995.693 1537.08 990.725C1514.99 981.171 1488.93 988.882 1466.63 979.921C1454.61 975.091 1444.38 965.409 1438.51 953.291C1434.42 944.838 1432.41 935.4 1428.3 926.958C1424.18 918.526 1417.02 910.751 1408.08 910.169C1399.79 909.628 1392.35 915.306 1386.25 921.27C1372.71 934.489 1361.3 951.617 1359.7 971.055C1358.49 985.853 1362.87 1001.84 1356.42 1015.02C1353.51 1020.98 1348.67 1025.62 1345.37 1031.35C1336.36 1046.98 1340.8 1068.28 1351.87 1082.36C1362.94 1096.44 1379.26 1104.61 1395.53 1110.82C1427.72 1123.13 1468.61 1135.77 1502.11 1124.45C1535.61 1113.12 1562.24 1096.13 1577.57 1062.49L1577.56 1062.49Z" stroke="white" stroke-miterlimit="10"/>
<path d="M1530.2 1089.44C1539.58 1085.34 1549.09 1079.33 1553.11 1069.46C1559.68 1053.34 1548.11 1034.37 1533.17 1026.76C1518.23 1019.16 1500.99 1019.43 1484.48 1017.85C1467.97 1016.29 1450.19 1011.82 1439.94 998.025C1435.38 991.891 1432.72 984.402 1428.43 978.057C1424.14 971.713 1417.24 966.3 1409.96 967.528C1401.1 969.022 1396.17 979.371 1394.8 988.767C1393.42 998.162 1394.03 1008.19 1389.87 1016.63C1385.41 1025.68 1375.75 1032.24 1374.98 1042.42C1374.33 1051.02 1380.46 1058.44 1386.72 1063.97C1407.93 1082.7 1430.43 1085.17 1455.59 1093.33C1480.71 1101.47 1505.49 1100.2 1530.21 1089.42L1530.2 1089.44Z" stroke="white" stroke-miterlimit="10"/>
<path d="M1464.27 1067.83C1475.46 1072.36 1487.45 1074.67 1499.43 1074.6C1506.45 1074.56 1514.35 1073.19 1518.4 1067.12C1523.37 1059.69 1519.63 1048.65 1512.73 1043.23C1505.83 1037.81 1496.86 1036.58 1488.31 1035.64C1479.76 1034.7 1470.82 1033.74 1463.65 1028.73C1460.1 1026.24 1457.02 1022.79 1452.95 1021.46C1450.04 1020.5 1446.91 1020.75 1443.87 1021C1431.33 1022.05 1422.99 1034.38 1429.28 1047.54C1434.35 1058.18 1454.46 1063.86 1464.27 1067.83Z" stroke="white" stroke-miterlimit="10"/>
<path d="M1914.92 897.151C1906.54 899.015 1902.22 908.845 1895.1 913.887C1890.27 917.308 1884.34 918.378 1878.62 919.501C1854.3 924.289 1827.4 934.278 1817.65 958.355C1814.53 966.045 1813.53 974.519 1813.37 982.887C1812.9 1008.94 1821.13 1035.83 1838.83 1053.93C1844.41 1059.64 1850.83 1064.41 1856.16 1070.38C1869.69 1085.54 1875.03 1108.39 1869.74 1128.49C1866.92 1139.19 1855.88 1148.08 1851.33 1158.09C1843.14 1176.09 1849.62 1198.98 1863.43 1212.58C1877.24 1226.18 1896.83 1231.59 1915.69 1231.63C1941.62 1231.69 1967.48 1222.25 1987.87 1205.29C1998.68 1196.3 2007.9 1185.36 2016.83 1174.3C2024.02 1165.38 2031.11 1156.28 2036.54 1146.06C2045.53 1129.13 2049.62 1109.85 2053.23 1090.8C2055.76 1077.44 2058.11 1063.96 2058.36 1050.34C2058.88 1021.36 2049.64 992.611 2034.18 968.693C2018.73 944.775 1997.27 925.56 1973.4 911.387C1956.13 901.144 1934.3 892.85 1914.93 897.151L1914.92 897.151Z" stroke="white" stroke-width="0.75" stroke-miterlimit="10"/>
<path d="M1907.59 1127.9C1914.81 1098.69 1911.65 1066.68 1898.73 1039.76C1893.61 1029.09 1887.07 1019.26 1881.75 1008.72C1876.81 998.945 1872.93 988.575 1870.2 977.866C1867.88 968.746 1866.45 958.757 1869.95 950.071C1873.72 940.707 1882.69 934.595 1892.01 932.106C1901.33 929.617 1910.87 930.199 1920.36 930.803C1925.97 931.163 1931.5 932.636 1936.43 935.475C1949.73 943.122 1965.62 938.027 1979.81 942.158C1989.61 945.008 1997.96 952.179 2003.93 960.886C2009.9 969.593 2013.67 979.783 2016.46 990.143C2031.84 1047.28 2016.88 1112.02 1979.75 1156.55C1970.25 1167.95 1958.49 1175.81 1945.28 1181.75C1937.66 1185.18 1929.3 1187.69 1921.15 1186.14C1912.99 1184.58 1905.68 1178.78 1901.85 1170.98C1898.02 1163.18 1897.71 1153.59 1900.92 1145.47C1903.06 1140.05 1906.19 1133.61 1907.6 1127.92L1907.59 1127.9Z" stroke="white" stroke-width="0.75" stroke-miterlimit="10"/>
<path d="M1772.7 807.262C1790.1 793.258 1801.07 770.675 1801.7 747.541C1801.86 741.863 1801.34 735.878 1798.4 731.122C1794.17 724.269 1785.6 721.493 1777.95 722.659C1770.3 723.824 1763.45 728.294 1757.41 733.389C1746 743.007 1736.65 755.082 1725.71 765.304C1714.77 775.526 1701.44 784.106 1686.86 784.435C1682.39 784.53 1677.83 783.863 1673.48 784.943C1668.21 786.256 1663.82 789.985 1659.73 793.735C1643.98 808.13 1627.59 826.943 1628.65 850.575C1629.61 871.972 1639.9 879.577 1657.21 870.33C1675.2 860.722 1689.25 844.992 1708.05 836.434C1729.61 826.625 1753.62 822.631 1772.7 807.283L1772.7 807.262Z" stroke="white" stroke-width="2" stroke-miterlimit="10"/>
<path d="M1738.4 808.491C1735.06 811.562 1731.5 814.486 1727.4 816.234C1722.72 818.236 1717.58 818.628 1712.55 819.136C1700.9 820.333 1688.78 822.568 1679.49 830.099C1676.86 832.229 1674.47 834.781 1671.5 836.349C1668.53 837.917 1664.69 838.319 1662.07 836.169C1658.96 833.616 1658.86 828.405 1660.84 824.803C1662.82 821.202 1666.34 818.903 1669.8 816.933C1677.56 812.526 1685.8 809.084 1694.31 806.69C1703.15 804.201 1713.23 802.919 1721.22 797.898C1730.95 791.786 1733.43 775.876 1742.53 771.353C1749.6 767.836 1758.52 771.533 1759.04 780.95C1759.56 790.367 1744.26 803.078 1738.38 808.491L1738.4 808.491Z" stroke="white" stroke-miterlimit="10"/>
<path d="M1921.02 1108.88C1926.05 1085.88 1923.85 1060.69 1914.85 1039.49C1911.29 1031.1 1906.73 1023.36 1903.02 1015.06C1899.58 1007.37 1896.88 999.2 1894.98 990.768C1893.36 983.586 1892.37 975.726 1894.81 968.884C1897.44 961.511 1903.68 956.702 1910.18 954.743C1916.6 952.804 1923.32 953.238 1929.93 953.715C1933.84 953.99 1937.69 955.156 1941.13 957.391C1950.4 963.418 1961.47 959.393 1971.35 962.645C1978.18 964.89 1983.99 970.536 1988.15 977.39C1992.31 984.243 1994.94 992.272 1996.88 1000.42C2007.59 1045.39 1997.18 1096.37 1971.3 1131.42C1964.68 1140.39 1956.49 1146.57 1947.29 1151.26C1941.98 1153.96 1936.16 1155.93 1930.48 1154.71C1924.79 1153.48 1919.7 1148.92 1917.03 1142.78C1914.36 1136.65 1914.15 1129.09 1916.38 1122.71C1917.87 1118.44 1920.05 1113.37 1921.03 1108.89L1921.02 1108.88Z" stroke="white" stroke-width="0.75" stroke-miterlimit="10"/>
<path d="M1936.25 1092.7C1939.32 1076.51 1937.98 1058.77 1932.48 1043.85C1930.3 1037.94 1927.52 1032.49 1925.25 1026.64C1923.15 1021.22 1921.49 1015.48 1920.33 1009.55C1919.34 1004.5 1918.73 998.956 1920.22 994.136C1921.83 988.946 1925.64 985.556 1929.61 984.179C1933.58 982.802 1937.64 983.12 1941.68 983.459C1944.07 983.66 1946.42 984.476 1948.52 986.043C1954.18 990.28 1960.95 987.452 1966.99 989.74C1971.16 991.318 1974.72 995.291 1977.26 1000.12C1979.8 1004.95 1981.41 1010.6 1982.59 1016.34C1989.14 1048.01 1982.77 1083.9 1966.96 1108.58C1962.91 1114.89 1957.91 1119.26 1952.28 1122.55C1949.04 1124.45 1945.48 1125.84 1942.01 1124.98C1938.53 1124.11 1935.42 1120.9 1933.79 1116.58C1932.16 1112.25 1932.03 1106.94 1933.39 1102.45C1934.3 1099.44 1935.63 1095.87 1936.23 1092.71L1936.25 1092.7Z" stroke="white" stroke-width="0.75" stroke-miterlimit="10"/>
<path d="M1905.82 865.575C1895.8 867.799 1890.63 879.557 1882.12 885.584C1876.34 889.673 1869.25 890.944 1862.42 892.3C1833.33 898.03 1801.17 909.968 1789.51 938.77C1785.78 947.964 1784.58 958.101 1784.4 968.111C1783.84 999.264 1793.67 1031.42 1814.84 1053.06C1821.52 1059.89 1829.19 1065.59 1835.56 1072.73C1851.74 1090.87 1858.13 1118.19 1851.8 1142.22C1848.43 1155.02 1835.23 1165.64 1829.78 1177.61C1819.98 1199.14 1827.73 1226.5 1844.25 1242.77C1860.77 1259.04 1884.19 1265.51 1906.74 1265.55C1937.74 1265.61 1968.67 1254.32 1993.06 1234.05C2005.99 1223.3 2017.01 1210.23 2027.69 1197C2036.29 1186.34 2044.76 1175.45 2051.26 1163.23C2062.01 1142.98 2066.91 1119.92 2071.22 1097.15C2074.25 1081.17 2077.06 1065.05 2077.35 1048.75C2077.97 1014.1 2066.92 979.721 2048.44 951.121C2029.96 922.521 2004.31 899.535 1975.76 882.597C1955.11 870.341 1929 860.437 1905.84 865.575L1905.82 865.575Z" stroke="white" stroke-width="0.75" stroke-miterlimit="10"/>
<path d="M1905.82 865.575C1895.8 867.799 1890.63 879.557 1882.12 885.584C1876.34 889.673 1869.25 890.944 1862.42 892.3C1833.33 898.03 1801.17 909.968 1789.51 938.77C1785.78 947.964 1784.58 958.101 1784.4 968.111C1783.84 999.264 1793.67 1031.42 1814.84 1053.06C1821.52 1059.89 1829.19 1065.59 1835.56 1072.73C1851.74 1090.87 1858.13 1118.19 1851.8 1142.22C1848.43 1155.02 1835.23 1165.64 1829.78 1177.61C1819.98 1199.14 1827.73 1226.5 1844.25 1242.77C1860.77 1259.04 1884.19 1265.51 1906.74 1265.55C1937.74 1265.61 1968.67 1254.32 1993.06 1234.05C2005.99 1223.3 2017.01 1210.23 2027.69 1197C2036.29 1186.34 2044.76 1175.45 2051.26 1163.23C2062.01 1142.98 2066.91 1119.92 2071.22 1097.15C2074.25 1081.17 2077.06 1065.05 2077.35 1048.75C2077.97 1014.1 2066.92 979.721 2048.44 951.121C2029.96 922.521 2004.31 899.535 1975.76 882.597C1955.11 870.341 1929 860.437 1905.84 865.575L1905.82 865.575Z" stroke="white" stroke-width="0.75" stroke-miterlimit="10"/>
<path d="M1899.55 815.725C1887.02 818.511 1880.56 833.203 1869.92 840.745C1862.7 845.861 1853.83 847.45 1845.29 849.134C1808.93 856.295 1768.72 871.22 1754.13 907.224C1749.47 918.717 1747.96 931.396 1747.74 943.906C1747.04 982.855 1759.33 1023.05 1785.8 1050.12C1794.15 1058.66 1803.74 1065.78 1811.71 1074.71C1831.94 1097.38 1839.92 1131.54 1832.01 1161.58C1827.8 1177.58 1811.29 1190.86 1804.48 1205.82C1792.23 1232.72 1801.92 1266.94 1822.57 1287.28C1843.22 1307.61 1872.5 1315.71 1900.7 1315.76C1939.46 1315.83 1978.12 1301.72 2008.61 1276.38C2024.77 1262.93 2038.55 1246.59 2051.9 1230.04C2062.65 1216.72 2073.25 1203.11 2081.36 1187.82C2094.8 1162.52 2100.92 1133.68 2106.31 1105.22C2110.09 1085.24 2113.61 1065.1 2113.97 1044.73C2114.75 1001.4 2100.93 958.429 2077.82 922.668C2054.72 886.908 2022.65 858.18 1986.96 837.006C1961.15 821.689 1928.5 809.296 1899.55 815.725Z" stroke="white" stroke-width="0.75" stroke-miterlimit="10"/>
<path d="M1899.55 815.725C1887.02 818.511 1880.56 833.203 1869.92 840.745C1862.7 845.861 1853.83 847.45 1845.29 849.134C1808.93 856.295 1768.72 871.22 1754.13 907.224C1749.47 918.717 1747.96 931.396 1747.74 943.906C1747.04 982.855 1759.33 1023.05 1785.8 1050.12C1794.15 1058.66 1803.74 1065.78 1811.71 1074.71C1831.94 1097.38 1839.92 1131.54 1832.01 1161.58C1827.8 1177.58 1811.29 1190.86 1804.48 1205.82C1792.23 1232.72 1801.92 1266.94 1822.57 1287.28C1843.22 1307.61 1872.5 1315.71 1900.7 1315.76C1939.46 1315.83 1978.12 1301.72 2008.61 1276.38C2024.77 1262.93 2038.55 1246.59 2051.9 1230.04C2062.65 1216.72 2073.25 1203.11 2081.36 1187.82C2094.8 1162.52 2100.92 1133.68 2106.31 1105.22C2110.09 1085.24 2113.61 1065.1 2113.97 1044.73C2114.75 1001.4 2100.93 958.429 2077.82 922.668C2054.72 886.908 2022.65 858.18 1986.96 837.006C1961.15 821.689 1928.5 809.296 1899.55 815.725Z" stroke="white" stroke-width="0.75" stroke-miterlimit="10"/>
<path d="M1892.85 785.177C1878.84 788.291 1871.62 804.731 1859.71 813.152C1851.63 818.872 1841.72 820.651 1832.16 822.537C1791.49 830.545 1746.53 847.239 1730.22 887.501C1725.01 900.361 1723.32 914.533 1723.07 928.526C1722.28 972.083 1736.04 1017.04 1765.63 1047.3C1774.96 1056.84 1785.69 1064.82 1794.6 1074.8C1817.22 1100.15 1826.15 1138.34 1817.31 1171.94C1812.6 1189.83 1794.14 1204.69 1786.53 1221.42C1772.83 1251.52 1783.67 1289.78 1806.76 1312.52C1829.85 1335.27 1862.6 1344.31 1894.13 1344.37C1937.48 1344.45 1980.71 1328.68 2014.81 1300.33C2032.89 1285.3 2048.3 1267.02 2063.22 1248.52C2075.24 1233.61 2087.09 1218.39 2096.17 1201.31C2111.2 1173.01 2118.05 1140.77 2124.07 1108.93C2128.3 1086.59 2132.23 1064.06 2132.64 1041.27C2133.51 992.823 2118.06 944.765 2092.22 904.767C2066.38 864.78 2030.52 832.653 1990.61 808.968C1961.74 791.84 1925.24 777.984 1892.85 785.177Z" stroke="white" stroke-width="0.75" stroke-miterlimit="10"/>
<path d="M2104 729.83C2062 711.822 1889 585.771 1827.28 726.165C1818.93 745.147 1816.97 766.936 1807.32 785.219C1790.91 816.297 1757.26 831.942 1734.04 857.693C1705.92 888.878 1694.57 935.994 1705.16 977.633C1711.43 1002.3 1724.56 1024.27 1736.72 1046.35C1748.88 1068.42 1760.45 1091.73 1763.05 1117.13C1765.65 1142.53 1757.42 1170.69 1737.15 1184.55C1700.54 1209.59 1673.21 1250.39 1672.01 1296.52C1671.94 1299.28 1671.96 1302.12 1673 1304.65" stroke="white" stroke-width="1.7" stroke-miterlimit="10"/>
<path d="M1445 904.215C1431.22 888.464 1412.36 873.327 1392.55 877.903C1376.55 881.6 1365.7 896.917 1356.33 911.154C1350.17 920.507 1343.87 930.231 1341.83 941.427C1338.91 957.454 1345.06 974.91 1339.11 989.973C1333.79 1003.44 1320.4 1010.97 1311.37 1021.99C1300.56 1035.2 1296.31 1054.11 1300.33 1071.07C1304.35 1088.03 1316.55 1102.55 1331.98 1108.77C1341.02 1112.41 1350.92 1113.32 1359.77 1117.44C1367.76 1121.17 1374.48 1127.32 1381.74 1132.43C1412.08 1153.8 1450.78 1156.46 1487.12 1153.81C1508.18 1152.27 1529.32 1149.13 1549.11 1141.35C1568.9 1133.58 1587.37 1120.88 1599.88 1102.87C1603.78 1097.27 1607.14 1090.98 1608.03 1084.09C1610.27 1066.88 1596.96 1050.8 1598.41 1033.5C1599.69 1018.26 1612.23 1003.61 1606.76 989.443C1604.57 983.776 1599.87 979.719 1595.41 975.843C1583.66 965.61 1572.34 954.837 1561.47 943.567C1554.71 936.555 1548.02 925.623 1537.37 929.108C1528.88 931.883 1522.58 939.923 1513.86 942.772C1501.06 946.957 1487.59 943.63 1476.51 936.173C1464.16 927.858 1454.82 915.454 1444.99 904.215L1445 904.215Z" stroke="white" stroke-miterlimit="10"/>
<path d="M996.12 636.478C995.16 652.197 995.341 668.181 991.081 683.308C985.461 703.275 972.731 719.969 952.961 725.784C934.011 731.366 916.66 721.663 898.39 714.047C885.18 708.539 872.74 700.34 858.63 698.307C853.59 697.586 848.48 697.671 843.4 697.449C821.5 696.474 796.76 693.815 779.01 680.564C761.26 667.313 752.451 645.64 748.941 623.841C745.431 602.041 746.811 579.765 746.191 557.669C745.731 541.176 744.231 524.133 749.821 508.668C751.951 502.778 755.061 497.386 758.901 492.588C772.741 475.29 794.94 467.801 816.37 471.752C827.45 473.786 838.291 476.657 848.071 482.324C866.481 493.001 880.091 513.307 900.331 519.536C911.081 522.84 923.78 519.874 934.77 522.152C949.35 525.16 963.051 532.586 973.711 543.252C973.711 543.252 1000.43 565.571 996.11 636.467L996.12 636.478Z" stroke="white" stroke-width="1.7" stroke-miterlimit="10"/>
<path d="M977.831 633.766C976.721 647.25 976.581 660.989 972.641 673.89C967.451 690.923 956.201 705.001 939.121 709.598C922.741 714.005 908.011 705.319 892.461 698.402C881.211 693.402 870.681 686.104 858.591 684.07C854.281 683.339 849.881 683.318 845.521 683.021C826.721 681.74 805.521 678.954 790.521 667.207C775.821 655.703 768.341 636.658 765.721 617.856C763.111 599.054 764.691 579.945 764.571 560.952C764.481 546.779 763.501 532.098 768.581 518.931C770.521 513.911 773.281 509.356 776.671 505.309C788.871 490.734 808.081 484.76 826.421 488.584C835.901 490.564 845.161 493.244 853.461 498.318C869.081 507.862 880.401 525.594 897.681 531.357C906.851 534.418 917.821 532.13 927.221 534.301C939.691 537.183 951.321 543.845 960.291 553.23C960.291 553.23 982.841 572.954 977.841 633.766L977.831 633.766Z" stroke="white" stroke-width="1.7" stroke-miterlimit="10"/>
<path d="M892.3 629.02C895.37 627.908 898.37 625.44 898.73 622.019C899.16 617.951 895.83 614.614 892.66 612.273C885.36 606.882 876.66 601.988 873.73 593.09C872.91 590.59 872.44 587.646 870.34 586.216C867.88 584.542 864.41 586.078 862.78 588.652C861.16 591.226 860.9 594.467 860.69 597.55C860.18 605.039 860.5 615.091 865.68 620.906C871.76 627.749 883.82 632.092 892.3 629.031L892.3 629.02Z" stroke="white" stroke-width="1.7" stroke-miterlimit="10"/>
<path d="M880.72 655.661C890.57 657.26 901.34 656.73 909.83 651.191C918.09 645.809 922.68 635.418 923.18 625.165C923.68 614.911 920.54 604.784 916.12 595.643C913.29 589.796 909.86 584.161 905.23 579.786C899.2 574.108 891.44 570.846 885.24 565.369C880.87 561.514 877.38 556.662 873.33 552.425C866.48 545.254 857.54 539.703 847.91 539.492C838.28 539.28 828.21 545.519 825.65 555.359C823.4 564.014 827.06 572.964 829.49 581.565C832.64 592.709 832.12 604.456 832.8 616.066C833.17 622.442 834.91 626.7 836.18 628.819C836.18 628.819 842.96 649.517 880.71 655.639L880.72 655.661Z" stroke="white" stroke-width="1.7" stroke-miterlimit="10"/>
<path d="M948.86 607.676C947.73 594.552 943.18 581.353 936.08 568.568C933.07 563.134 928.79 558.357 924.41 554.088C920.7 550.476 916.02 548.241 911.42 546.07C902.58 541.886 893.37 541.864 884.53 537.68C877.89 534.534 869.03 526.208 862.14 523.73C849.86 519.313 839.12 518.116 826.48 521.166C813.84 524.217 802.03 533.221 797.51 546.091C794.12 555.741 795.03 566.386 795.31 576.682C795.68 590.474 794.85 604.382 796.97 617.993C799.1 631.605 804.66 645.312 815.2 653.415C820.47 657.461 826.65 659.887 832.7 662.45C848.27 669.039 864.31 667.334 880.57 671.624C893.87 675.13 908.8 687.195 922.11 683.159C931.1 680.437 937.69 673.89 941.86 665.533C943.95 661.349 945.23 656.783 945.88 652.101C947.2 642.6 949.93 620.44 948.84 607.687L948.86 607.676Z" stroke="white" stroke-width="1.7" stroke-miterlimit="10"/>
<path d="M718.78 463.68C726.89 447.696 737.58 432.781 741.71 415.166C745.84 397.55 740.88 375.581 725.21 368.241C711.81 361.97 696.55 368.421 682.16 371.376C667.77 374.332 648.74 370.359 645.67 355.191C644.42 348.994 646.35 342.469 645.22 336.251C642.66 322.184 626.85 316.549 613.61 313.647C569.54 303.997 523.64 295.554 479.92 306.836C436.2 318.117 395.09 354.311 390.42 401.724C387.67 429.667 397.56 457.568 395.98 485.617C393.79 524.577 370.28 557.859 351.09 591.172C297.68 683.868 272.81 794.688 281.11 902.934C282.53 921.492 285.24 940.887 295.73 955.833C305.07 969.137 319.44 977.272 333.48 984.602C375.83 1006.71 422.51 1025.89 469.18 1018.32C537.55 1007.23 585.98 943.26 647.29 909.342C662.28 901.048 678.18 894.502 692.28 884.619C752.27 842.577 748.66 769.287 725.08 707.521C697.1 634.2 681.81 536.546 718.78 463.691L718.78 463.68Z" stroke="white" stroke-width="2.2" stroke-miterlimit="10"/>
<path d="M630.32 570.358C626.98 597.761 617.37 626.054 596.5 642.653C569.99 663.732 533.32 660.565 500.53 655.47C497.19 654.951 493.79 654.41 490.72 652.927C481.46 648.457 477.46 636.848 475.91 626.181C468.18 572.657 498.54 521.473 503.8 467.621C504.92 456.159 504.97 444.243 509.51 433.777C514.06 423.312 524.9 414.7 535.39 417.751C551.93 422.56 552.44 448.522 565.79 459.92C585.72 476.942 622.48 453.257 635.3 482.196C643.36 500.384 632.62 551.387 630.31 570.369L630.32 570.358Z" stroke="white" stroke-miterlimit="10"/>
<path d="M561.76 798.713C557.75 818.437 542.71 833.372 527.41 845.374C513.41 856.358 498.2 866.199 481.29 870.658C464.38 875.118 445.47 873.635 431 863.349C417.11 853.477 408.72 836.486 405.81 819.03C402.91 801.584 404.97 783.608 408.51 766.289C412.65 746.005 418.81 726.186 426.85 707.257C433.23 692.226 441.85 676.718 456.22 670.426C473.4 662.906 492.8 670.871 509.84 678.763C541.19 693.285 536.87 692.088 543.55 721.652C549.43 747.668 567.49 770.463 561.75 798.713L561.76 798.713Z" stroke="white" stroke-miterlimit="10"/>
<path d="M531.7 779.498C531.3 798.279 520.19 815.068 506.98 827.61C494.99 838.986 478.69 848.276 463.26 843.403C442.94 836.984 435.6 810.238 436.38 787.792C437.03 769.287 440.96 750.919 447.91 733.939C451.57 724.989 456.29 716.144 463.69 710.328C495.43 685.415 532.25 753.038 531.68 779.509L531.7 779.498Z" stroke="white" stroke-miterlimit="10"/>
<path d="M482.44 756.608C492.73 766.576 493.85 785.367 484.83 796.627C483.29 798.544 481.21 800.377 478.84 800.175C475.9 799.921 474.05 796.765 472.89 793.883C468.17 782.168 466.81 768.959 469.02 756.449C473.72 756.312 478.42 756.163 483.13 756.026" stroke="white" stroke-miterlimit="10"/>
<path d="M675.59 796.49C663.41 827.96 635 849.696 607.48 869.091C551.3 908.665 490.35 946.597 422.06 953.292C399.83 955.474 376.22 953.917 357.19 942.18C333.15 927.361 320.8 899.322 312.41 872.269C307.45 856.285 303.33 839.792 303.55 823.045C304.27 767.201 350.63 724.672 381.09 677.948C405.95 639.815 421.23 595.442 425.16 550.032C427.87 518.709 425.26 487.143 427.18 455.768C429.1 424.393 436.12 392.075 455.45 367.362C460.53 360.859 466.57 354.863 474.04 351.41C481.41 347.999 489.68 347.258 497.76 346.569C515.27 345.076 533.05 343.593 550.28 347.067C567.51 350.531 584.41 359.683 593.23 374.947C596.6 380.783 598.74 387.382 602.93 392.658C614.76 407.551 637.04 406.46 656 406.036C674.96 405.612 698.51 410.824 703.11 429.308C704.79 436.055 703.37 443.142 701.94 449.942C693.7 489.273 685.46 528.614 677.22 567.944C669.44 605.113 668.55 638.099 672.83 675.956C677.31 715.615 690.68 757.466 675.59 796.479L675.59 796.49Z" stroke="white" stroke-miterlimit="10"/>
<path d="M654.46 776.109C644.51 803.215 621.29 821.943 598.8 838.637C552.89 872.724 503.08 905.402 447.28 911.164C429.12 913.039 409.83 911.704 394.27 901.599C374.62 888.835 364.54 864.684 357.67 841.38C353.62 827.61 350.25 813.405 350.43 798.989C351.02 750.888 388.9 714.248 413.79 674.007C434.1 641.159 446.59 602.941 449.8 563.822C452.01 536.843 449.88 509.652 451.45 482.63C453.02 455.598 458.76 427.771 474.55 406.48C478.7 400.877 483.64 395.718 489.74 392.731C495.76 389.797 502.52 389.161 509.13 388.557C523.44 387.276 537.97 385.994 552.05 388.981C566.13 391.968 579.94 399.849 587.15 412.994C589.91 418.026 591.65 423.704 595.08 428.258C604.75 441.086 622.95 440.143 638.44 439.783C653.93 439.423 673.18 443.904 676.94 459.824C678.31 465.64 677.15 471.741 675.99 477.599C669.26 511.484 662.53 545.36 655.79 579.245C649.43 611.256 648.71 639.676 652.2 672.291C655.86 706.452 666.79 742.498 654.45 776.098L654.46 776.109Z" stroke="white" stroke-miterlimit="10"/>
<path d="M615.211 563.78C612.551 585.58 604.911 608.089 588.311 621.277C567.231 638.045 538.061 635.524 511.971 631.477C509.311 631.064 506.611 630.63 504.171 629.454C496.801 625.895 493.621 616.658 492.391 608.184C486.241 565.613 510.391 524.905 514.571 482.058C515.461 472.938 515.501 463.468 519.121 455.143C522.741 446.817 531.361 439.974 539.711 442.4C552.861 446.224 553.271 466.869 563.891 475.936C579.751 489.473 608.981 470.64 619.181 493.647C625.591 508.116 617.051 548.686 615.211 563.78Z" stroke="white" stroke-miterlimit="10"/>
<path d="M574.081 500.796C566.711 498.487 560.941 492.979 553.141 491.983C544.261 490.85 535.481 496.242 531.101 502.978C526.721 509.715 525.771 517.564 524.911 525.17C522.361 547.722 519.801 570.263 517.251 592.814C516.371 600.589 517.111 610.599 525.831 612.972C533.071 614.942 540.321 609.858 545.541 605.017C566.431 585.654 583.651 563.218 595.721 539.152C599.371 531.875 611.051 514.048 605.111 506.358C598.021 497.174 584.611 504.08 574.091 500.786L574.081 500.796Z" stroke="white" stroke-miterlimit="10"/>
<path d="M577.77 224.828C547.04 222.392 517.67 210.423 487.13 206.08C447.36 200.434 405.11 208.601 372.4 233.207C339.69 257.814 317.94 299.792 320.54 342.205C321.3 354.545 324 366.759 323.72 379.12C322.97 411.999 301.82 439.667 284.64 467.06C261.71 503.615 244.39 544.121 233.56 586.481C226.34 614.72 218.85 648.034 193.47 659.57C171.75 669.442 145.07 656.784 132.27 635.736C119.48 614.689 118.34 587.741 122.74 563.145C128.1 533.179 141.15 504.812 160.12 481.868C170.72 469.051 183.27 457.685 190.9 442.686C208.53 408.048 195.41 365.805 194.75 326.464C194 281.266 210.31 237.942 226.45 196.091C235.07 173.761 243.91 151.083 258.3 132.387C277.78 107.081 306.2 90.9063 335.74 81.6166C365.28 72.3269 396.22 69.3715 426.92 66.4586C481.24 61.3106 536.64 56.2368 589.8 69.1491C601.89 72.0833 613.91 75.9919 624.6 82.6547C657.42 103.088 668.5 147.195 659.66 184.725C650.47 223.737 611.09 227.477 577.74 224.839L577.77 224.828Z" stroke="white" stroke-width="1.7" stroke-miterlimit="10"/>
<path d="M618.4 187.002C620.16 183.835 621.22 180.286 621.61 176.632C623.82 155.934 620.35 134.611 611.79 115.862C609 109.75 605.55 103.765 600.47 99.6342C600.14 99.3588 599.8 99.1046 599.45 98.8504C585.41 88.5226 566.05 98.9139 564.92 116.985L562.86 149.907C562.5 155.584 562.17 161.421 563.84 166.834C570.37 187.976 602.68 215.221 618.41 187.013L618.4 187.002Z" stroke="white" stroke-miterlimit="10"/>
<path d="M295.63 113.15C262.17 134.696 243.35 179.132 250.4 219.934C252.54 232.306 257.35 244.996 267.12 252.146C280.31 261.817 298.74 258.534 312.69 250.144C326.64 241.744 337.76 229.033 350.71 218.991C362.56 209.808 375.96 202.87 390.08 198.622C403.59 194.554 419.02 192.129 427.66 180.392C446.13 155.33 432.64 111.233 406.07 100.905C372.62 87.8976 325.75 93.7448 295.63 113.15Z" stroke="white" stroke-miterlimit="10"/>
<path d="M317.51 194.999C315.77 196.736 314.02 198.537 311.86 199.639C303.7 203.812 293.76 195.433 292.35 185.942C290.94 176.462 295.33 167.151 300.08 158.974C304.5 151.347 309.49 143.858 316.32 138.583C328.77 128.954 399.48 117.144 392.23 147.396C389.59 158.412 365.65 163.317 357.77 166.929C342.61 173.867 329.55 182.955 317.51 194.999Z" stroke="white" stroke-miterlimit="10"/>
<path d="M294.361 362.224C294.441 355.646 293.761 348.751 290.311 343.285C282.321 330.658 264.771 331.781 250.621 334.334C245.881 335.192 240.731 336.294 237.671 340.213C235.251 343.327 234.681 347.564 234.241 351.568C231.801 373.76 230.491 396.078 230.311 418.418C230.171 435.906 260.111 432.188 269.591 425.451C286.291 413.567 294.121 381.905 294.371 362.224L294.361 362.224Z" stroke="white" stroke-miterlimit="10"/>
<path d="M282.501 369.502C282.551 365.36 282.121 361.017 279.951 357.575C274.921 349.619 263.871 350.329 254.961 351.939C251.981 352.479 248.731 353.168 246.811 355.647C245.281 357.606 244.931 360.276 244.651 362.797C243.121 376.768 242.291 390.825 242.181 404.892C242.091 415.908 260.951 413.567 266.911 409.319C277.421 401.841 282.351 381.906 282.511 369.502L282.501 369.502Z" stroke="white" stroke-miterlimit="10"/>
<path d="M270.631 376.789C270.651 375.084 270.481 373.304 269.581 371.885C267.511 368.612 262.971 368.908 259.301 369.565C258.071 369.787 256.741 370.073 255.951 371.09C255.321 371.895 255.181 372.997 255.061 374.035C254.431 379.776 254.091 385.56 254.041 391.343C254.001 395.866 261.761 394.913 264.211 393.165C268.531 390.094 270.561 381.895 270.621 376.8L270.631 376.789Z" stroke="white" stroke-miterlimit="10"/>
<path d="M-209.119 863.593C-150.959 864.927 -78.3094 877.797 -33.0194 839.134C-0.519428 811.392 27.7806 778.132 50.4706 741.015C62.4006 721.504 73.0006 700.191 74.9706 677.036C76.9306 653.986 70.1707 631.085 69.8807 607.951C68.8307 525.583 146.871 462.621 154.241 380.623C156.701 353.295 150.991 325.913 150.421 298.467C149.341 246.638 166.731 195.92 191.571 151.241C204.111 128.689 218.831 107.059 238.091 90.6514C250.901 79.741 265.481 71.3516 280.471 64.2016C379.911 16.768 494.111 23.7168 602.571 35.8347C636.431 39.6163 671.341 43.7261 703.991 33.4937C741.751 21.6618 773.491 -9.95714 786.931 -49.1603C808.001 -110.597 821.101 -170.911 823.121 -236.236C825.141 -301.56 821.451 -367.171 827.851 -432.178" stroke="white" stroke-width="2.2" stroke-miterlimit="10"/>
<path d="M978.2 -390.199C968.54 -329.292 958.88 -268.374 949.23 -207.466C934.77 -116.296 919.95 -23.8438 883.07 59.9436C846.19 143.731 783.86 219.235 701.14 248.735C645.04 268.745 583.9 266.361 525.49 256.171C477.46 247.793 421.67 236.469 385.41 270.863C359.58 295.364 353.47 334.874 346.86 370.921C335.09 435.112 316.94 497.99 292.79 558.177C279.41 591.522 263.77 624.709 239.54 650.29C210.41 681.051 170.84 698.772 141.53 729.332C97.1403 775.611 77.8803 849.303 22.3704 879.228C-3.63964 893.252 -33.7697 895.148 -62.9197 896.769C-108.91 899.332 -154.9 901.906 -200.9 904.47C-203.39 904.607 -205.91 903.929 -208.04 902.552" stroke="white" stroke-width="2.2" stroke-miterlimit="10"/>
<path d="M888.49 -289.559C874.21 -287.906 862.77 -275.28 857.51 -261.128C852.24 -246.976 851.97 -231.363 851.76 -216.152C851.11 -170.445 850.24 -124.208 839 -80.0688C827.77 -35.9401 804.95 6.54675 768.79 31.4923C742.74 49.4467 709.6 58.9695 688.24 81.3199C681.78 88.078 685.11 99.7615 693.98 101.795C699.01 102.95 704.12 103.67 709.26 103.935C748.54 106.001 784.45 82.4003 817.42 59.6898C834.96 47.6036 852.86 35.1785 865.59 17.5736C874.64 5.05318 880.69 -9.56447 886.64 -24.0128C895.97 -46.6597 905.3 -69.2961 914.63 -91.9431C928.11 -124.664 965.31 -298.467 888.5 -289.548L888.49 -289.559Z" stroke="white" stroke-miterlimit="10"/>
<path d="M912.75 -216.967C913.7 -221.967 914.58 -227.496 912.15 -231.903C908.38 -238.767 898.27 -238.735 892.44 -233.746C886.61 -228.757 884.1 -220.685 882.3 -212.974C870.73 -163.401 876.27 -109.813 858.7 -62.2626C852.04 -44.2234 842.25 -27.6988 832.53 -11.3015C824.67 1.94983 816.81 15.2117 808.95 28.463C813.28 30.8887 818.29 27.033 821.75 23.3468C885.72 -44.8695 895.76 -127.47 912.75 -216.967Z" stroke="white" stroke-miterlimit="10"/>
<path d="M806.14 151.845C810.4 146.4 814.44 140.532 816.33 133.742C818.22 126.952 817.62 119.04 813.32 113.627C808.72 107.843 800.85 106.043 793.75 106.932C786.65 107.812 780.01 110.947 773.29 113.5C755.06 120.438 735.47 123.362 716.14 122.006C710.53 121.614 704.34 121.042 699.85 124.622C693.31 129.844 694.27 140.225 694.24 148.9C694.2 160.128 691.32 171.325 685.98 181.028C683.59 185.36 680.7 189.438 679.04 194.141C677.38 198.844 677.16 204.49 679.93 208.568C689.61 222.762 718.24 212.975 730.55 208.208C749.4 200.91 767.06 190.19 782.56 176.695C791.14 169.228 799.05 160.902 806.13 151.845L806.14 151.845Z" stroke="white" stroke-miterlimit="10"/>
<path d="M767.31 173.2C773.41 167.734 779.07 161.718 784.01 155.362C787.15 151.326 789.73 147.312 790.9 143.053C792.25 138.075 791.1 133.361 787.78 130.173C784.7 127.217 780.05 126.169 775.62 126.72C771.31 127.249 767.19 128.997 763.03 130.543C757.64 132.556 752.1 134.23 746.63 135.543C740.74 136.941 734.75 137.874 728.82 138.287C725.52 138.509 721.94 138.657 719.23 140.903C715.28 144.187 715.17 150.097 714.53 155.182C713.68 161.993 711.43 168.878 708.29 175.107C706.88 177.903 705.28 180.593 704.36 183.612C703.44 186.61 703.41 190.053 704.74 192.828C710.36 204.596 726.91 198.272 735.9 193.834C746.92 188.39 757.79 181.716 767.31 173.189L767.31 173.2Z" stroke="white" stroke-miterlimit="10"/>
<path d="M747.03 150.394C742.78 153.254 738.21 156.983 734.81 161.474C731.41 165.965 729.16 171.219 729.55 177.13C730.2 186.938 735.82 184.131 741.25 179.502C744.71 176.547 748.46 173.221 752.06 169.715C755.65 166.209 759.08 162.533 761.88 158.889C767.57 151.485 766.2 147.788 762.24 146.718C758.28 145.649 751.72 147.227 747.04 150.383L747.03 150.394Z" stroke="white" stroke-miterlimit="10"/>
<path d="M729.52 962.136C708.74 958.62 687.56 955.103 666.74 958.387C620.05 965.759 584.59 1004.99 543.88 1030.32C456.5 1084.69 335.57 1069.16 262.98 994.253C251.89 982.813 241.25 969.763 226.63 964.361C217.04 960.823 206.63 960.96 196.49 961.617C171.57 963.248 145.96 968.206 125.34 983.12C104.71 998.024 90.2203 1024.82 94.9603 1050.79C99.7903 1077.26 121.97 1095.6 142.69 1111.27C198.07 1153.13 256.48 1194.77 323.38 1207.83C384.41 1219.75 448.59 1206.34 503.8 1176.32C544.16 1154.37 585.69 1122.65 630.19 1131.96C655.05 1137.16 675.77 1154.59 698.35 1166.76C720.93 1178.95 750.12 1185.28 770.33 1169.1C798.02 1146.95 797.2 1084.35 802.32 1050.66C811.12 992.77 779.37 970.557 729.51 962.126L729.52 962.136Z" stroke="white" stroke-width="2.2" stroke-miterlimit="10"/>
<path d="M754.58 1092.62C765.08 1074.88 766.17 1052.37 762.14 1031.88C759.23 1017.08 752.011 1001.02 738.221 997.144C729.271 994.623 719.79 997.96 710.57 997.144C704.3 996.593 696.58 994.708 692.81 1000.04C691.4 1002.03 690.99 1004.61 690.73 1007.09C688.84 1024.82 692.231 1042.65 695.601 1060.13C698.401 1074.63 698.62 1110.34 711.52 1116.91C725.56 1124.08 748.08 1103.74 754.58 1092.62Z" stroke="white" stroke-miterlimit="10"/>
<path d="M248.49 1028.71C236.47 1020.81 222.38 1016.68 211.05 1007.69C202.39 1000.83 195.15 991.064 184.67 988.247C168.92 984.01 154.02 997.208 143.46 1010.3C131.77 1024.8 120.81 1043.12 124.79 1061.71C127.39 1073.85 136.19 1083.73 146.5 1089.72C156.8 1095.72 168.54 1098.29 180.17 1100.12C202.3 1103.59 224.77 1104.6 247.1 1103.13C274.16 1101.35 266.82 1040.78 248.48 1028.71L248.49 1028.71Z" stroke="white" stroke-miterlimit="10"/>
<path d="M835.5 1326.72C860.87 1239.11 903.54 1093.36 866.46 1010.55C855.95 987.102 840.93 966.234 829.32 943.376C804.7 894.883 796.2 837.407 805.64 783.258C808.07 769.329 816.1 752.264 829.31 754.425C833.98 755.188 837.91 758.387 841.77 761.278C873.57 785.048 915.43 793.056 953.07 782.57C959.85 780.684 967.11 778.237 973.68 780.832C983.09 784.55 986.56 796.552 988.31 807.028C997.98 864.927 993.36 924.277 994.15 983.066C994.94 1041.85 1001.93 1102.95 1031.75 1152.56C1053.95 1189.48 1091.63 1302.57 1080.5 1344.73" stroke="white" stroke-width="1.7" stroke-miterlimit="10"/>
<path d="M850.17 1331.36C855.36 1312.26 860.92 1291.89 866.42 1270.8C881.52 1212.86 896.36 1149.98 899.02 1091.31C900.08 1067.83 898.96 1044.81 891.62 1024.35C891.22 1023.24 890.81 1022.16 890.38 1021.08C885.05 1007.69 877.5 995.406 870 983.193C864.37 974.03 858.75 964.878 853.44 955.525C849.95 949.381 846.6 943.164 843.4 936.882C825.97 902.689 812.41 865.181 814.46 826.221C814.87 818.531 816.17 810.671 818.3 803.225C822.21 789.677 831.15 775.726 844.3 776.987C847.75 777.315 850.77 779.116 853.73 780.822C877.86 794.793 904.71 806.17 932.11 805.799C934.76 805.767 937.48 805.862 940.22 805.587C945.83 805.026 951.32 805.545 956.29 807.854C966.83 812.726 972.84 824.58 974.53 837.058C977.67 860.202 977.36 884.322 978.26 907.795C980.02 953.618 987.78 998.616 991.96 1044.13C995.25 1079.99 998.31 1116.84 1009.69 1150.66C1013.21 1161.13 1017.56 1171.24 1022.35 1181.14C1028.02 1192.86 1034.32 1208.68 1039.59 1226.19C1047.36 1252.02 1051.53 1281.73 1048.5 1305.39C1047.08 1316.51 1044.63 1326.17 1040.61 1333.84" stroke="white" stroke-miterlimit="10"/>
<path d="M864.85 1336.01L880.06 1276.41C894.82 1218.56 909.62 1160.51 917.26 1101.13C920.1 1079.05 921.88 1056.08 915.38 1034.88C910.88 1020.2 902.65 1007.19 894.51 994.379C885.15 979.644 875.8 964.921 866.44 950.186C846.26 918.409 825.27 883.834 826.26 845.553C826.81 824.219 839.14 799.613 859.29 799.602C879.22 799.581 892.08 822.991 911.16 829.081C914.21 830.056 917.39 830.522 920.57 830.501C940.89 830.427 958.38 845.775 960.78 867.14C963.77 893.707 961.5 922.042 962.55 949C964.61 1001.98 980.49 1053.14 989.79 1105.24C994.6 1132.19 997.68 1159.58 1005.21 1185.82C1010.91 1205.68 1019.12 1224.76 1023.19 1245.06C1027.26 1265.37 1026.68 1287.89 1015.86 1305.19C1011.69 1311.86 1006.19 1317.45 1000.74 1322.99" stroke="white" stroke-miterlimit="10"/>
<path d="M514.5 -321.484C519.58 -310.034 505.33 -196.979 504.63 -184.353C503.61 -165.922 501.03 -147.586 496.92 -129.653C494.08 -117.249 490.43 -104.845 483.78 -94.1992C475.15 -80.3758 462.06 -70.4401 448.76 -61.7118C388.22 -21.979 318.31 -1.28105 255.38 34.0241C192.44 69.3292 133.19 126.053 122.71 200.667C118.09 233.62 123.24 268.459 111.93 299.538C104.51 319.95 90.3902 337.322 84.8602 358.401C78.7502 381.684 83.7201 407.286 76.0201 430.028C71.1301 444.455 61.5501 456.467 54.1901 469.655C34.67 504.61 31.0401 547.129 14.2001 583.621C-5.10995 625.461 -40.3698 656.434 -76.8498 682.428C-117.6 711.473 -164.97 736.853 -213.69 730.233C-211.12 725.646 -208.54 721.059 -205.97 716.473" stroke="white" stroke-width="1.7" stroke-miterlimit="10"/>
<path d="M467.161 -322.523C472.761 -304.833 463.831 -210.76 462.311 -192.054C460.441 -169.004 453.851 -146.124 443.261 -128.223C436.35 -116.539 427.971 -106.233 420.071 -93.7228C412.561 -81.838 402.261 -72.3681 390.911 -64.6673C344.781 -33.3662 290.95 -17.329 242.21 9.216C181.89 42.0636 125.71 95.2807 109.27 162.872C102.5 190.688 104.181 220.305 93.6606 247.464C85.6406 268.184 74.4104 287.377 67.9304 308.679C60.1104 334.377 56.9405 359.926 48.5905 385.497C43.4305 401.279 36.6605 415.77 30.1005 430.663C15.3105 464.252 9.64055 502.481 -5.38945 536.409C-21.2395 572.17 -50.1995 598.492 -78.1395 623.491C-113.929 655.502 -152.979 688.604 -199.669 689.885C-203.579 690.044 -208.88 687.587 -213.46 682.216" stroke="white" stroke-miterlimit="10"/>
<path d="M419.82 -323.561C425.94 -299.632 422.37 -224.52 419.98 -199.744C417.31 -172.076 406.97 -144.567 389.59 -126.782C378.81 -115.755 365.51 -107.599 356.35 -93.2462C349.99 -83.2786 342.45 -74.3066 333.06 -67.6227C301.23 -44.9651 263.43 -33.6628 229.04 -15.6025C171.29 14.7347 118.84 64.3822 95.8303 125.067C87.2303 147.735 85.0104 172.098 75.4004 195.381C66.7204 216.386 58.3703 237.412 51.0003 258.947C41.3903 287.049 30.1504 312.545 21.1604 340.944C15.7204 358.093 11.5903 374.925 6.01026 391.651C-4.60974 423.471 -11.7997 457.791 -24.9797 489.177C-37.4297 518.836 -59.6197 541.441 -79.4397 564.532C-110.17 600.346 -141 640.333 -185.66 649.527C-196.06 654.432 -209.23 654.093 -220.96 647.949" stroke="white" stroke-miterlimit="10"/>
<path d="M372.47 -324.599C379.12 -294.431 380.96 -238.29 377.64 -207.445C374.24 -175.148 360.2 -142.83 335.91 -125.352C321.33 -114.865 303.06 -108.965 292.62 -92.7797C287.42 -84.7187 282.61 -76.2977 275.19 -70.5777C257.46 -56.9238 235.72 -50.3459 215.86 -40.4206C160.57 -12.7845 112.881 33.7699 82.3805 87.2625C72.3205 104.899 65.7305 123.849 57.1205 143.297C47.7005 164.557 42.2504 187.415 34.0604 209.215C22.6004 239.701 3.35035 265.165 -6.27965 296.392C-11.9897 314.897 -13.7495 333.975 -18.0895 352.649C-25.0295 382.51 -33.3397 413.059 -44.5697 441.955C-53.7097 465.46 -68.3496 485.226 -80.7296 505.585C-105.5 546.314 -129.01 592.074 -171.64 609.181C-188.52 618.831 -209.56 620.621 -228.44 613.704" stroke="white" stroke-miterlimit="10"/>
<path d="M325.13 -325.637C332.3 -289.241 339.5 -252.051 335.32 -215.135C331.14 -178.22 313.46 -140.945 282.25 -123.923C263.87 -113.902 240.671 -110.3 228.911 -92.3037C224.881 -86.1388 222.531 -78.6391 217.341 -73.5335C213.261 -69.5189 207.86 -67.4428 202.69 -65.229C149.05 -42.2324 108.07 4.31143 68.9304 49.4676C57.7204 62.4118 46.3605 75.5571 38.8405 91.2236C28.5505 112.663 26.1105 137.418 17.1105 159.503C3.74055 192.341 -23.4495 217.805 -33.7295 251.871C-39.7195 271.732 -39.4595 293.012 -42.1995 313.668C-45.8995 341.569 -55.0695 368.283 -64.1795 394.754C-70.1295 412.052 -76.0896 429.35 -82.0396 446.658C-98.1296 493.403 -117.029 543.834 -157.639 568.844C-181.009 583.239 -209.92 587.158 -235.95 579.457" stroke="white" stroke-miterlimit="10"/>
<path d="M746.1 1020.71C744.93 1018.56 743.59 1016.43 741.66 1015.03C739.3 1013.3 736.34 1012.85 733.51 1012.46C727.72 1011.65 721.93 1010.83 716.15 1010.01C714.22 1009.74 712.07 1009.54 710.53 1010.79C708.55 1012.41 708.62 1015.52 708.87 1018.16C710.74 1037.74 712.61 1057.31 714.47 1076.88C714.81 1080.42 715.18 1084.07 716.76 1087.21C719.7 1093.04 726.4 1095.89 732.64 1095.65C760.37 1094.58 756.67 1040.13 746.11 1020.71L746.1 1020.71Z" stroke="white" stroke-miterlimit="10"/>
<path d="M229.59 1091.63C232.7 1090.94 235.93 1090.02 238.23 1087.71C240.6 1085.34 241.63 1081.85 242.43 1078.51C244.57 1069.53 245.55 1059.33 240.71 1051.62C235.98 1044.09 227.13 1041.09 219.67 1036.69C213.3 1032.93 207.64 1027.83 203.09 1021.79C199.71 1017.29 196.59 1011.99 191.46 1010.09C189.2 1009.25 186.75 1009.19 184.36 1009.33C169.82 1010.18 155.41 1019.36 149.91 1033.64C147.73 1039.29 146.98 1045.46 146.55 1051.55C145.94 1060.18 146.05 1069.3 149.97 1076.9C156.36 1089.29 171.11 1088.3 182.47 1091.08C197.9 1094.85 214.1 1095.07 229.6 1091.62L229.59 1091.63Z" stroke="white" stroke-miterlimit="10"/>
<path d="M199.24 1079.31C203.29 1079.77 207.51 1079.62 211.22 1077.85C214.93 1076.07 218.02 1072.41 218.35 1068.1C218.82 1062.13 214.16 1057.15 209.51 1053.73C204.86 1050.31 199.52 1047.1 197.35 1041.56C196.62 1039.68 196.26 1037.57 194.96 1036.08C193.42 1034.33 190.89 1033.9 188.68 1034.42C186.47 1034.94 184.51 1036.23 182.6 1037.5C179.93 1039.28 177.06 1041.33 176.17 1044.53C175.45 1047.12 176.2 1049.9 176.95 1052.48C177.87 1055.65 178.79 1058.8 179.71 1061.97C182.41 1071.27 189.93 1078.27 199.24 1079.31Z" stroke="white" stroke-miterlimit="10"/>
<path d="M739.12 1039.14C738.32 1036.87 736.87 1034.44 734.59 1034.17C732.41 1033.9 730.53 1035.73 729.24 1037.62C725.42 1043.2 717.68 1070.21 728.14 1072.55C733.44 1073.74 737.09 1065.45 738.53 1061.38C741.03 1054.33 741.64 1046.27 739.12 1039.14Z" stroke="white" stroke-miterlimit="10"/>
<path d="M1025.32 456.774C1047.02 436.564 1056.12 401.555 1044.94 373.336C1038.46 356.981 1026.3 344.069 1015.5 330.511C987.53 295.407 966.85 251.553 967.4 205.624C967.6 189.184 969.79 170.457 959.18 158.445C954.84 153.53 948.84 150.542 942.68 148.869C920.91 142.937 897.24 152.841 881.18 169.503C865.12 186.165 855.62 208.674 848.98 231.427C845.89 242.009 843.23 252.994 837.24 262.072C828.04 276.012 812.25 283.532 802.05 296.667C792.41 309.082 788.55 325.638 788.45 341.718C788.35 357.797 791.68 373.654 795 389.342C795.94 393.801 796.91 398.335 799 402.339C802.35 408.769 808.22 413.217 813.9 417.433C830.95 430.102 849.3 443.247 870.11 444.053C878.69 444.381 887.69 442.633 895.59 446.192C907.44 451.531 913.02 465.799 924 472.705C932.76 478.214 939.79 477.44 949.55 477.133C977.38 476.254 1002.86 477.737 1025.34 456.795L1025.32 456.774Z" stroke="white" stroke-width="1.7" stroke-miterlimit="10"/>
<path d="M1001.47 437.506C1019.82 420.007 1025.02 392.593 1014.81 370.709C1008.97 358.104 998.76 348.105 989.37 338.169C974.14 321.994 960.47 303.647 952.76 282.155C948.24 269.539 945.96 256.076 946.1 242.422C946.15 237.168 946.49 231.671 946.48 226.322C946.45 218.239 945.59 210.486 941.66 204.374C939 200.211 935.24 197.34 931.38 195.349C927.25 193.22 922.99 192.054 918.76 191.684C912.5 191.112 906.21 191.991 899.46 194.787C895.69 196.344 891.92 198.685 888.46 201.376C874.29 212.403 864.68 229.616 857.76 247.549C854.41 256.224 851.44 265.228 846.5 273.056C838.85 285.195 827.32 293.256 820.02 305.12C813.11 316.39 810.53 330.478 810.91 344.185C811.28 357.86 814.4 371.334 817.95 384.522C818.95 388.25 820 392.021 821.83 395.422C824.76 400.866 829.43 404.966 834.1 408.8C847.21 419.562 861.62 430.049 877.79 431.902C884.49 432.686 891.51 431.998 897.81 434.741C907.28 438.862 912.62 448.671 921.54 453.395C928.52 457.092 934.32 456.541 941.94 456.128C963.65 454.973 983.72 454.348 1001.48 437.527L1001.47 437.506Z" stroke="white" stroke-miterlimit="10"/>
<path d="M977.62 418.238C992.65 403.493 993.89 383.653 984.68 368.082C979.46 359.248 971.22 352.151 963.24 345.827C950.4 335.594 937.78 324.493 930.71 308.88C926.57 299.738 924.73 289.538 924.8 279.199C924.83 275.206 925.11 271.075 925.3 267.071C925.57 261.065 925.58 255.26 924.13 250.292C923.14 246.892 921.65 244.127 920.07 241.818C918.39 239.35 916.63 237.38 914.84 235.77C912.18 233.376 909.3 231.226 904.42 231.13C901.7 231.067 898.61 231.988 895.72 233.238C883.34 238.566 873.62 250.525 866.52 263.649C862.86 270.407 859.62 277.441 855.73 284.019C849.63 294.368 842.36 302.969 837.96 313.551C833.78 323.678 832.48 335.298 833.34 346.632C834.19 357.913 837.09 368.993 840.87 379.67C841.93 382.678 843.06 385.676 844.64 388.472C847.15 392.921 850.63 396.661 854.29 400.146C863.5 408.906 873.94 416.797 885.46 419.731C890.29 420.96 895.31 421.331 900.02 423.269C907.1 426.182 912.2 431.542 919.08 434.063C924.26 435.959 928.84 435.61 934.34 435.112C949.92 433.682 964.63 430.991 977.63 418.248L977.62 418.238Z" stroke="white" stroke-miterlimit="10"/>
<path d="M937.11 353.496C926.67 349.196 915.1 345.351 908.67 335.627C903.45 327.735 902.74 317.365 904.13 307.842C905.52 298.319 908.8 289.242 910.93 279.867C911.9 275.62 912.4 270.482 909.4 267.484C907.72 265.811 905.3 265.249 903 265.101C892.34 264.455 882.43 271.33 875.31 279.761C847.84 312.291 848.43 359.524 874.5 391.503C895 416.649 928.84 424.795 953.77 398.96C971.85 380.221 955.6 361.091 937.11 353.486L937.11 353.496Z" stroke="white" stroke-miterlimit="10"/>
<path d="M925.9 1323.14C929.86 1326.29 935.36 1322.69 939 1319.14C955.05 1303.5 969.89 1285.67 977.92 1264.18C994.79 1219.07 978.83 1168.68 975.16 1120.31C972.77 1088.82 975.54 1056.01 964.46 1026.68C963.41 1023.88 961.99 1020.89 959.34 1019.8C957.82 1019.18 956.12 1019.3 954.54 1019.73C945.71 1022.06 940.89 1032.63 940.74 1042.27C940.59 1051.91 943.85 1061.19 945.46 1070.68C952.42 1111.8 928.59 1150.62 912.38 1188.71C899.4 1219.21 890.96 1251.6 882.56 1283.84C878.34 1300.06 874.81 1319.6 885.65 1331.89" stroke="white" stroke-miterlimit="10"/>
<path d="M863.26 883.762C860.69 872.258 858.11 860.744 855.54 849.24C854.32 843.764 853.26 837.408 856.56 833.002C860.98 827.102 870.56 829.22 875.05 835.068C879.53 840.915 880.43 848.859 881.5 856.316C882.57 863.763 884.31 871.771 889.78 876.59C895.62 881.728 904.07 881.791 910.81 885.499C926.69 894.227 946.12 958.577 920.25 959.319C886.77 960.272 869.27 910.169 863.27 883.783L863.26 883.762Z" stroke="white" stroke-miterlimit="10"/>
<path d="M900.33 941.067C904.6 943.789 909.7 945.018 914.66 944.52C916.2 944.361 917.87 943.959 918.8 942.656C919.47 941.713 919.62 940.484 919.75 939.309C920.43 933.154 920.88 926.163 916.95 921.577C913.8 917.891 908.63 916.852 905.26 913.389C902.22 910.264 901.08 905.635 898.65 901.959C896.22 898.284 891.04 895.688 887.86 898.654C886.3 900.116 885.8 902.436 885.46 904.618C884.24 912.499 884.41 921.418 889.4 927.403C890.95 929.256 892.88 930.718 894.4 932.593C896.15 934.754 898.03 939.605 900.33 941.078L900.33 941.067Z" stroke="white" stroke-miterlimit="10"/>
<path d="M-124.09 1019.27C-106.45 1020.45 -88.9896 1015.7 -71.8796 1010.99C15.9703 986.796 103.81 962.592 191.66 938.398C211.57 932.912 232.67 926.694 246.47 910.529C251.6 904.523 255.62 896.621 254.46 888.613C252.01 871.655 230.72 867.545 214.59 869.197C198.47 870.85 178.34 872.142 170.2 857.302C163.27 844.665 170.2 829.072 174.22 815.09C178.24 801.108 175.52 780.897 161.84 779.044C154.83 778.09 148.33 782.889 143.17 788.005C125.36 805.684 114.34 829.613 98.7602 849.505C61.3702 897.246 1.51022 917.616 -56.0198 929.193C-113.55 940.771 -173.39 946.279 -225.97 973.587" stroke="white" stroke-width="1.7" stroke-miterlimit="10"/>
<path d="M210.56 918.039C217.36 916.673 225.58 913.855 226.71 906.631C228.3 896.557 215.19 892.066 205.55 892.013C178.72 891.865 151.94 894.333 125.21 896.801C108.85 898.305 92.2203 899.884 76.9503 906.281C61.8903 912.584 48.8405 923.304 34.1605 930.549C3.87049 945.495 -35.1396 943.303 -64.9696 959.414C-70.4696 962.38 -69.4496 970.96 -63.4396 972.4C-23.8296 981.913 19.3003 971.373 56.1702 956.173C105.67 935.761 158.55 928.473 210.56 918.039Z" stroke="white" stroke-miterlimit="10"/>
<path d="M161.08 810.546C161.36 808.29 161.53 805.949 160.82 803.798C159.2 798.947 153.261 796.871 148.661 798.523C144.061 800.165 140.77 804.582 138.78 809.275C136.79 813.967 135.82 819.073 134.22 823.924C131.55 832.017 127.07 839.421 121.24 845.364C116.56 850.141 111.041 853.986 106.641 859.06C104.411 861.634 102.43 865.5 104.23 868.434C107.91 874.44 120.43 872.428 126.18 871.93C132.49 871.379 135.57 868.551 139.22 863.159C149.72 847.662 158.73 829.665 161.08 810.535L161.08 810.546Z" stroke="white" stroke-miterlimit="10"/>
<path d="M152.62 824.729C152.94 823.087 153.12 821.339 152.56 819.782C152 818.214 150.49 816.922 148.93 817.187C147.58 817.42 146.62 818.659 145.8 819.824C143.97 822.419 142.14 825.036 140.79 827.949C138.03 833.891 137.11 840.3 132.77 845.331C130.35 848.128 124.29 851.729 130.52 851.962C141.26 852.354 150.85 833.806 152.63 824.729L152.62 824.729Z" stroke="white" stroke-miterlimit="10"/>
<path d="M602.02 131.158C599.91 126.571 596.08 121.826 591.3 122.44C587.21 122.959 584.54 127.154 582.67 131.052C580.11 136.38 577.94 141.994 577.06 147.905C576.19 153.815 576.68 160.065 579.22 165.414C581.78 170.806 586.46 175.011 591.84 176.95C597.75 179.079 600.05 177.363 602.42 171.664C607.74 158.889 607.83 143.795 602.02 131.169L602.02 131.158Z" stroke="white" stroke-miterlimit="10"/>
<path d="M-51.8991 -38.6096C-35.9091 -37.1478 -18.8391 -36.1839 -5.84909 -26.1951C10.7509 -13.431 15.8609 11.2497 11.9109 32.5726C7.96091 53.8955 -3.37924 72.7291 -14.4992 90.9908C-26.0292 109.92 -37.5493 128.849 -49.0793 147.788C-56.7193 160.34 -64.3792 172.924 -70.4992 186.388C-98.2893 247.517 -91.8192 320.183 -113.169 384.141C-118.339 399.627 -125.259 414.732 -135.679 426.914C-151.209 445.091 -173.169 455.355 -194.649 464.475C-212.219 471.943 -232.679 478.86 -249.339 469.337C-265.839 459.899 -271.859 437.019 -268.629 417.454C-265.389 397.89 -254.959 380.656 -245.389 363.57C-198.369 279.571 -167.889 186.557 -137.729 94.2638C-133.149 80.2604 -128.589 64.7211 -133.909 51.0143C-137.189 42.572 -143.779 36.1635 -150.169 30.0409C-202.709 -20.2315 -257.869 -74.4125 -276.559 -146.76C-283.059 -171.928 -282.809 -203.377 -262.969 -218.843C-245.969 -232.094 -221.429 -227.412 -203.369 -215.866C-173.389 -196.693 -154.279 -159.821 -155.119 -122.736C-155.269 -116.19 -155.869 -109.135 -152.589 -103.595C-146.889 -93.977 -136.589 -93.3839 -133.639 -81.3401C-130.799 -69.773 -129.679 -65.9809 -118.949 -58.6932C-99.1892 -45.2618 -74.9191 -40.7281 -51.9091 -38.6202L-51.8991 -38.6096Z" stroke="white" stroke-miterlimit="10"/>
<path d="M737.32 -113.234C750.3 -127.216 762.91 -144.832 760.87 -164.322C757.72 -194.49 722.07 -210.707 716.25 -240.43C712.9 -257.568 720.4 -275.353 717.98 -292.672C716.54 -302.947 711.72 -312.279 706.97 -321.368C705.09 -324.959 703.11 -328.687 699.9 -330.996C696.02 -333.782 691.06 -334.015 686.38 -334.153C672.11 -334.577 657.45 -334.937 644.03 -329.799C630.61 -324.662 618.52 -312.692 617.1 -297.651C616.53 -291.677 617.65 -285.533 616.36 -279.686C613.75 -267.833 602.54 -260.926 593.3 -253.692C577 -240.928 564.22 -223.174 556.93 -203.144C552.29 -190.39 549.85 -176.874 547.63 -163.411C545.83 -152.469 544.16 -141.103 546.91 -130.394C550.03 -118.234 558.56 -108.16 561.23 -95.8726C564.4 -81.2866 558.85 -66.3404 557.57 -51.426C556.72 -41.4478 557.82 -31.279 560.79 -21.7563C565.86 -5.49664 578.31 4.83124 593.05 -4.29957C609.05 -14.2036 624.94 -25.4212 640.88 -35.7278C675.36 -58.0146 708.89 -82.6107 737.31 -113.223L737.32 -113.234Z" stroke="white" stroke-miterlimit="10"/>
<path d="M739.75 -67.1877C731.17 -57.7709 722.57 -48.3436 713.03 -40.0178C705.2 -33.1962 696.79 -27.1583 688.26 -21.3641C668.49 -7.93272 647.78 4.39694 625.3 11.6211C602.82 18.8452 578.32 20.7308 555.9 13.3266C546 10.0641 536.23 4.67233 530.38 -4.40552C523.38 -15.2629 523.17 -29.4887 524.96 -42.4964C526.75 -55.5041 530.28 -68.3741 529.87 -81.5195C529.55 -91.7625 526.84 -101.72 524.86 -111.74C515.93 -156.907 522.06 -205.252 541.93 -246.319C544.44 -251.51 547.29 -256.742 551.72 -260.206C555.03 -262.791 559.04 -264.242 562.28 -266.932C573.98 -276.677 570.18 -295.882 572.4 -311.474C574.77 -328.126 585.28 -342.542 598.17 -352.393C611.06 -362.244 626.24 -368.113 641.37 -373.303C666.66 -381.968 695.45 -388.758 718.82 -375.337C742.42 -361.789 752.79 -331.865 757.49 -303.869C762.18 -275.872 763.46 -246.287 776.68 -221.543C781.96 -211.65 789.07 -202.762 792.74 -192.085C796.87 -180.073 796.31 -166.928 796.6 -154.153C796.83 -144.228 797.57 -134.027 794.54 -124.631C790.52 -112.164 780.13 -109.166 771.41 -101.73C759.89 -91.9109 750.04 -78.4476 739.77 -67.1877L739.75 -67.1877Z" stroke="white" stroke-miterlimit="10"/>
<path d="M2012.61 -184.543C2038.34 -203.663 2070.94 -208.26 2102.13 -212.307C2144.14 -217.762 2186.15 -223.206 2228.16 -228.662C2244.02 -230.717 2260.19 -232.771 2275.88 -229.583C2291.57 -226.395 2307 -217.052 2313.9 -201.778C2327.4 -171.928 2303.33 -138.148 2277.73 -119.155C2233.96 -86.6891 2180.66 -69.3384 2140.66 -31.8195C2098.48 7.74384 2075.9 65.0816 2054.66 120.364C2029.45 185.985 2003.82 253.757 2004.33 324.6C2004.42 336.792 2005.22 349.44 2000.87 360.731C1996.53 372.023 1985.04 381.408 1973.95 378.156C1965.85 375.773 1960.56 367.712 1956.32 360.022C1915.78 286.318 1909.59 192.532 1940.06 113.574C1952.09 82.3898 1969.46 53.4721 1978.43 21.1541C1989.13 -17.3606 1988.94 -59.0106 1983.72 -98.3091C1979.15 -132.746 1983.49 -162.903 2012.59 -184.533L2012.61 -184.543Z" stroke="white" stroke-miterlimit="10"/>
</g>
</g>
<g opacity="0.2">
<mask id="mask1_57_84" style="mask-type:luminance" maskUnits="userSpaceOnUse" x="0" y="0" width="1920" height="1144">
<path d="M0.00012207 1144L1920 1144L1920 0.00012207L0.000216487 -5.57282e-05L0.00012207 1144Z" fill="white"/>
</mask>
<g mask="url(#mask1_57_84)">
<path d="M1873.27 300.14C1887.16 219.371 1878.81 135.457 1856.88 56.7117C1845.75 16.7564 1828.72 -25.222 1794.3 -45.3903C1780.76 -53.3242 1765.48 -57.2328 1750.33 -60.5589C1699.63 -71.6811 1643.03 -76.2042 1599.71 -46.1742C1560.02 -18.6652 1539.23 32.8677 1498.76 59.0738C1474.53 74.7614 1443.25 81.583 1427.63 106.698C1420.02 118.932 1417.42 133.794 1414.64 148.147C1403.35 206.395 1384.34 266.869 1340.97 304.621C1322.13 321.018 1299.77 332.108 1278.96 345.582C1255.89 360.518 1234.58 378.493 1215.69 398.979C1191.86 424.815 1170.82 458.87 1176.04 494.567C1182.24 536.948 1231.21 565.378 1268.27 548.123C1296.93 534.787 1312.59 502.766 1331.31 476.189C1350.03 449.612 1380.94 425.08 1410.3 436.583C1426.46 442.907 1437.52 458.817 1445.18 475.161C1463.51 514.227 1467.6 558.928 1480.93 600.207C1494.25 641.486 1521.85 682.882 1562.53 689.757C1596.75 695.54 1630.1 675.202 1656.47 651.38C1684.27 626.265 1708.83 601.15 1740.33 581.161C1762.01 567.402 1774.54 554.468 1786.4 530.931C1823.12 458.054 1859.18 382.074 1873.28 300.14L1873.27 300.14Z" stroke="white" stroke-width="2.2" stroke-miterlimit="10"/>
<path d="M2104.96 466.666C2069.34 432.696 2017.58 424.19 1969.88 429.147C1955.33 430.662 1940.77 433.299 1927.16 438.956C1912.28 445.131 1898.92 454.728 1885.7 464.24C1873.12 473.297 1857.99 486.464 1850.2 500.297C1843.11 512.892 1839.57 527.309 1834.6 540.994C1819.74 581.903 1791.22 617.081 1755.27 638.796C1719.98 660.118 1677.92 668.932 1646.63 696.388C1614.02 724.998 1590.3 774.466 1547.97 775.249C1518.4 775.8 1493.48 750.622 1464.14 746.66C1442.27 743.705 1420.77 752.825 1399.05 756.808C1371.31 761.903 1342.23 758.46 1316.23 747.01C1305.75 742.391 1295.43 736.184 1288.87 726.375C1268.12 695.328 1294.65 647.259 1274.46 615.799C1254.32 584.403 1204.75 594.529 1179.38 567.709C1163.94 551.385 1161.87 526.133 1153.83 504.651C1145.79 483.169 1123.06 462.662 1104.01 473.911C1099.1 476.814 1095.33 481.443 1091.91 486.167C1059.02 531.524 1049.69 594.91 1067.98 648.721C1074.33 667.417 1083.8 685.096 1087.24 704.639C1091.92 731.163 1085.08 758.248 1078.92 784.433C1055.77 882.87 1043.21 993.573 1093.03 1080.21C1107.3 1105.02 1130.13 1139.05 1153.59 1154.72C1167.78 1164.2 1178.99 1178.02 1191.48 1189.89C1210.94 1208.35 1231.43 1226.86 1243.19 1251.58C1254.17 1274.66 1256.52 1302.2 1249.62 1327" stroke="white" stroke-width="2.2" stroke-miterlimit="10"/>
<path d="M1321.88 1149.33C1320.14 1147.93 1318.48 1146.44 1317.09 1144.67C1308.82 1134.18 1295.83 1128.66 1284.98 1120.86C1264.48 1106.13 1250.43 1079.38 1255.04 1053.6C1262.97 1009.21 1317.69 988.934 1328.34 945.187C1331.79 931.014 1330.14 915.623 1335.22 902.011C1339.09 891.641 1346.61 883.178 1355.15 876.653C1364.58 869.45 1375.64 864.28 1387.23 863.359C1418.93 860.838 1445.24 889.025 1476.22 896.556C1511.22 905.073 1551.07 886.959 1582.36 905.634C1592.74 911.831 1600.89 921.544 1607.65 931.935C1623.07 955.631 1632.21 983.85 1633.78 1012.59C1634.71 1029.66 1633.12 1047.39 1638.91 1063.36C1643.04 1074.73 1650.66 1084.38 1654.91 1095.71C1659.16 1107.03 1658.96 1121.95 1649.74 1129.24C1631.51 1143.69 1604.97 1146.17 1583.71 1154.81C1573.46 1158.99 1563.2 1163.16 1553.31 1168.2C1545.49 1172.2 1537.91 1176.72 1529.91 1180.29C1511.4 1188.55 1491.13 1191.46 1471.12 1192.97C1439.06 1195.36 1406.86 1194.4 1374.9 1190.72C1364.94 1189.58 1354.48 1188.99 1345.16 1184.74C1337.57 1181.27 1330.73 1174.98 1328.32 1166.61C1326.7 1160.99 1326 1152.64 1321.88 1149.33Z" stroke="white" stroke-width="2.2" stroke-miterlimit="10"/>
<path d="M2104 729.829C2062 711.821 1889 585.769 1827.28 726.164C1818.93 745.146 1816.97 766.935 1807.32 785.217C1790.91 816.296 1757.26 831.941 1734.04 857.692C1705.92 888.876 1694.57 935.992 1705.16 977.632C1711.43 1002.3 1724.56 1024.27 1736.72 1046.35C1748.88 1068.42 1760.45 1091.72 1763.05 1117.13C1765.65 1142.53 1757.42 1170.69 1737.15 1184.55C1700.54 1209.59 1673.21 1250.39 1672.01 1296.52C1671.94 1299.28 1671.96 1302.11 1673 1304.65" stroke="white" stroke-width="2.2" stroke-miterlimit="10"/>
<path d="M718.78 463.679C726.89 447.695 737.58 432.78 741.71 415.165C745.84 397.549 740.88 375.58 725.21 368.24C711.81 361.969 696.55 368.42 682.16 371.375C667.77 374.33 648.74 370.358 645.67 355.189C644.42 348.993 646.35 342.468 645.22 336.25C642.66 322.183 626.85 316.548 613.61 313.645C569.54 303.996 523.64 295.553 479.92 306.834C436.2 318.115 395.09 354.31 390.42 401.723C387.67 429.666 397.56 457.567 395.98 485.616C393.79 524.576 370.28 557.858 351.09 591.171C297.68 683.867 272.81 794.687 281.11 902.932C282.53 921.491 285.24 940.886 295.73 955.832C305.07 969.136 319.44 977.271 333.48 984.601C375.83 1006.71 422.51 1025.89 469.18 1018.32C537.55 1007.23 585.98 943.258 647.29 909.341C662.28 901.047 678.18 894.501 692.28 884.618C752.27 842.576 748.66 769.286 725.08 707.52C697.1 634.198 681.81 536.545 718.78 463.689L718.78 463.679Z" stroke="white" stroke-width="2.2" stroke-miterlimit="10"/>
<path d="M577.77 224.826C547.04 222.39 517.67 210.421 487.13 206.078C447.36 200.432 405.11 208.599 372.4 233.205C339.69 257.812 317.94 299.79 320.54 342.203C321.3 354.543 324 366.757 323.72 379.118C322.97 411.998 301.82 439.665 284.64 467.058C261.71 503.613 244.39 544.119 233.56 586.479C226.34 614.719 218.85 648.032 193.47 659.568C171.75 669.44 145.07 656.782 132.27 635.734C119.48 614.687 118.34 587.739 122.74 563.143C128.1 533.177 141.15 504.81 160.12 481.866C170.72 469.049 183.27 457.683 190.9 442.684C208.53 408.046 195.41 365.803 194.75 326.462C194 281.264 210.31 237.94 226.45 196.089C235.07 173.76 243.91 151.081 258.3 132.385C277.78 107.079 306.2 90.9044 335.74 81.6147C365.28 72.325 396.22 69.3696 426.92 66.4566C481.24 61.3086 536.64 56.2348 589.8 69.1472C601.89 72.0813 613.91 75.99 624.6 82.6527C657.42 103.086 668.5 147.193 659.66 184.723C650.47 223.735 611.09 227.475 577.74 224.837L577.77 224.826Z" stroke="white" stroke-width="2.2" stroke-miterlimit="10"/>
<path d="M-209.12 863.592C-150.96 864.926 -78.3097 877.796 -33.0197 839.133C-0.519672 811.391 27.7803 778.131 50.4703 741.014C62.4003 721.503 73.0003 700.19 74.9703 677.035C76.9303 653.985 70.1705 631.084 69.8805 607.95C68.8305 525.582 146.87 462.62 154.24 380.623C156.7 353.294 150.99 325.912 150.42 298.466C149.34 246.637 166.73 195.919 191.57 151.24C204.11 128.688 218.83 107.058 238.09 90.6504C250.9 79.74 265.48 71.3506 280.47 64.2006C379.91 16.767 494.11 23.7158 602.57 35.8338C636.43 39.6153 671.34 43.7252 703.99 33.4927C741.75 21.6608 773.49 -9.95812 786.93 -49.1613C808 -110.598 821.1 -170.912 823.12 -236.237C825.14 -301.561 821.45 -367.172 827.85 -432.179" stroke="white" stroke-width="2.2" stroke-miterlimit="10"/>
<path d="M978.2 -390.201C968.54 -329.294 958.88 -268.376 949.23 -207.468C934.77 -116.298 919.95 -23.8458 883.07 59.9416C846.19 143.729 783.86 219.233 701.14 248.733C645.04 268.743 583.9 266.359 525.49 256.169C477.46 247.791 421.67 236.467 385.41 270.861C359.58 295.362 353.47 334.872 346.86 370.919C335.09 435.11 316.94 497.988 292.79 558.175C279.41 591.52 263.77 624.707 239.54 650.288C210.41 681.049 170.84 698.77 141.53 729.33C97.1403 775.609 77.8803 849.302 22.3704 879.226C-3.63964 893.25 -33.7697 895.146 -62.9197 896.767C-108.91 899.33 -154.9 901.904 -200.9 904.468C-203.39 904.605 -205.91 903.928 -208.04 902.55" stroke="white" stroke-width="2.2" stroke-miterlimit="10"/>
<path d="M729.52 962.134C708.74 958.617 687.56 955.101 666.74 958.384C620.05 965.757 584.59 1004.99 543.88 1030.32C456.5 1084.69 335.57 1069.16 262.98 994.251C251.89 982.811 241.25 969.761 226.63 964.359C217.04 960.821 206.63 960.958 196.49 961.615C171.57 963.246 145.96 968.204 125.34 983.118C104.71 998.022 90.2203 1024.82 94.9603 1050.78C99.7903 1077.25 121.97 1095.6 142.69 1111.27C198.07 1153.13 256.48 1194.77 323.38 1207.83C384.41 1219.75 448.59 1206.34 503.8 1176.32C544.16 1154.37 585.69 1122.64 630.19 1131.95C655.05 1137.16 675.77 1154.59 698.35 1166.76C720.93 1178.94 750.12 1185.28 770.33 1169.1C798.02 1146.94 797.2 1084.35 802.32 1050.66C811.12 992.768 779.37 970.555 729.51 962.124L729.52 962.134Z" stroke="white" stroke-width="2.2" stroke-miterlimit="10"/>
<path d="M996.12 636.476C995.16 652.195 995.34 668.18 991.08 683.306C985.46 703.273 972.73 719.967 952.96 725.782C934.01 731.364 916.66 721.662 898.39 714.046C885.18 708.537 872.74 700.339 858.63 698.305C853.59 697.585 848.48 697.669 843.4 697.447C821.5 696.472 796.76 693.814 779.01 680.562C761.26 667.311 752.45 645.639 748.94 623.839C745.43 602.039 746.81 579.763 746.19 557.667C745.73 541.174 744.23 524.131 749.82 508.666C751.95 502.776 755.06 497.385 758.9 492.586C772.74 475.289 794.94 467.8 816.37 471.751C827.45 473.784 838.29 476.655 848.07 482.322C866.48 492.999 880.09 513.305 900.33 519.534C911.08 522.839 923.78 519.873 934.77 522.15C949.35 525.158 963.05 532.584 973.71 543.251C973.71 543.251 1000.43 565.569 996.11 636.465L996.12 636.476Z" stroke="white" stroke-width="1.7" stroke-miterlimit="10"/>
</g>
</g>
</g>
</svg>
