<?xml version="1.0" encoding="UTF-8"?>
<svg id="Layer_1" data-name="Layer 1" xmlns="http://www.w3.org/2000/svg" xmlns:xlink="http://www.w3.org/1999/xlink" viewBox="0 0 875 1080">
  <defs>
    <style>
      .cls-1, .cls-2, .cls-3, .cls-4, .cls-5, .cls-6, .cls-7, .cls-8, .cls-9, .cls-10, .cls-11, .cls-12, .cls-13, .cls-14, .cls-15, .cls-16, .cls-17 {
        fill: none;
      }

      .cls-1, .cls-2, .cls-3, .cls-4, .cls-5, .cls-6, .cls-7, .cls-9, .cls-10, .cls-11, .cls-12, .cls-13, .cls-14, .cls-15, .cls-16, .cls-17 {
        stroke: #000;
        stroke-miterlimit: 10;
      }

      .cls-1, .cls-13 {
        stroke-width: 1.5px;
      }

      .cls-2, .cls-4, .cls-7, .cls-10 {
        stroke-width: .75px;
      }

      .cls-2, .cls-11 {
        opacity: .5;
      }

      .cls-18 {
        opacity: .2;
      }

      .cls-19 {
        clip-path: url(#clippath-2);
      }

      .cls-4, .cls-6 {
        opacity: .3;
      }

      .cls-5 {
        stroke-width: 1.4px;
      }

      .cls-5, .cls-13 {
        opacity: .9;
      }

      .cls-8 {
        stroke-width: 0px;
      }

      .cls-20 {
        clip-path: url(#clippath-1);
      }

      .cls-9, .cls-10 {
        opacity: .6;
      }

      .cls-12 {
        stroke-width: 2px;
      }

      .cls-21 {
        clip-path: url(#clippath);
      }

      .cls-14 {
        opacity: .7;
      }

      .cls-15 {
        opacity: .4;
      }

      .cls-16 {
        stroke-width: .5px;
      }

      .cls-17 {
        opacity: .8;
      }
    </style>
    <clipPath id="clippath">
      <rect class="cls-8" x="-1045.5" y="-1117" width="1921" height="1080" transform="translate(-170 -1154) rotate(180)"/>
    </clipPath>
    <clipPath id="clippath-1">
      <rect class="cls-8" x=".5" y="-.5" width="875" height="1080"/>
    </clipPath>
    <clipPath id="clippath-2">
      <rect class="cls-8" x="-1045.5" width="1921" height="1080" transform="translate(-170 1080) rotate(180)"/>
    </clipPath>
  </defs>
  <g class="cls-18">
    <g class="cls-21">
      <path class="cls-12" d="M103.56-85.26c-48.84-80.17-36.53-182.62-13.84-273.71,6.04-24.23,12.74-49.3,8.15-73.85-3.38-18.08-12.65-34.44-18.88-51.74-17.93-49.8-8.78-108.45,23.46-150.43,3.36-4.37,7.05-8.66,11.86-11.34,18.67-10.41,40.95,8.57,48.83,28.45,7.88,19.88,9.91,43.25,25.05,58.35,24.87,24.82,73.45,15.44,93.2,44.5,19.79,29.11-6.21,73.6,14.12,102.33,6.43,9.08,16.55,14.82,26.82,19.09,25.48,10.59,53.99,13.78,81.18,9.06,21.29-3.69,42.37-12.13,63.81-9.4,28.76,3.67,53.19,26.96,82.17,26.45,41.5-.73,64.75-46.51,96.71-72.98,30.67-25.4,71.9-33.56,106.49-53.29,35.23-20.1,63.2-52.65,77.76-90.51,4.87-12.67,8.34-26,15.29-37.66,6.95-11.66,18.37-21.75,31.91-22.63,21.14-1.37,46.23,18.17,60.54,2.55,19.77,185.52,27.94,372.27,24.45,558.81-.48,25.72-3.1,55.27-24,70.28-9.38,6.74-21.07,9.3-32.47,11.18-28.62,4.71-57.67,6.08-86.64,7.44-109.5,5.15-219.02,10.3-328.61,13.14-75.78,1.97-152.08,2.8-226.87-9.6C233.97,4.25,189.13.21,162.93-16.31c-23-14.5-45.38-45.99-59.37-68.95Z"/>
    </g>
  </g>
  <g class="cls-20">
    <g class="cls-18">
      <g class="cls-19">
        <path class="cls-3" d="M420.62,577.16c-3.01-12.44-2.7-25.63.66-37.97,5.42-19.88-11.47-39.12-31.71-35.26-.15.03-.31.06-.46.09-15.23,3.08-28.24,12.66-40.29,22.46-12.42,10.11-24.57,20.94-33.25,34.4-8.68,13.46-13.63,29.98-10.45,45.67,2.16,10.66,7.9,20.29,14.65,28.81,19.93,25.18,74.53,62.3,109.38,47.45,43.5-18.54-1.79-77.71-8.54-105.66Z"/>
        <path class="cls-7" d="M398.93,589.47c-1.75-7.26-1.58-14.95.39-22.15,3.16-11.6-6.69-22.83-18.5-20.57-.09.02-.18.03-.27.05-8.88,1.8-16.48,7.38-23.51,13.11-7.25,5.9-14.33,12.22-19.4,20.07-5.06,7.85-7.95,17.49-6.09,26.65,1.26,6.22,4.61,11.84,8.55,16.81,11.63,14.69,43.49,36.35,63.82,27.69,25.38-10.82-1.04-45.34-4.99-61.65Z"/>
        <path class="cls-12" d="M840.75,328.81c12.94-71.03,5.16-144.84-15.27-214.09-10.37-35.14-26.24-72.06-58.3-89.8-12.62-6.98-26.85-10.41-40.97-13.34-47.23-9.79-99.96-13.76-140.32,12.65-36.97,24.19-56.34,69.52-94.04,92.56-22.57,13.8-51.71,19.79-66.27,41.88-7.09,10.76-9.51,23.83-12.1,36.45-10.52,51.23-28.23,104.41-68.63,137.61-17.55,14.42-38.38,24.18-57.76,36.03-21.49,13.13-41.34,28.95-58.94,46.96-22.2,22.72-41.8,52.68-36.93,84.07,5.78,37.27,51.39,62.28,85.92,47.1,26.69-11.73,41.29-39.89,58.72-63.26,17.44-23.37,46.24-44.95,73.58-34.84,15.05,5.56,25.36,19.56,32.5,33.93,17.08,34.36,20.89,73.67,33.3,109.98,12.41,36.31,38.12,72.71,76.01,78.76,31.88,5.09,62.94-12.8,87.51-33.75,25.9-22.09,48.78-44.17,78.12-61.75,20.2-12.1,31.87-23.48,42.92-44.18,34.21-64.09,67.8-130.91,80.94-202.98Z"/>
        <path class="cls-7" d="M650.07,322.44c-2.07-9.4-8.02-17.49-10.97-26.64-3.53-10.96-2.61-22.85-.54-34.18,1.03-5.65,2.31-11.63.26-17-2.52-6.6-9.77-10.58-16.83-10.8s-13.89,2.71-19.82,6.55c-18.47,11.97-30.13,33.58-30.58,55.59-.45,22.01,10.11,43.84,27.26,57.63,9.42,7.57,26.65,15.38,37.85,6.67,10.02-7.8,16.01-25.84,13.38-37.81Z"/>
        <g>
          <path class="cls-7" d="M719.36,405.71c9.99-14.26,21.92-27.62,27.71-44.04,4.94-13.99,5.03-29.15,5.07-43.98.05-18.26.1-36.53.16-54.79.07-24.12.06-48.74-7.56-71.62-13.08-39.29-49.71-69.68-90.73-75.29-8.43-1.15-17.2-1.31-25.23,1.48-6.89,2.39-12.87,6.8-18.7,11.19-59.14,44.55-118.26,98.72-133.93,171.09-4.61,21.27-5.19,43.19-5.39,64.95-.25,26.27.46,54.11,14.46,76.34,6.82,10.83,16.49,19.75,22.5,31.05,14.12,26.57,7.07,64.02,29.96,83.55,20.67,17.64,52.09,8.94,77.38-1.02,53.69-21.15,74.05-105.72,104.3-148.9Z"/>
          <path class="cls-7" d="M604.47,466.7c20.22-1.9,37.57-12.6,52.89-25.94,13.3-11.58,26.5-36.16,34.35-51.96,1.81-3.64,3.47-7.2,5.08-10.59,5.65-11.91,10.84-23.56,11.53-36.05.05-.88.07-1.75.08-2.63.04-9.76-2.41-19.5-4.42-29.54-1.93-9.66-3.11-19.85-2.94-30.04.09-5.42.51-10.79,1.05-16.15.75-7.49,1.71-14.99,2.12-22.53.69-12.95-1.01-26.35-6.69-37.72-7.99-16.02-21.54-28.9-38.04-35.29-7.38-2.86-15.22-4.51-23.21-4.8-5.31-.2-10.77.18-15.84,2.07-4.35,1.63-8.21,4.32-12,6.99-42.54,29.92-81.89,69.9-93.46,120.66-3.4,14.92-4.28,30.29-4.39,45.61-.13,15.42.36,31.64,7.69,45.02,3.57,6.52,8.62,12.09,11.87,18.82,7.66,15.84,5.55,36.52,17.7,49.13,14.76,15.33,36.58,16.78,56.63,14.94Z"/>
          <path class="cls-7" d="M672.23,358.92c4.28-12.42,2.92-26.67-3.63-38.06-3.75-6.52-9.05-12.05-12.78-18.59-4.19-7.34-6.29-15.86-5.98-24.3.39-10.79,4.58-21.05,6.6-31.65,2.03-10.61,1.41-22.8-6.14-30.51-5.47-5.59-13.77-7.77-21.56-7.12-7.79.65-15.16,3.83-21.96,7.69-33.94,19.26-56.26,57.47-56.39,96.49-.04,12.06,1.97,24.34,7.61,35.01,7.52,14.23,21.06,24.62,35.88,30.9s30.96,8.8,46.98,10.33c12.48,1.18,27.9-20.15,31.36-30.19Z"/>
        </g>
        <path class="cls-1" d="M737.46,416.65c11.67-16.65,25.6-32.26,32.36-51.43,5.76-16.33,5.88-34.04,5.93-51.36.06-21.33.12-42.66.18-63.98.08-28.17.07-56.92-8.83-83.64-15.28-45.88-58.05-81.37-105.96-87.93-9.84-1.35-20.08-1.53-29.47,1.73-8.05,2.79-15.03,7.94-21.84,13.07-69.07,52.02-138.1,115.29-156.41,199.8-5.38,24.84-6.06,50.43-6.3,75.85-.29,30.68.53,63.19,16.88,89.16,7.96,12.65,19.26,23.06,26.27,36.26,16.49,31.03,8.26,74.76,34.99,97.57,24.14,20.6,60.83,10.44,90.37-1.2,62.7-24.7,86.47-123.46,121.81-173.89Z"/>
        <path class="cls-10" d="M243.08,505.37c-3.92-.37-7.96-.96-11.28-3.08-7.29-4.65-8.56-14.79-7.57-23.39,1.34-11.71,5.6-23.26,13.22-32.26,7.53-8.9,25.84-21.02,38.21-14.86,8.52,4.24,14.15,25.46,19.4,34.34,18.22,30.79-28.97,41.39-51.98,39.25Z"/>
        <path class="cls-14" d="M245.63,525.01c-5.56.52-11.35.75-16.53-1.34-11.39-4.58-15.81-18.39-16.69-30.63-1.2-16.69,1.71-33.91,9.97-48.46,8.17-14.39,30.53-36.09,49.39-30.75,12.99,3.68,26.41,31.8,36.06,42.8,33.49,38.16-29.55,65.33-62.2,68.37Z"/>
        <path class="cls-2" d="M253.83,483.55c-1.64-.15-3.33-.4-4.71-1.29-3.05-1.95-3.58-6.19-3.17-9.78.56-4.9,2.34-9.73,5.53-13.49,3.15-3.72,10.8-8.79,15.97-6.21,3.56,1.77,5.91,10.65,8.11,14.36,7.62,12.87-12.11,17.31-21.73,16.41Z"/>
        <path class="cls-12" d="M459.47,56.67c1.61,15.25-6.62,29.89-16.67,41.47-10.05,11.58-22.19,21.37-31.03,33.9-21.79,30.9-20.43,73.72-42.16,104.67-16.94,24.13-45.11,37.21-68.79,54.78-25.87,19.19-46.79,44.2-66.58,69.61-13.42,17.24-26.95,35.23-45.79,46.3-18.83,11.07-44.68,13.44-61.49-.52-25.44-21.12-16-62.48-29.67-92.59-5.36-11.81-14.42-22.05-17.31-34.69-1.54-6.76-1.2-13.79-1.71-20.7-4.24-57.3-65.28-99.82-64.85-157.27C13.76,56.57,51.85,21.53,89.21-3.67c66.83-45.09,142.52-78.74,222.44-89.31,20.36-2.69,41.3-3.85,61.23,1.13,36.81,9.19,51.85,35.99,60.82,70.49,6.57,25.27,23.12,52.94,25.77,78.03Z"/>
        <path class="cls-14" d="M197.66,370.86c-8.11,5.48-16.5,10.69-26.41,11.84-11.61,1.34-22.67-3.39-31.07-11.24-20.46-19.13-13.98-53.23-25.25-79.01-4.42-10.11-11.78-18.97-14.17-29.76-1.28-5.77-1.04-11.75-1.49-17.64-3.66-48.82-52.69-85.89-51.53-134.8.84-35.57,23.98-65.4,50.07-89.79,5.42-5.08,10.94-10.03,16.92-14.36,13.18-9.53,27.31-17.92,41.71-25.6,47.52-25.26,98.32-40.67,149.97-43.96,17.13-1.15,34.6-.88,51.15,4.25,30.38,9.41,43.04,32.87,50.35,62.52,3.88,15.92,11.7,32.8,16.29,49.07,1.78,6.3,3.08,12.52,3.48,18.57.9,13.11-6.17,25.7-14.67,35.85-8.5,10.15-18.63,18.89-26.02,29.85-17.96,26.62-16.98,62.88-35.27,89.37-14.24,20.62-37.87,32.06-58.03,46.99-21.98,16.28-40.15,37.11-57.22,58.42-11.6,14.47-23.53,29.11-38.82,39.43Z"/>
        <path class="cls-9" d="M206.88,334.31c-7.58,5.95-14.22,13.04-23.98,14.67-11.38,1.88-21.79-4.71-29.5-12.96-15.7-16.79-11.96-43.99-20.84-65.44-3.48-8.41-9.14-15.9-11.04-24.83-1.01-4.77-.89-9.71-1.26-14.58-3.08-40.34-39.95-71.96-38.21-112.33,1.46-33.83,21.5-63.03,43.47-88.13,4.57-5.25,9.18-10.52,14.72-14.85,10.78-8.44,22.87-15.38,35.14-21.59,40.85-20.56,83.7-29.59,125.78-28.23,13.9.45,27.89,2.08,41.07,7.37,23.93,9.6,34.31,29.73,39.89,54.55,3.06,13.62,8.75,27.93,11.76,41.65,1.17,5.3,1.94,10.52,2.01,15.61.19,10.97-5.72,21.51-12.67,30.23-6.95,8.72-15.07,16.41-21.02,25.8-14.14,22.33-13.53,52.04-28.37,74.07-11.54,17.11-30.63,26.91-47.26,39.21-18.1,13.38-33.51,30.01-47.86,47.23-9.77,11.71-19.99,23.27-31.84,32.56Z"/>
        <path class="cls-10" d="M216.11,297.76c-7.02,6.53-11.94,15.39-21.55,17.49-11.16,2.43-20.96-5.93-27.92-14.67-11.22-14.1-9.94-34.75-16.42-51.87-2.54-6.72-6.49-12.82-7.9-19.9-.75-3.78-.73-7.67-1.03-11.51-2.5-31.87-27.03-58.03-24.89-89.86,2.16-32.09,19.02-60.66,36.87-86.46,3.73-5.43,7.44-10.97,12.52-15.35,8.42-7.27,18.43-12.84,28.56-17.58,34.19-15.86,69.06-18.62,101.59-12.49,10.67,2.01,21.18,5.01,31,10.49,17.49,9.75,25.52,26.61,29.42,46.58,2.21,11.32,5.79,23.06,7.23,34.22.56,4.3.79,8.53.53,12.65-.54,8.84-5.26,17.32-10.66,24.61-5.4,7.29-11.51,13.93-16.01,21.75-10.35,18.02-10.08,41.2-21.48,58.77-8.84,13.6-23.38,21.76-36.5,31.42-14.22,10.47-26.87,22.92-38.5,36.03-7.95,8.95-16.28,17.71-24.87,25.69Z"/>
        <path class="cls-4" d="M225.33,261.21c-6.3,7.29-9.66,17.74-19.11,20.32-10.93,2.97-20.33-6.97-26.34-16.39-7.09-11.1-7.92-25.5-12-38.3-1.6-5.02-3.85-9.75-4.76-14.97-.49-2.78-.58-5.63-.81-8.45-1.92-23.39-13.91-44.1-11.57-67.39,3.04-30.34,16.54-58.3,30.27-84.8,2.88-5.6,5.74-11.38,10.32-15.85,6.14-6.01,13.99-10.31,21.99-13.57,27.5-11.22,54.41-7.72,77.41,3.24,7.43,3.54,14.48,7.9,20.92,13.61,11.06,9.81,16.7,23.5,18.96,38.6,1.35,9.04,2.84,18.2,2.7,26.79-.05,3.3-.35,6.53-.94,9.69-1.25,6.69-4.81,13.13-8.66,18.99-3.85,5.86-7.98,11.43-11,17.7-6.59,13.69-6.62,30.36-14.59,43.46-6.14,10.09-16.14,16.61-25.73,23.63-10.33,7.56-20.23,15.82-29.14,24.84-6.12,6.18-12.36,12.41-17.9,18.83Z"/>
        <path class="cls-4" d="M302.98,121.29c-3.37,11.87-11.35,21.99-15.06,33.76-2.94,9.31-3.17,19.52-7.7,28.16-9.64,18.41-35.05,23.59-45.67,41.45-5,8.41-7.38,20.1-16.68,23.15-10.71,3.52-20.33-7.74-24.77-18.1-11.36-26.53-12.46-56.55-8.05-85.07,4.41-28.52,14.06-55.93,23.67-83.14,2.04-5.77,4.15-11.69,8.12-16.35,3.97-4.67,9.56-7.75,15.42-9.57,45.21-14,81.72,47.02,70.73,85.71Z"/>
        <path class="cls-12" d="M103.56,1031.74c-48.84-80.17-36.53-182.62-13.84-273.71,6.04-24.23,12.74-49.3,8.15-73.85-3.38-18.08-12.65-34.44-18.88-51.74-17.93-49.8-8.78-108.45,23.46-150.43,3.36-4.37,7.05-8.66,11.86-11.34,18.67-10.41,40.95,8.57,48.83,28.45,7.88,19.88,9.91,43.25,25.05,58.35,24.87,24.82,73.45,15.44,93.2,44.5,19.79,29.11-6.21,73.6,14.12,102.33,6.43,9.08,16.55,14.82,26.82,19.09,25.48,10.59,53.99,13.78,81.18,9.06,21.29-3.69,42.37-12.13,63.81-9.4,28.76,3.67,53.19,26.96,82.17,26.45,41.5-.73,64.75-46.51,96.71-72.98,30.67-25.4,71.9-33.56,106.49-53.29,35.23-20.1,63.2-52.65,77.76-90.51,4.87-12.67,8.34-26,15.29-37.66,6.95-11.66,18.37-21.75,31.91-22.63,21.14-1.37,46.23,18.17,60.54,2.55,19.77,185.52,27.94,372.27,24.45,558.81-.48,25.72-3.1,55.27-24,70.28-9.38,6.74-21.07,9.3-32.47,11.18-28.62,4.71-57.67,6.08-86.64,7.44-109.5,5.15-219.02,10.3-328.61,13.14-75.78,1.97-152.08,2.8-226.87-9.6-30.12-4.99-74.95-9.04-101.16-25.55-23-14.5-45.38-45.99-59.37-68.95Z"/>
        <path class="cls-1" d="M229.01,1110.53c-76.76-38.26-126.23-125.39-119.75-210.91,3.71-48.89,23.83-95.48,26.85-144.42,3.52-57-16.28-112.46-31.43-167.52-3.22-11.71-6.26-24.08-3.31-35.87,2.95-11.78,13.97-22.47,25.99-20.69,19.2,2.84,21.66,29.24,32.64,45.24,22.37,32.59,80.6,19.31,103.62,51.44,23.72,33.1-10.24,85.78,14.58,118.06,5.79,7.54,14.19,12.74,23.03,16.23,49.9,19.64,112.95-11.69,157.32,18.43,8.74,5.94,16.12,14,25.73,18.39,9.56,4.38,20.43,4.71,30.94,4.65,20.62-.12,42.36-1.83,59.44-13.37,17.89-12.09,27.55-32.76,40.34-50.16,20.42-27.79,50.48-48.34,83.78-57.27,24.55-6.59,51.56-7.41,72.58-21.71,19.95-13.57,30.65-36.69,42.93-57.45,16.51-27.91,37.38-53.25,61.62-74.79,3.72-3.3,8.06-6.72,13.03-6.4,7.24.47,11.38,8.25,14.12,14.96,6.34,15.53,12.67,31.05,19.01,46.58-5.27-1.38-10.53-2.76-15.8-4.14"/>
        <path class="cls-17" d="M263,1100.73c-30.04-22.35-60.38-44.98-84.43-73.67-24.05-28.69-41.6-64.46-41.5-101.9.1-38.13,18.11-73.78,24.97-111.3,11.46-62.64-8.54-126.25-27.64-186.99-4.91-15.62-9.84-31.81-8.05-48.09,13.08-1.17,15.62,17.77,21.96,29.27,14.97,27.15,59.86,14.13,83.57,34.11,18.31,15.42,16.76,43.44,14.95,67.3-1.38,18.2-1.96,36.77,2.66,54.42,4.61,17.66,15.09,34.5,31.19,43.09,31.95,17.05,71.13-3.13,107.09,1.1,33.13,3.9,60.85,28.24,93.74,33.84,22.75,3.87,45.97-1.57,68.26-7.52,10.17-2.72,20.45-5.61,29.48-11.01,39.42-23.53,43.26-85.75,84.5-105.92,23.77-11.63,52.47-5.08,78.03-11.94,13.3-3.57,25.41-10.72,36.32-19.13,15.13-11.68,28.26-25.96,38.63-42.02,11.16-17.29,20.06-37.55,37.85-47.88,22.72-13.19,52.67-5.78,76.32-17.23-3.61.32-7.22.65-10.83.97"/>
        <path class="cls-14" d="M295.99,914.73c.27,5.91.19,11.92-1.36,17.64-4.17,15.41-18.52,26.31-33.74,31.15-18.99,6.03-41.05,3.85-56.94-8.16-18.53-14.01-26.02-38.71-26.18-61.93-.16-23.23,5.81-46,8.99-69.01,6.36-45.99,1.41-93.5-14.29-137.19-3.69-10.27-7.99-21.6-3.9-31.73,4.25-10.54,16.98-15.94,28.21-14.2,11.23,1.73,20.84,9.27,27.86,18.2,6.4,8.15,11.08,17.65,13.64,27.69,6.21,24.39-.2,49.92-3.11,74.92-2.92,24.99-1.08,53.35,17.17,70.67,23.69,22.49,42.12,47.59,43.66,81.96Z"/>
        <path class="cls-6" d="M211.25,892.55c-.65,6.06-1.24,12.46,1.29,18.01,2.97,6.52,9.59,10.45,15.82,13.98,4.8,2.72,9.7,5.47,15.1,6.56,5.41,1.08,11.5.22,15.51-3.56,4.78-4.5,5.47-11.8,5.08-18.36-1.42-24.08-13.8-47.31-33.01-61.91-12.21-9.28-18.98,37.66-19.79,45.27Z"/>
        <path class="cls-6" d="M238.76,884c-.59-1.91-1.48-4.08-3.41-4.61-8.45-2.34-10.38,17.01-5.7,21.37,3.06,2.84,6.62,1.68,8.93-1.57,3.17-4.45,1.65-10.44.18-15.19Z"/>
        <path class="cls-6" d="M221.85,723.43c-.29-13.5-1.07-27.46-7.2-39.49-2.64-5.18-6.22-9.86-10.52-13.77-1.62-1.47-3.55-2.9-5.73-2.77-1.65.09-3.12,1.09-4.27,2.27-3.13,3.21-4.38,7.9-4.28,12.39.1,4.49,1.42,8.85,2.82,13.11,7.24,22.1,17.1,44.28,15.63,67.49-.39,6.09-1.56,12.18-.88,18.25.52,4.67,4.23,15.6,10.61,15.31,6.51-.29,2.94-12.02,2.89-16.17-.22-18.85,1.36-37.72.95-56.62Z"/>
        <path class="cls-6" d="M202.45,688.66c-.24-.06-.51-.1-.72.04-.17.12-.24.35-.3.55-1.05,4.03-1.42,26.14,6.59,20.62,6.35-4.38.84-19.57-5.57-21.21Z"/>
        <path class="cls-5" d="M325.54,1106.34c-7.8-11.86-22.11-17.25-33.86-25.23-20.1-13.64-33.87-38.38-29.35-62.25,7.77-41.08,61.41-59.84,71.85-100.33,3.38-13.12,1.77-27.36,6.75-39.96,3.79-9.6,11.17-17.43,19.54-23.47,9.25-6.67,20.08-11.44,31.45-12.3,31.07-2.34,56.86,23.75,87.23,30.72,34.31,7.88,73.37-8.88,104.04,8.4,10.18,5.74,18.16,14.72,24.79,24.34,15.11,21.93,24.08,48.05,25.62,74.63.92,15.81-.65,32.21,5.03,46.99,4.05,10.53,11.52,19.46,15.69,29.94,4.17,10.48,3.97,24.28-5.07,31.03"/>
        <path class="cls-13" d="M717.97,1097.61c-9.17-9.34-15.4-21.55-17.57-34.46-2.06-12.23-.55-24.73-.72-37.13-.32-23.17-6.5-45.87-13.9-67.83-4.55-13.51-9.62-27.06-10.84-41.26-2.63-30.71,14.93-62.2,42.45-76.09,9.11-4.6,19.02-7.36,28.69-10.64,25.05-8.5,50.17-21.88,63.34-44.82,6.03-10.5,9.17-22.38,13.86-33.54,10.61-25.27,29.51-46.98,53.07-60.98,10.47-6.22,23.27-11,34.63-6.6"/>
        <path class="cls-17" d="M744.92,1099.94c-21.62-16.74-35.43-43.18-36.82-70.49-1.23-24.04,6.39-49.66-4.03-71.36-4.34-9.04-11.62-16.77-13.86-26.54-2.89-12.62,3.28-25.39,9.51-36.75,4.82-8.78,9.86-17.58,16.82-24.79,27.71-28.7,78.32-25.56,104.28-55.86,7.41-8.65,12.04-19.27,17.51-29.26,17.23-31.46,43.83-57.72,75.53-74.52"/>
        <path class="cls-17" d="M578.5,1027.09c3.12-6.45,5.6-13.56,4.68-20.67-1.25-9.62-8.41-17.28-15.32-24.09-8.66-8.53-17.79-17.05-29.04-21.64-21.65-8.85-47.2-1.71-69.06-10-11.79-4.47-21.81-13.43-27.56-24.64-4.01-7.82-5.98-16.56-10.01-24.37-4.04-7.81-11.05-15-19.83-15.54-8.12-.5-15.42,4.75-21.4,10.27-13.27,12.23-24.46,28.09-26.02,46.07-1.19,13.7,3.11,28.48-3.22,40.69-2.85,5.51-7.6,9.81-10.83,15.1-8.83,14.47-4.48,34.18,6.37,47.21s26.85,20.58,42.8,26.34c31.56,11.39,71.64,23.08,104.47,12.61,31.68-10.11,58.94-26.2,73.97-57.34Z"/>
        <path class="cls-11" d="M532.07,1052.03c9.2-3.79,18.51-9.35,22.46-18.49,6.44-14.92-4.9-32.48-19.54-39.51-14.64-7.04-31.55-6.78-47.73-8.24-16.18-1.46-33.61-5.59-43.67-18.35-4.47-5.67-7.08-12.6-11.28-18.47-4.21-5.87-10.97-10.88-18.11-9.74-8.69,1.39-13.51,10.96-14.86,19.65-1.35,8.69-.76,17.98-4.83,25.78-4.38,8.38-13.84,14.45-14.6,23.87-.64,7.96,5.37,14.84,11.51,19.95,20.79,17.33,42.85,19.61,67.51,27.16,24.63,7.54,48.92,6.36,73.14-3.62Z"/>
        <path class="cls-11" d="M467.45,1032.03c10.97,4.2,22.72,6.33,34.46,6.27,6.88-.04,14.62-1.31,18.6-6.92,4.87-6.87,1.2-17.09-5.56-22.11-6.77-5.01-15.56-6.16-23.94-7.03-8.38-.87-17.15-1.75-24.17-6.4-3.48-2.3-6.5-5.5-10.49-6.74-2.86-.88-5.92-.66-8.9-.42-12.29.97-20.46,12.38-14.3,24.57,4.97,9.84,24.69,15.1,34.3,18.77Z"/>
        <path class="cls-14" d="M915.4,723.09c-35,28.61-46.64,78.96-82.17,106.92-15.87,12.49-35.24,19.45-53.32,28.43-18.08,8.99-35.95,21.13-44.29,39.52-5.92,13.06-6.38,27.84-6.75,42.17-.46,18.22-.92,36.45-1.38,54.67-.39,15.26-.51,31.54,7.66,44.44,7.14,11.28,19.8,18.47,25.89,30.35,5.91,11.54,4.55,25.29,3.05,38.16"/>
        <path class="cls-9" d="M917.65,750.42c-35.26,22.75-45.77,71.68-80.08,95.84-14.48,10.2-32.1,15.11-46.87,24.9-33.33,22.09-46.41,65.21-47.09,105.19-.31,18.39,1.9,37.94,13.18,52.47,6.2,7.98,14.69,13.84,21.77,21.06,7.08,7.22,12.99,16.78,11.81,26.82-.8,6.85-3.49,16.34,3,18.68"/>
        <path class="cls-11" d="M815.35,1094.07c3.62-16.79,6.8-35.91-3.25-49.85-8.83-12.25-25.12-16.37-36.64-26.12-15.78-13.36-20.81-36.29-17.38-56.69,3.43-20.39,14.06-38.8,25.31-56.15,7.24-11.17,15.05-22.35,25.87-30.09,7.78-5.57,16.79-9.11,25.38-13.33,19.96-9.79,38.03-23.42,52.92-39.93,6.97-7.73,14.99-16.88,25.37-16.1"/>
        <path class="cls-15" d="M859.5,1090.22c5.62-20.15-.06-43.06-14.42-58.25-5.66-5.99-12.47-10.77-18.4-16.49-18.8-18.15-27.53-45.1-27.03-71.22.16-8.39,1.23-16.89,4.54-24.6,10.36-24.14,38.92-34.15,64.75-38.96,6.07-1.13,12.37-2.2,17.5-5.63,7.56-5.05,12.15-14.91,21.05-16.78"/>
        <path class="cls-6" d="M900.46,1092.99c9-28.43,6.38-60.35-7.13-86.94-5.01-9.87-11.43-18.97-16.65-28.73-4.84-9.05-8.65-18.65-11.32-28.55-2.28-8.44-3.67-17.68-.25-25.72,3.7-8.67,12.49-14.32,21.62-16.63,9.14-2.3,18.72-1.75,28.13-1.19-2.45,2.67-4.91,5.33-7.36,8"/>
        <path class="cls-9" d="M769.78,790.9c17.06-12.96,27.81-33.86,28.43-55.27.15-5.26-.36-10.79-3.24-15.19-4.15-6.34-12.54-8.91-20.04-7.83s-14.21,5.21-20.14,9.93c-11.19,8.9-20.35,20.08-31.07,29.53-10.72,9.46-23.79,17.4-38.08,17.7-4.39.09-8.85-.53-13.12.47-5.16,1.21-9.47,4.67-13.48,8.13-15.44,13.32-31.51,30.73-30.47,52.6.94,19.8,11.02,26.84,28,18.28,17.64-8.89,31.41-23.45,49.84-31.37,21.13-9.08,44.67-12.77,63.37-26.98Z"/>
        <path class="cls-16" d="M736.16,792.03c-3.27,2.84-6.76,5.54-10.78,7.17-4.59,1.85-9.62,2.21-14.55,2.69-11.42,1.1-23.3,3.18-32.41,10.15-2.58,1.98-4.92,4.33-7.83,5.78-2.91,1.45-6.67,1.82-9.24-.17-3.05-2.36-3.15-7.19-1.2-10.52,1.95-3.33,5.39-5.46,8.79-7.28,7.61-4.08,15.68-7.26,24.02-9.48,8.67-2.3,18.55-3.49,26.38-8.14,9.54-5.66,11.97-20.38,20.89-24.57,6.93-3.26,15.68.17,16.19,8.88.5,8.56-14.49,20.48-20.25,25.48Z"/>
      </g>
    </g>
  </g>
</svg>