<svg width="612" height="295" viewBox="0 0 612 295" fill="none" xmlns="http://www.w3.org/2000/svg">
<path d="M150.57 189.154C143.877 175.767 140.53 162.076 140.53 148.081C140.53 134.085 143.877 120.394 150.57 107.007H167.456C160.763 120.394 157.416 134.085 157.416 148.081C157.416 162.076 160.763 175.767 167.456 189.154H150.57ZM181.144 116.134H199.399V180.027H181.144V116.134ZM288.849 139.866V156.295H274.245V170.899H257.815V156.295H243.211V139.866H257.815V125.262H274.245V139.866H288.849ZM367.324 116.134H385.579V180.027H370.975L350.894 150.819V180.027H332.639V116.134H347.243L367.324 145.342V116.134ZM416.128 189.154H399.242C405.935 175.767 409.282 162.076 409.282 148.081C409.282 134.085 405.935 120.394 399.242 107.007H416.128C422.821 120.394 426.168 134.085 426.168 148.081C426.168 162.076 422.821 175.767 416.128 189.154ZM441.681 145.799V129.369H481.842V145.799H441.681ZM441.681 166.792V150.362H481.842V166.792H441.681ZM524.742 116.134C533.565 116.134 540.928 119.207 546.83 125.353C552.793 131.438 555.775 139.014 555.775 148.081C555.775 157.147 552.793 164.753 546.83 170.899C540.928 176.984 533.565 180.027 524.742 180.027H498.272V116.134H524.742ZM524.742 162.319C528.453 162.319 531.496 161.011 533.869 158.395C536.303 155.717 537.52 152.279 537.52 148.081C537.52 143.882 536.303 140.474 533.869 137.858C531.496 135.18 528.453 133.842 524.742 133.842H517.44V162.319H524.742Z" fill="white"/>
<g clip-path="url(#clip0_27_268)">
<path d="M37.6858 126.3C37.9693 126.3 38.2233 126.481 38.306 126.75C38.8493 128.642 40.3672 129.448 42.6233 129.448C44.8794 129.448 45.9484 128.66 45.9484 127.182C45.9484 125.512 44.8085 124.881 40.7511 123.923C33.1736 122.101 31.6617 119.368 31.6617 115.946C31.6617 111.683 34.8273 108.114 41.9795 108.114C49.1318 108.114 52.0375 111.373 52.7049 115.076C52.7758 115.479 52.4569 115.852 52.0434 115.852H46.0488C45.7594 115.852 45.5173 115.654 45.4464 115.379C45.1511 114.188 44.3242 113.102 41.9618 113.102C40.2373 113.102 39.1801 113.744 39.1801 115.122C39.1801 116.501 40.1191 117.032 44.0821 117.996C51.9962 119.952 53.5731 122.767 53.5731 126.382C53.5731 131.153 49.8523 134.471 42.3103 134.471C35.6542 134.465 31.9275 131.586 31.0179 127.211C30.9175 126.744 31.2896 126.3 31.7739 126.3H37.6858Z" fill="white"/>
<path d="M91.4188 116.501V140.1C91.4188 140.608 91.029 141.023 90.5388 141.023H85.7253C85.241 141.023 84.8453 140.608 84.8453 140.1V116.501C84.8453 116.016 85.2233 115.619 85.684 115.619H90.5683C91.0349 115.619 91.4069 116.016 91.4069 116.501H91.4188Z" fill="white"/>
<path d="M50.8856 166.159H44.7138C44.3771 166.159 44.1055 165.89 44.1055 165.558V161.283C44.1055 160.932 44.3949 160.646 44.7492 160.646H64.9597C65.3141 160.646 65.6035 160.932 65.6035 161.283V165.558C65.6035 165.89 65.3318 166.159 64.9951 166.159H58.8883C58.5753 166.159 58.3213 166.41 58.3213 166.72V185.169C58.3213 185.653 57.9197 186.05 57.4295 186.05H52.3326C51.8424 186.05 51.4408 185.653 51.4408 185.169V166.72C51.4408 166.41 51.1868 166.159 50.8738 166.159H50.8856Z" fill="white"/>
<path d="M105.788 182.061H99.1852V186.389C99.1852 186.99 99.6813 187.481 100.29 187.481H110.418C110.915 187.481 111.322 187.878 111.322 188.374V192.106C111.322 192.597 110.921 193 110.418 193H93.5036C93.0075 193 92.6 192.603 92.6 192.106V168.489C92.6 167.998 93.0016 167.595 93.5036 167.595H110.418C110.915 167.595 111.322 167.992 111.322 168.489V172.221C111.322 172.711 110.921 173.114 110.418 173.114H99.9943C99.5455 173.114 99.1852 173.47 99.1852 173.914V177.208H105.788C106.284 177.208 106.692 177.605 106.692 178.102V181.179C106.692 181.67 106.29 182.073 105.788 182.073V182.061Z" fill="white"/>
</g>
<rect x="76" y="268" width="1" height="59" transform="rotate(-180 76 268)" fill="white" fill-opacity="0.8"/>
<rect x="521" y="261" width="1" height="59" transform="rotate(-180 521 261)" fill="white" fill-opacity="0.8"/>
<rect x="360" y="22" width="1" height="59" fill="white" fill-opacity="0.8"/>
<rect x="79" y="209" width="7" height="7" rx="3.5" transform="rotate(-180 79 209)" fill="white" fill-opacity="0.8"/>
<rect x="524" y="202" width="7" height="7" rx="3.5" transform="rotate(-180 524 202)" fill="white" fill-opacity="0.8"/>
<rect x="357" y="81" width="7" height="7" rx="3.5" fill="white" fill-opacity="0.8"/>
<rect x="188" y="22" width="1" height="59" fill="white" fill-opacity="0.8"/>
<rect x="185" y="81" width="7" height="7" rx="3.5" fill="white" fill-opacity="0.8"/>
<path d="M140.3 0.999999H143.06V15H140.3V0.999999ZM153.212 0.999999C155.132 0.999999 156.732 1.67333 158.012 3.02C159.305 4.36667 159.952 6.02667 159.952 8C159.952 9.97333 159.305 11.6333 158.012 12.98C156.732 14.3267 155.132 15 153.212 15H147.652V0.999999H153.212ZM153.212 12.36C154.425 12.36 155.412 11.96 156.172 11.16C156.932 10.3467 157.312 9.29333 157.312 8C157.312 6.70667 156.932 5.66 156.172 4.86C155.412 4.04667 154.425 3.64 153.212 3.64H150.412V12.36H153.212ZM166.669 12.36H172.569V15H163.909V0.999999H172.469V3.64H166.669V6.62H171.969V9.22H166.669V12.36ZM184.615 0.999999H187.375V15H185.275L179.275 6.44V15H176.515V0.999999H178.615L184.615 9.54V0.999999ZM201.232 0.999999V3.64H197.452V15H194.692V3.64H190.932V0.999999H201.232ZM204.773 0.999999H207.533V15H204.773V0.999999ZM221.384 0.999999V3.64H217.604V15H214.844V3.64H211.084V0.999999H221.384ZM236.005 0.999999L231.205 9.54V15H228.465V9.54L223.685 0.999999H226.805L229.845 6.84L232.885 0.999999H236.005Z" fill="white" fill-opacity="0.8"/>
<path d="M10.1483 278.64H4.54828V281.96H9.98828V284.6H4.54828V290H1.78828V276H10.1483V278.64ZM22.5344 290L21.6944 287.48H16.1144L15.2744 290H12.2944L17.1944 276H20.6144L25.5344 290H22.5344ZM16.9944 284.9H20.8344L18.9144 279.18L16.9944 284.9ZM35.0259 290.28C32.9193 290.28 31.1793 289.58 29.8059 288.18C28.4326 286.78 27.7459 285.053 27.7459 283C27.7459 280.933 28.4326 279.207 29.8059 277.82C31.1793 276.42 32.9193 275.72 35.0259 275.72C36.2926 275.72 37.4593 276.02 38.5259 276.62C39.6059 277.207 40.4459 278.007 41.0459 279.02L38.6659 280.4C38.3193 279.773 37.8259 279.287 37.1859 278.94C36.5459 278.58 35.8259 278.4 35.0259 278.4C33.6659 278.4 32.5659 278.827 31.7259 279.68C30.8993 280.533 30.4859 281.64 30.4859 283C30.4859 284.347 30.8993 285.447 31.7259 286.3C32.5659 287.153 33.6659 287.58 35.0259 287.58C35.8259 287.58 36.5459 287.407 37.1859 287.06C37.8393 286.7 38.3326 286.213 38.6659 285.6L41.0459 286.98C40.4459 287.993 39.6126 288.8 38.5459 289.4C37.4793 289.987 36.3059 290.28 35.0259 290.28ZM44.7414 276H47.5014V290H44.7414V276ZM54.853 287.36H60.193V290H52.093V276H54.853V287.36ZM63.7609 276H66.5209V290H63.7609V276ZM80.3725 276V278.64H76.5925V290H73.8325V278.64H70.0725V276H80.3725ZM91.8977 290L91.0577 287.48H85.4777L84.6377 290H81.6577L86.5577 276H89.9777L94.8977 290H91.8977ZM86.3577 284.9H90.1977L88.2777 279.18L86.3577 284.9ZM106.501 276V278.64H102.721V290H99.9614V278.64H96.2014V276H106.501ZM121.021 288.18C119.608 289.58 117.888 290.28 115.861 290.28C113.835 290.28 112.115 289.58 110.701 288.18C109.301 286.767 108.601 285.04 108.601 283C108.601 280.96 109.301 279.24 110.701 277.84C112.115 276.427 113.835 275.72 115.861 275.72C117.888 275.72 119.608 276.427 121.021 277.84C122.435 279.24 123.141 280.96 123.141 283C123.141 285.04 122.435 286.767 121.021 288.18ZM112.641 286.3C113.508 287.153 114.581 287.58 115.861 287.58C117.141 287.58 118.215 287.153 119.081 286.3C119.948 285.433 120.381 284.333 120.381 283C120.381 281.667 119.948 280.567 119.081 279.7C118.215 278.833 117.141 278.4 115.861 278.4C114.581 278.4 113.508 278.833 112.641 279.7C111.775 280.567 111.341 281.667 111.341 283C111.341 284.333 111.775 285.433 112.641 286.3ZM134.761 290L131.941 285.14H129.841V290H127.081V276H132.681C133.975 276 135.075 276.453 135.981 277.36C136.888 278.267 137.341 279.36 137.341 280.64C137.341 281.507 137.095 282.313 136.601 283.06C136.108 283.793 135.455 284.347 134.641 284.72L137.741 290H134.761ZM129.841 278.58V282.72H132.681C133.201 282.72 133.648 282.52 134.021 282.12C134.395 281.707 134.581 281.213 134.581 280.64C134.581 280.067 134.395 279.58 134.021 279.18C133.648 278.78 133.201 278.58 132.681 278.58H129.841ZM145.932 290.28C144.545 290.28 143.378 289.973 142.432 289.36C141.485 288.733 140.818 287.887 140.432 286.82L142.792 285.44C143.338 286.867 144.412 287.58 146.012 287.58C146.785 287.58 147.352 287.44 147.712 287.16C148.072 286.88 148.252 286.527 148.252 286.1C148.252 285.607 148.032 285.227 147.592 284.96C147.152 284.68 146.365 284.38 145.232 284.06C144.605 283.873 144.072 283.687 143.632 283.5C143.205 283.313 142.772 283.067 142.332 282.76C141.905 282.44 141.578 282.04 141.352 281.56C141.125 281.08 141.012 280.52 141.012 279.88C141.012 278.613 141.458 277.607 142.352 276.86C143.258 276.1 144.345 275.72 145.612 275.72C146.745 275.72 147.738 276 148.592 276.56C149.458 277.107 150.132 277.873 150.612 278.86L148.292 280.2C147.732 279 146.838 278.4 145.612 278.4C145.038 278.4 144.585 278.533 144.252 278.8C143.932 279.053 143.772 279.387 143.772 279.8C143.772 280.24 143.952 280.6 144.312 280.88C144.685 281.147 145.392 281.44 146.432 281.76C146.858 281.893 147.178 282 147.392 282.08C147.618 282.147 147.918 282.26 148.292 282.42C148.678 282.567 148.972 282.707 149.172 282.84C149.385 282.973 149.625 283.153 149.892 283.38C150.158 283.607 150.358 283.84 150.492 284.08C150.638 284.32 150.758 284.613 150.852 284.96C150.958 285.293 151.012 285.66 151.012 286.06C151.012 287.353 150.538 288.38 149.592 289.14C148.658 289.9 147.438 290.28 145.932 290.28Z" fill="white" fill-opacity="0.8"/>
<path d="M437.1 269C439.02 269 440.62 269.673 441.9 271.02C443.194 272.367 443.84 274.027 443.84 276C443.84 277.973 443.194 279.633 441.9 280.98C440.62 282.327 439.02 283 437.1 283H431.54V269H437.1ZM437.1 280.36C438.314 280.36 439.3 279.96 440.06 279.16C440.82 278.347 441.2 277.293 441.2 276C441.2 274.707 440.82 273.66 440.06 272.86C439.3 272.047 438.314 271.64 437.1 271.64H434.3V280.36H437.1ZM455.478 283L452.658 278.14H450.558V283H447.798V269H453.398C454.691 269 455.791 269.453 456.698 270.36C457.605 271.267 458.058 272.36 458.058 273.64C458.058 274.507 457.811 275.313 457.318 276.06C456.825 276.793 456.171 277.347 455.358 277.72L458.458 283H455.478ZM450.558 271.58V275.72H453.398C453.918 275.72 454.365 275.52 454.738 275.12C455.111 274.707 455.298 274.213 455.298 273.64C455.298 273.067 455.111 272.58 454.738 272.18C454.365 271.78 453.918 271.58 453.398 271.58H450.558ZM464.843 280.36H470.743V283H462.083V269H470.643V271.64H464.843V274.62H470.143V277.22H464.843V280.36ZM483.904 283L483.064 280.48H477.484L476.644 283H473.664L478.564 269H481.984L486.904 283H483.904ZM478.364 277.9H482.204L480.284 272.18L478.364 277.9ZM503.963 269V283H501.223V273.92L497.283 280.42H496.963L493.023 273.94V283H490.263V269H493.103L497.123 275.62L501.123 269H503.963ZM520.791 269C522.138 269 523.271 269.453 524.191 270.36C525.111 271.267 525.571 272.38 525.571 273.7C525.571 275.02 525.111 276.133 524.191 277.04C523.271 277.947 522.138 278.4 520.791 278.4H518.331V283H515.571V269H520.791ZM520.791 275.82C521.378 275.82 521.865 275.62 522.251 275.22C522.638 274.807 522.831 274.3 522.831 273.7C522.831 273.087 522.638 272.58 522.251 272.18C521.865 271.78 521.378 271.58 520.791 271.58H518.331V275.82H520.791ZM537.048 283L534.228 278.14H532.128V283H529.368V269H534.968C536.262 269 537.362 269.453 538.268 270.36C539.175 271.267 539.628 272.36 539.628 273.64C539.628 274.507 539.382 275.313 538.888 276.06C538.395 276.793 537.742 277.347 536.928 277.72L540.028 283H537.048ZM532.128 271.58V275.72H534.968C535.488 275.72 535.935 275.52 536.308 275.12C536.682 274.707 536.868 274.213 536.868 273.64C536.868 273.067 536.682 272.58 536.308 272.18C535.935 271.78 535.488 271.58 534.968 271.58H532.128ZM555.277 281.18C553.864 282.58 552.144 283.28 550.117 283.28C548.091 283.28 546.371 282.58 544.957 281.18C543.557 279.767 542.857 278.04 542.857 276C542.857 273.96 543.557 272.24 544.957 270.84C546.371 269.427 548.091 268.72 550.117 268.72C552.144 268.72 553.864 269.427 555.277 270.84C556.691 272.24 557.397 273.96 557.397 276C557.397 278.04 556.691 279.767 555.277 281.18ZM546.897 279.3C547.764 280.153 548.837 280.58 550.117 280.58C551.397 280.58 552.471 280.153 553.337 279.3C554.204 278.433 554.637 277.333 554.637 276C554.637 274.667 554.204 273.567 553.337 272.7C552.471 271.833 551.397 271.4 550.117 271.4C548.837 271.4 547.764 271.833 546.897 272.7C546.031 273.567 545.597 274.667 545.597 276C545.597 277.333 546.031 278.433 546.897 279.3ZM564.048 283.28C561.848 283.28 560.308 282.393 559.428 280.62L561.808 279.26C562.248 280.14 562.994 280.58 564.048 280.58C564.781 280.58 565.328 280.407 565.688 280.06C566.048 279.713 566.228 279.24 566.228 278.64V269H568.968V278.64C568.968 280.107 568.508 281.247 567.588 282.06C566.668 282.873 565.488 283.28 564.048 283.28ZM576.214 280.36H582.114V283H573.454V269H582.014V271.64H576.214V274.62H581.514V277.22H576.214V280.36ZM592.602 283.28C590.495 283.28 588.755 282.58 587.382 281.18C586.009 279.78 585.322 278.053 585.322 276C585.322 273.933 586.009 272.207 587.382 270.82C588.755 269.42 590.495 268.72 592.602 268.72C593.869 268.72 595.035 269.02 596.102 269.62C597.182 270.207 598.022 271.007 598.622 272.02L596.242 273.4C595.895 272.773 595.402 272.287 594.762 271.94C594.122 271.58 593.402 271.4 592.602 271.4C591.242 271.4 590.142 271.827 589.302 272.68C588.475 273.533 588.062 274.64 588.062 276C588.062 277.347 588.475 278.447 589.302 279.3C590.142 280.153 591.242 280.58 592.602 280.58C593.402 280.58 594.122 280.407 594.762 280.06C595.415 279.7 595.909 279.213 596.242 278.6L598.622 279.98C598.022 280.993 597.189 281.8 596.122 282.4C595.055 282.987 593.882 283.28 592.602 283.28ZM611.519 269V271.64H607.739V283H604.979V271.64H601.219V269H611.519Z" fill="white" fill-opacity="0.8"/>
<path d="M328.621 0.999999H331.381V15H329.281L323.281 6.44V15H320.521V0.999999H322.621L328.621 9.54V0.999999ZM344.978 15L344.138 12.48H338.558L337.718 15H334.738L339.638 0.999999H343.058L347.978 15H344.978ZM339.438 9.9H343.278L341.358 4.18L339.438 9.9ZM359.581 0.999999V3.64H355.801V15H353.041V3.64H349.281V0.999999H359.581ZM368.342 15.28C366.782 15.28 365.502 14.84 364.502 13.96C363.502 13.08 363.002 11.9 363.002 10.42V0.999999H365.742V10.2C365.742 10.9333 365.949 11.5133 366.362 11.94C366.789 12.3667 367.449 12.58 368.342 12.58C369.236 12.58 369.889 12.3667 370.302 11.94C370.729 11.5133 370.942 10.9333 370.942 10.2V0.999999H373.702V10.42C373.702 11.9 373.202 13.08 372.202 13.96C371.202 14.84 369.916 15.28 368.342 15.28ZM385.869 15L383.049 10.14H380.949V15H378.189V0.999999H383.789C385.082 0.999999 386.182 1.45333 387.089 2.36C387.995 3.26667 388.449 4.36 388.449 5.64C388.449 6.50667 388.202 7.31333 387.709 8.06C387.215 8.79333 386.562 9.34667 385.749 9.72L388.849 15H385.869ZM380.949 3.58V7.72H383.789C384.309 7.72 384.755 7.52 385.129 7.12C385.502 6.70667 385.689 6.21333 385.689 5.64C385.689 5.06667 385.502 4.58 385.129 4.18C384.755 3.78 384.309 3.58 383.789 3.58H380.949ZM395.234 12.36H401.134V15H392.474V0.999999H401.034V3.64H395.234V6.62H400.534V9.22H395.234V12.36Z" fill="white" fill-opacity="0.8"/>
<defs>
<clipPath id="clip0_27_268">
<rect width="80.3222" height="84.8859" fill="white" transform="translate(31 108.114)"/>
</clipPath>
</defs>
</svg>
