<svg width="1829" height="251" viewBox="0 0 1829 251" fill="none" xmlns="http://www.w3.org/2000/svg">
<g clip-path="url(#clip0_551_138)">
<path d="M309.52 73.84V69.11H346.28V154C346.28 165.87 342.93 175.5 336.25 182.9C329.56 190.3 320.82 194 310.03 194H308.34C299.35 194 291.08 190.9 283.56 184.69V178C290.64 185.51 299.13 189.27 309.02 189.27C318.91 189.27 326.67 186.03 332.29 179.56C337.91 173.08 340.72 164.79 340.72 154.66V73.84H309.53H309.52Z" fill="white"/>
<path d="M310.02 195H308.33C299.14 195 290.59 191.79 282.91 185.46L282.55 185.16V175.47L284.28 177.3C291.13 184.57 299.45 188.25 309.01 188.25C318.57 188.25 326.13 185.1 331.52 178.88C336.95 172.62 339.7 164.47 339.7 154.64V74.82H308.51V68.09H347.27V153.98C347.27 166.04 343.81 175.99 336.98 183.55C330.13 191.14 321.05 194.98 310.02 194.98V195ZM284.55 184.22C291.76 190.05 299.76 193 308.33 193H310.02C320.47 193 329.04 189.38 335.5 182.23C341.99 175.05 345.28 165.55 345.28 154V70.11H310.52V72.84H341.71V154.66C341.71 164.98 338.79 173.58 333.04 180.21C327.25 186.88 319.16 190.27 309.02 190.27C299.68 190.27 291.46 186.96 284.56 180.42V184.22H284.55Z" fill="white"/>
<path d="M376.46 181.67C368.7 173.89 364.83 164.83 364.83 154.49C364.83 144.15 368.76 135.2 376.63 127.63C384.5 120.07 393.97 116.28 405.04 116.28C416.11 116.28 425.55 120.06 433.37 127.63C441.18 135.2 445.09 144.18 445.09 154.57C445.09 164.96 441.27 174.02 433.63 181.75C425.98 189.48 416.71 193.34 405.81 193.34H404.29C393.5 193.34 384.22 189.45 376.47 181.67H376.46ZM439.69 154.9C439.69 145.7 436.29 137.73 429.49 130.98C422.69 124.23 414.57 120.86 405.13 120.86C395.69 120.86 387.51 124.26 380.6 131.06C373.69 137.86 370.23 145.83 370.23 154.98C370.23 164.13 373.69 172.04 380.6 178.73C387.51 185.42 395.72 188.77 405.22 188.77C414.72 188.77 422.84 185.42 429.58 178.73C436.33 172.04 439.7 164.09 439.7 154.9H439.69Z" fill="white"/>
<path d="M405.79 194.34H404.27C393.25 194.34 383.65 190.31 375.74 182.37C367.83 174.43 363.81 165.05 363.81 154.48C363.81 143.91 367.88 134.63 375.92 126.9C383.94 119.19 393.73 115.27 405.02 115.27C416.31 115.27 426.07 119.18 434.04 126.9C442.02 134.63 446.06 143.93 446.06 154.56C446.06 165.19 442.11 174.56 434.31 182.45C426.51 190.34 416.91 194.34 405.78 194.34H405.79ZM405.03 117.29C394.28 117.29 384.95 121.01 377.32 128.36C369.69 135.69 365.82 144.49 365.82 154.49C365.82 164.49 369.64 173.42 377.16 180.97C384.68 188.52 393.8 192.35 404.27 192.35H405.79C416.37 192.35 425.49 188.55 432.9 181.06C440.32 173.56 444.07 164.65 444.07 154.58C444.07 144.51 440.23 135.7 432.66 128.36C425.08 121.02 415.78 117.3 405.03 117.3V117.29ZM405.2 189.78C395.48 189.78 386.96 186.31 379.89 179.46C372.81 172.6 369.22 164.37 369.22 154.99C369.22 145.61 372.81 137.33 379.89 130.36C386.97 123.4 395.46 119.87 405.12 119.87C414.78 119.87 423.22 123.37 430.19 130.28C437.16 137.19 440.69 145.48 440.69 154.91C440.69 164.34 437.19 172.6 430.28 179.45C423.37 186.31 414.94 189.78 405.21 189.78H405.2ZM405.12 121.86C396 121.86 387.98 125.2 381.29 131.78C374.61 138.36 371.22 146.17 371.22 154.98C371.22 163.79 374.61 171.55 381.29 178.01C387.98 184.49 396.03 187.77 405.21 187.77C414.39 187.77 422.35 184.49 428.87 178.02C435.39 171.56 438.69 163.78 438.69 154.9C438.69 146.02 435.36 138.21 428.78 131.69C422.2 125.17 414.24 121.86 405.12 121.86Z" fill="white"/>
<path d="M466.49 191.55H461.09V69.27H466.49V132.29C472.11 121.63 481.83 116.29 495.66 116.29C505.1 116.29 513.05 119.45 519.52 125.76C525.98 132.07 529.22 139.75 529.22 148.78V191.55H523.82V148.78C523.82 141.16 521.06 134.6 515.56 129.11C510.05 123.61 503.42 120.87 495.66 120.87C487.9 120.87 481.1 123.64 475.26 129.2C469.41 134.75 466.49 141.28 466.49 148.79V191.56V191.55Z" fill="white"/>
<path d="M530.21 192.55H522.81V148.78C522.81 141.48 520.13 135.09 514.84 129.81C509.55 124.53 503.09 121.86 495.65 121.86C488.21 121.86 481.56 124.57 475.94 129.91C470.33 135.24 467.49 141.58 467.49 148.78V192.55H460.09V68.27H467.49V128.66C473.47 119.78 482.93 115.29 495.66 115.29C505.32 115.29 513.58 118.57 520.22 125.04C526.85 131.52 530.22 139.51 530.22 148.78V192.55H530.21ZM524.82 190.55H528.22V148.78C528.22 140.07 525.06 132.56 518.83 126.47C512.59 120.38 504.79 117.29 495.67 117.29C482.31 117.29 472.79 122.49 467.39 132.75L465.51 136.33V70.27H462.11V190.55H465.51V148.78C465.51 141.02 468.56 134.18 474.59 128.46C480.6 122.75 487.7 119.86 495.68 119.86C503.66 119.86 510.6 122.73 516.28 128.4C521.96 134.07 524.83 140.93 524.83 148.78V190.55H524.82Z" fill="white"/>
<path d="M623.46 118.08V191.55H618.07V173.27C614.92 179.47 610.2 184.37 603.91 187.96C597.61 191.55 590.87 193.35 583.68 193.35C572.66 193.35 563.22 189.57 555.35 182.01C547.48 174.45 543.55 165.38 543.55 154.83C543.55 144.28 547.48 135.21 555.35 127.65C563.22 120.09 572.66 116.3 583.68 116.3C590.87 116.3 597.76 118.15 604.33 121.85C610.91 125.55 615.49 130.45 618.07 136.54V118.09H623.46V118.08ZM548.94 154.98C548.94 164.12 552.4 172.04 559.31 178.73C566.22 185.42 574.43 188.77 583.93 188.77C593.43 188.77 601.55 185.42 608.29 178.73C615.04 172.04 618.41 164.09 618.41 154.9C618.41 145.71 615.01 137.73 608.21 130.98C601.41 124.23 593.29 120.86 583.85 120.86C574.41 120.86 566.23 124.26 559.32 131.06C552.41 137.86 548.95 145.83 548.95 154.98H548.94Z" fill="white"/>
<path d="M583.67 194.34C572.43 194.34 562.67 190.43 554.65 182.72C546.62 175 542.54 165.61 542.54 154.82C542.54 144.03 546.61 134.64 554.65 126.92C562.67 119.21 572.44 115.29 583.67 115.29C591 115.29 598.12 117.2 604.81 120.97C610.16 123.98 614.26 127.81 617.06 132.4V117.09H624.45V192.55H617.06V177.01C613.92 181.85 609.68 185.81 604.39 188.83C597.97 192.49 591 194.35 583.66 194.35L583.67 194.34ZM583.67 117.29C572.97 117.29 563.67 121.01 556.04 128.36C548.41 135.69 544.54 144.6 544.54 154.82C544.54 165.04 548.41 173.95 556.04 181.28C563.67 188.62 572.97 192.34 583.67 192.34C590.65 192.34 597.3 190.57 603.41 187.08C609.5 183.61 614.13 178.8 617.18 172.8L619.07 169.08V190.54H622.46V119.08H619.07V141.44L617.15 136.92C614.66 131.06 610.18 126.28 603.84 122.71C597.45 119.11 590.66 117.29 583.68 117.29H583.67ZM583.92 189.78C574.2 189.78 565.68 186.31 558.61 179.46C551.53 172.6 547.94 164.37 547.94 154.99C547.94 145.61 551.53 137.33 558.61 130.36C565.69 123.4 574.18 119.87 583.84 119.87C593.5 119.87 601.94 123.37 608.91 130.28C615.88 137.19 619.41 145.48 619.41 154.91C619.41 164.34 615.91 172.6 609 179.45C602.1 186.31 593.66 189.78 583.93 189.78H583.92ZM583.84 121.86C574.72 121.86 566.7 125.2 560.01 131.78C553.33 138.36 549.94 146.17 549.94 154.98C549.94 163.79 553.33 171.55 560.01 178.01C566.7 184.49 574.75 187.77 583.93 187.77C593.11 187.77 601.07 184.49 607.59 178.02C614.11 171.56 617.41 163.78 617.41 154.9C617.41 146.02 614.08 138.21 607.5 131.69C600.92 125.17 592.96 121.86 583.84 121.86Z" fill="white"/>
<path d="M649.09 191.55H643.69V118.08H649.09V132.94C654.82 121.84 664.6 116.29 678.43 116.29C687.87 116.29 695.8 119.45 702.2 125.76C708.61 132.07 711.81 139.75 711.81 148.78V191.55H706.41V148.78C706.41 141.27 703.68 134.74 698.23 129.19C692.78 123.64 686.18 120.86 678.42 120.86C670.66 120.86 663.83 123.63 657.93 129.19C652.03 134.74 649.08 141.27 649.08 148.78V191.55H649.09Z" fill="white"/>
<path d="M712.81 192.55H705.41V148.78C705.41 141.58 702.75 135.22 697.52 129.89C692.29 124.56 685.86 121.86 678.42 121.86C670.98 121.86 664.3 124.57 658.62 129.92C652.95 135.25 650.08 141.59 650.08 148.78V192.55H642.68V117.09H650.08V129.24C656.15 119.98 665.66 115.29 678.42 115.29C688.09 115.29 696.32 118.57 702.89 125.05C709.47 131.53 712.8 139.51 712.8 148.78V192.55H712.81ZM707.42 190.55H710.82V148.78C710.82 140.07 707.69 132.56 701.51 126.47C695.33 120.38 687.56 117.29 678.44 117.29C664.9 117.29 655.59 122.56 649.99 133.4L648.1 137.06V119.09H644.7V190.55H648.1V148.78C648.1 141.02 651.18 134.18 657.27 128.46C663.33 122.75 670.45 119.86 678.44 119.86C686.43 119.86 693.34 122.76 698.96 128.49C704.58 134.21 707.42 141.04 707.42 148.78V190.55Z" fill="white"/>
<path d="M737.44 191.55H732.04V118.08H737.44V132.94C743.17 121.84 752.95 116.29 766.78 116.29C776.22 116.29 784.15 119.45 790.55 125.76C796.96 132.07 800.16 139.75 800.16 148.78V191.55H794.76V148.78C794.76 141.27 792.03 134.74 786.58 129.19C781.13 123.64 774.53 120.86 766.77 120.86C759.01 120.86 752.18 123.63 746.28 129.19C740.38 134.74 737.43 141.27 737.43 148.78V191.55H737.44Z" fill="white"/>
<path d="M801.16 192.55H793.76V148.78C793.76 141.58 791.1 135.22 785.87 129.89C780.64 124.56 774.21 121.86 766.77 121.86C759.33 121.86 752.65 124.57 746.97 129.92C741.3 135.25 738.43 141.59 738.43 148.78V192.55H731.03V117.09H738.43V129.25C744.5 119.99 754.01 115.3 766.77 115.3C776.44 115.3 784.67 118.58 791.24 125.06C797.82 131.54 801.15 139.52 801.15 148.79V192.56L801.16 192.55ZM795.76 190.55H799.16V148.78C799.16 140.07 796.03 132.56 789.84 126.47C783.66 120.38 775.89 117.29 766.77 117.29C753.23 117.29 743.92 122.56 738.32 133.4L736.43 137.06V119.09H733.03V190.55H736.43V148.78C736.43 141.02 739.51 134.18 745.6 128.46C751.66 122.75 758.78 119.86 766.77 119.86C774.76 119.86 781.67 122.76 787.3 128.49C792.92 134.21 795.76 141.04 795.76 148.78V190.55Z" fill="white"/>
<path d="M858.33 193.51H856.81C846.13 193.51 836.83 189.62 828.9 181.84C820.98 174.06 817.02 165 817.02 154.66C817.02 144.32 820.95 135.37 828.82 127.8C836.69 120.24 846.41 116.45 857.99 116.45C869.57 116.45 879.51 120.91 887.83 129.84L834.89 180.45C842.2 186.11 849.22 188.94 855.97 188.94C862.72 188.94 868.76 187.44 874.09 184.45C879.43 181.46 883.84 177.46 887.33 172.45V180.78C879.35 189.27 869.68 193.51 858.33 193.51ZM856.56 121.02C847.63 121.02 839.7 124.37 832.79 131.06C825.88 137.75 822.42 145.46 822.42 154.16C822.42 162.86 825.4 170.48 831.36 177.02L880.42 129.84C873.45 123.96 865.5 121.02 856.56 121.02Z" fill="white"/>
<path d="M858.33 194.51H856.81C845.91 194.51 836.29 190.49 828.2 182.55C820.12 174.61 816.02 165.23 816.02 154.66C816.02 144.09 820.09 134.81 828.13 127.08C836.15 119.37 846.2 115.45 857.99 115.45C869.78 115.45 880.08 120.06 888.57 129.16L889.24 129.88L836.43 180.36C843.19 185.39 849.76 187.94 855.97 187.94C862.51 187.94 868.44 186.47 873.6 183.58C878.78 180.68 883.13 176.74 886.51 171.88L888.33 169.26V181.17L888.06 181.46C879.92 190.12 869.92 194.51 858.33 194.51ZM857.99 117.45C846.73 117.45 837.15 121.17 829.51 128.52C821.88 135.85 818.01 144.64 818.01 154.66C818.01 164.68 821.91 173.58 829.59 181.13C837.29 188.69 846.44 192.52 856.8 192.52H858.32C869.2 192.52 878.62 188.44 886.32 180.39V175.46C883.07 179.47 879.13 182.78 874.57 185.34C869.11 188.4 862.85 189.96 855.96 189.96C849.07 189.96 841.72 187.03 834.27 181.26L833.35 180.55L886.41 129.83C878.46 121.63 868.9 117.48 857.98 117.48L857.99 117.45ZM831.3 178.45L830.61 177.69C824.51 171 821.41 163.08 821.41 154.16C821.41 145.24 825 137.2 832.08 130.34C839.16 123.49 847.39 120.02 856.55 120.02C865.71 120.02 873.93 123.07 881.05 129.07L881.9 129.79L831.3 178.45ZM856.55 122.02C847.93 122.02 840.16 125.3 833.47 131.78C826.79 138.24 823.4 145.78 823.4 154.16C823.4 162.54 826.09 169.43 831.4 175.57L878.9 129.89C872.35 124.66 864.83 122.01 856.55 122.01V122.02Z" fill="white"/>
<path d="M920.38 120.7C917.46 120.7 914.87 121.63 912.63 123.47C910.38 125.32 909.26 127.61 909.26 130.33C909.26 133.05 910.52 135.55 913.05 137.84C915.58 140.12 918.62 142.22 922.16 144.12C925.7 146.03 929.27 148.07 932.86 150.24C936.46 152.42 939.52 155.19 942.05 158.57C944.58 161.95 945.85 165.81 945.85 170.16C945.85 176.58 943.35 182.05 938.35 186.57C933.34 191.09 927.31 193.34 920.22 193.34C915.72 193.34 911.54 192.39 907.66 190.49C903.78 188.58 900.94 186.05 899.15 182.9V175.06C903.42 184.2 910.28 188.77 919.72 188.77C925.57 188.77 930.48 187.03 934.47 183.55C938.46 180.07 940.46 176.18 940.46 171.88C940.46 167.58 939.19 163.96 936.67 161.03C934.14 158.09 931.08 155.59 927.48 153.52C923.88 151.45 920.31 149.42 916.77 147.4C913.23 145.39 910.19 142.94 907.67 140.06C905.14 137.18 903.87 133.8 903.87 129.94C903.87 126.08 905.47 122.81 908.68 120.14C911.88 117.47 916.01 116.14 921.07 116.14C926.13 116.14 930.45 118.05 934.05 121.85V128.54C930.45 123.32 925.9 120.71 920.39 120.71L920.38 120.7Z" fill="white"/>
<path d="M920.21 194.34C915.58 194.34 911.21 193.34 907.21 191.38C903.16 189.39 900.15 186.7 898.27 183.38L898.14 183.15V170.54L900.05 174.62C904.18 183.46 910.61 187.76 919.71 187.76C925.28 187.76 930.02 186.09 933.81 182.78C937.55 179.51 939.45 175.84 939.45 171.86C939.45 167.88 938.26 164.4 935.9 161.66C933.46 158.83 930.46 156.37 926.97 154.36C923.37 152.3 919.81 150.26 916.27 148.24C912.65 146.18 909.5 143.64 906.91 140.69C904.23 137.63 902.87 134 902.87 129.91C902.87 125.82 904.61 122.2 908.04 119.34C911.41 116.53 915.79 115.11 921.07 115.11C926.35 115.11 931 117.14 934.78 121.14L935.05 121.43V131.73L933.23 129.08C929.8 124.1 925.6 121.68 920.4 121.68C917.69 121.68 915.36 122.51 913.28 124.23C911.26 125.9 910.27 127.89 910.27 130.31C910.27 132.73 911.4 134.97 913.73 137.08C916.19 139.31 919.19 141.37 922.64 143.23C926.18 145.14 929.8 147.2 933.39 149.38C937.08 151.61 940.27 154.5 942.86 157.96C945.51 161.5 946.86 165.6 946.86 170.15C946.86 176.83 944.22 182.6 939.03 187.3C933.86 191.97 927.54 194.33 920.23 194.33L920.21 194.34ZM900.13 182.63C901.82 185.49 904.5 187.83 908.09 189.59C911.81 191.42 915.89 192.34 920.21 192.34C927 192.34 932.88 190.15 937.67 185.82C942.43 181.52 944.84 176.25 944.84 170.16C944.84 166.05 943.63 162.35 941.24 159.17C938.8 155.92 935.8 153.2 932.33 151.1C928.77 148.94 925.18 146.89 921.67 145C918.08 143.07 914.95 140.91 912.37 138.58C909.63 136.11 908.25 133.33 908.25 130.33C908.25 127.33 909.51 124.74 911.99 122.7C914.41 120.71 917.24 119.7 920.38 119.7C925.31 119.7 929.56 121.69 933.04 125.63V122.25C929.67 118.81 925.74 117.13 921.06 117.13C916.38 117.13 912.31 118.4 909.31 120.9C906.32 123.39 904.86 126.35 904.86 129.93C904.86 133.51 906.05 136.71 908.41 139.39C910.85 142.18 913.83 144.58 917.26 146.52C920.8 148.54 924.37 150.58 927.97 152.64C931.66 154.76 934.84 157.36 937.42 160.37C940.1 163.48 941.46 167.35 941.46 171.88C941.46 176.41 939.33 180.64 935.13 184.31C930.97 187.94 925.78 189.78 919.72 189.78C911.2 189.78 904.63 186.16 900.15 179.01V182.63H900.13Z" fill="white"/>
<path d="M1023.39 69.11H1068.41V73.84H1028.96V140.12H1061.84V144.85H1028.96V191.54H1023.39V69.1V69.11Z" fill="white"/>
<path d="M1029.96 192.55H1022.39V68.11H1069.41V74.84H1029.96V139.12H1062.84V145.85H1029.96V192.54V192.55ZM1024.39 190.55H1027.96V143.86H1060.84V141.13H1027.96V72.85H1067.41V70.12H1024.39V190.56V190.55Z" fill="white"/>
<path d="M1110.73 120.86C1104.77 120.86 1099.52 123.04 1094.97 127.39C1090.42 131.75 1088.14 136.81 1088.14 142.57V191.55H1082.74V118.08H1088.14V129.02C1090.16 125.32 1093.31 122.27 1097.58 119.88C1101.85 117.49 1106.63 116.29 1111.91 116.29C1117.19 116.29 1122.25 118.03 1127.08 121.51V128.04C1122.13 123.25 1116.68 120.86 1110.72 120.86H1110.73Z" fill="white"/>
<path d="M1089.14 192.55H1081.74V117.09H1089.14V125.68C1091.16 123.08 1093.82 120.84 1097.09 119.01C1101.5 116.54 1106.48 115.29 1111.91 115.29C1117.34 115.29 1122.68 117.11 1127.67 120.7L1128.09 121V130.4L1126.39 128.76C1121.66 124.18 1116.39 121.86 1110.73 121.86C1105.07 121.86 1100 123.96 1095.66 128.11C1091.33 132.25 1089.14 137.11 1089.14 142.57V192.55ZM1083.74 190.55H1087.14V142.57C1087.14 136.55 1089.54 131.19 1094.28 126.66C1099.01 122.14 1104.54 119.85 1110.74 119.85C1116.26 119.85 1121.42 121.84 1126.1 125.78V122.02C1121.58 118.87 1116.82 117.28 1111.93 117.28C1107.04 117.28 1102.19 118.45 1098.09 120.74C1094.01 123.03 1090.96 125.97 1089.04 129.49L1087.16 132.92V119.07H1083.76V190.53L1083.74 190.55Z" fill="white"/>
<path d="M1217.12 118.08V191.55H1211.73V173.27C1208.58 179.47 1203.86 184.37 1197.57 187.96C1191.27 191.55 1184.53 193.35 1177.34 193.35C1166.32 193.35 1156.88 189.57 1149.01 182.01C1141.14 174.45 1137.21 165.38 1137.21 154.83C1137.21 144.28 1141.14 135.21 1149.01 127.65C1156.88 120.09 1166.32 116.3 1177.34 116.3C1184.53 116.3 1191.42 118.15 1197.99 121.85C1204.57 125.55 1209.15 130.45 1211.73 136.54V118.09H1217.12V118.08ZM1142.6 154.98C1142.6 164.12 1146.06 172.04 1152.97 178.73C1159.88 185.42 1168.09 188.77 1177.59 188.77C1187.09 188.77 1195.21 185.42 1201.95 178.73C1208.7 172.04 1212.07 164.09 1212.07 154.9C1212.07 145.71 1208.67 137.73 1201.87 130.98C1195.07 124.23 1186.95 120.86 1177.51 120.86C1168.07 120.86 1159.89 124.26 1152.98 131.06C1146.07 137.86 1142.61 145.83 1142.61 154.98H1142.6Z" fill="white"/>
<path d="M1177.33 194.34C1166.09 194.34 1156.33 190.43 1148.31 182.72C1140.27 175 1136.2 165.61 1136.2 154.82C1136.2 144.03 1140.27 134.64 1148.31 126.92C1156.33 119.21 1166.1 115.29 1177.33 115.29C1184.66 115.29 1191.78 117.2 1198.47 120.97C1203.82 123.98 1207.92 127.81 1210.72 132.4V117.09H1218.11V192.55H1210.72V177.01C1207.58 181.85 1203.34 185.81 1198.05 188.83C1191.63 192.49 1184.66 194.35 1177.32 194.35L1177.33 194.34ZM1177.33 117.29C1166.63 117.29 1157.33 121.01 1149.7 128.36C1142.07 135.69 1138.2 144.6 1138.2 154.82C1138.2 165.04 1142.07 173.95 1149.7 181.28C1157.33 188.62 1166.63 192.34 1177.33 192.34C1184.31 192.34 1190.96 190.57 1197.07 187.08C1203.16 183.61 1207.79 178.8 1210.84 172.8L1212.73 169.08V190.54H1216.12V119.08H1212.73V141.44L1210.81 136.92C1208.32 131.06 1203.84 126.28 1197.5 122.71C1191.11 119.11 1184.32 117.29 1177.34 117.29H1177.33ZM1177.58 189.78C1167.86 189.78 1159.34 186.31 1152.27 179.46C1145.19 172.6 1141.6 164.37 1141.6 154.99C1141.6 145.61 1145.19 137.33 1152.27 130.36C1159.35 123.4 1167.84 119.87 1177.5 119.87C1187.16 119.87 1195.6 123.37 1202.57 130.28C1209.54 137.19 1213.07 145.48 1213.07 154.91C1213.07 164.34 1209.57 172.6 1202.66 179.45C1195.75 186.31 1187.32 189.78 1177.59 189.78H1177.58ZM1177.5 121.86C1168.38 121.86 1160.36 125.2 1153.67 131.78C1146.99 138.36 1143.6 146.17 1143.6 154.98C1143.6 163.79 1146.99 171.55 1153.67 178.01C1160.36 184.49 1168.41 187.77 1177.59 187.77C1186.77 187.77 1194.73 184.49 1201.25 178.02C1207.77 171.56 1211.07 163.78 1211.07 154.9C1211.07 146.02 1207.74 138.21 1201.16 131.69C1194.58 125.17 1186.62 121.86 1177.5 121.86Z" fill="white"/>
<path d="M1298.39 118.08H1303.79V191.55H1298.39V176.69C1292.66 187.79 1282.88 193.34 1269.05 193.34C1259.61 193.34 1251.68 190.19 1245.28 183.87C1238.87 177.56 1235.67 169.89 1235.67 160.85V118.08H1241.07V160.85C1241.07 168.36 1243.79 174.89 1249.25 180.44C1254.7 185.99 1261.31 188.77 1269.06 188.77C1276.81 188.77 1283.65 186 1289.55 180.44C1295.45 174.89 1298.4 168.36 1298.4 160.85V118.08H1298.39Z" fill="white"/>
<path d="M1269.05 194.34C1259.38 194.34 1251.14 191.06 1244.58 184.59C1238 178.11 1234.67 170.13 1234.67 160.86V117.09H1242.07V160.86C1242.07 168.07 1244.73 174.42 1249.96 179.75C1255.19 185.08 1261.61 187.78 1269.06 187.78C1276.51 187.78 1283.18 185.07 1288.86 179.72C1294.53 174.39 1297.4 168.05 1297.4 160.86V117.09H1304.8V192.55H1297.4V180.4C1291.33 189.66 1281.82 194.35 1269.06 194.35L1269.05 194.34ZM1236.66 119.08V160.85C1236.66 169.56 1239.79 177.07 1245.98 183.16C1252.16 189.25 1259.92 192.34 1269.05 192.34C1282.41 192.34 1291.98 186.92 1297.5 176.23L1299.39 172.57V190.54H1302.79V119.08H1299.39V160.85C1299.39 168.61 1296.31 175.45 1290.22 181.17C1284.16 186.88 1277.04 189.77 1269.05 189.77C1261.06 189.77 1254.14 186.87 1248.53 181.14C1242.91 175.43 1240.07 168.6 1240.07 160.85V119.08H1236.67H1236.66Z" fill="white"/>
<path d="M1327.73 191.55H1322.33V118.08H1327.73V132.94C1333.46 121.84 1343.24 116.29 1357.07 116.29C1366.51 116.29 1374.44 119.45 1380.84 125.76C1387.25 132.07 1390.45 139.75 1390.45 148.78V191.55H1385.05V148.78C1385.05 141.27 1382.32 134.74 1376.87 129.19C1371.42 123.64 1364.82 120.86 1357.06 120.86C1349.3 120.86 1342.47 123.63 1336.57 129.19C1330.67 134.74 1327.72 141.27 1327.72 148.78V191.55H1327.73Z" fill="white"/>
<path d="M1391.45 192.55H1384.05V148.78C1384.05 141.58 1381.39 135.22 1376.16 129.89C1370.93 124.56 1364.5 121.86 1357.06 121.86C1349.62 121.86 1342.94 124.57 1337.26 129.92C1331.59 135.25 1328.72 141.59 1328.72 148.78V192.55H1321.32V117.09H1328.72V129.24C1334.79 119.98 1344.3 115.29 1357.06 115.29C1366.73 115.29 1374.96 118.57 1381.53 125.05C1388.11 131.53 1391.44 139.51 1391.44 148.78V192.55H1391.45ZM1386.05 190.55H1389.45V148.78C1389.45 140.07 1386.32 132.56 1380.14 126.47C1373.96 120.38 1366.19 117.29 1357.07 117.29C1343.53 117.29 1334.22 122.56 1328.62 133.4L1326.73 137.06V119.09H1323.33V190.55H1326.73V148.78C1326.73 141.02 1329.81 134.18 1335.9 128.46C1341.96 122.75 1349.08 119.86 1357.07 119.86C1365.06 119.86 1371.97 122.76 1377.59 128.49C1383.21 134.21 1386.05 141.03 1386.05 148.78V190.55Z" fill="white"/>
<path d="M1486.38 69.11V191.55H1480.99V173.76C1477.62 179.75 1472.73 184.51 1466.32 188.04C1459.91 191.58 1453.33 193.34 1446.59 193.34C1435.46 193.34 1425.99 189.56 1418.18 182C1410.37 174.44 1406.46 165.37 1406.46 154.82C1406.46 144.27 1410.36 135.2 1418.18 127.64C1425.99 120.08 1435.46 116.29 1446.59 116.29C1453.56 116.29 1460.27 118.09 1466.74 121.68C1473.2 125.27 1477.95 130.06 1480.99 136.05V69.11H1486.38ZM1411.86 154.9C1411.86 164.1 1415.23 172.04 1421.98 178.73C1428.72 185.42 1436.84 188.77 1446.34 188.77C1455.84 188.77 1464.04 185.42 1470.96 178.73C1477.87 172.04 1481.33 164.12 1481.33 154.98C1481.33 145.84 1477.87 137.87 1470.96 131.06C1464.05 124.26 1455.87 120.86 1446.43 120.86C1436.99 120.86 1428.87 124.24 1422.07 130.98C1415.27 137.73 1411.87 145.7 1411.87 154.9H1411.86Z" fill="white"/>
<path d="M1446.59 194.34C1435.24 194.34 1425.45 190.43 1417.48 182.72C1409.5 175 1405.46 165.61 1405.46 154.82C1405.46 144.03 1409.5 134.64 1417.48 126.92C1425.45 119.2 1435.24 115.29 1446.59 115.29C1453.69 115.29 1460.64 117.15 1467.22 120.81C1472.62 123.81 1476.9 127.68 1479.98 132.34V68.11H1487.37V192.55H1479.98V177.23C1476.66 181.99 1472.24 185.92 1466.79 188.92C1460.26 192.52 1453.46 194.35 1446.58 194.35L1446.59 194.34ZM1446.59 117.29C1435.78 117.29 1426.46 121.01 1418.87 128.36C1411.3 135.69 1407.46 144.6 1407.46 154.82C1407.46 165.04 1411.3 173.95 1418.87 181.28C1426.45 188.62 1435.78 192.34 1446.59 192.34C1453.13 192.34 1459.6 190.6 1465.84 187.16C1472.05 183.73 1476.85 179.06 1480.12 173.26L1481.99 169.94V190.55H1485.38V70.11H1481.99V140.23L1480.1 136.5C1477.17 130.72 1472.51 126.03 1466.26 122.55C1459.97 119.06 1453.36 117.29 1446.6 117.29H1446.59ZM1446.34 189.78C1436.61 189.78 1428.18 186.3 1421.27 179.45C1414.36 172.6 1410.86 164.34 1410.86 154.91C1410.86 145.48 1414.39 137.19 1421.36 130.28C1428.32 123.37 1436.76 119.87 1446.43 119.87C1456.1 119.87 1464.59 123.4 1471.66 130.36C1478.74 137.33 1482.33 145.61 1482.33 154.99C1482.33 164.37 1478.74 172.6 1471.66 179.46C1464.58 186.31 1456.07 189.78 1446.35 189.78H1446.34ZM1446.43 121.86C1437.31 121.86 1429.35 125.17 1422.77 131.69C1416.2 138.21 1412.86 146.02 1412.86 154.9C1412.86 163.78 1416.16 171.56 1422.68 178.02C1429.2 184.49 1437.16 187.77 1446.34 187.77C1455.52 187.77 1463.57 184.49 1470.26 178.01C1476.94 171.54 1480.32 163.79 1480.32 154.98C1480.32 146.17 1476.93 138.36 1470.25 131.78C1463.56 125.2 1455.54 121.86 1446.42 121.86H1446.43Z" fill="white"/>
<path d="M1514.03 181.67C1506.27 173.89 1502.4 164.83 1502.4 154.49C1502.4 144.15 1506.33 135.2 1514.2 127.63C1522.07 120.07 1531.54 116.28 1542.61 116.28C1553.68 116.28 1563.12 120.06 1570.94 127.63C1578.75 135.2 1582.66 144.18 1582.66 154.57C1582.66 164.96 1578.84 174.02 1571.2 181.75C1563.55 189.48 1554.28 193.34 1543.38 193.34H1541.86C1531.07 193.34 1521.79 189.45 1514.04 181.67H1514.03ZM1577.26 154.9C1577.26 145.7 1573.86 137.73 1567.06 130.98C1560.26 124.23 1552.14 120.86 1542.7 120.86C1533.26 120.86 1525.08 124.26 1518.17 131.06C1511.26 137.86 1507.8 145.83 1507.8 154.98C1507.8 164.13 1511.26 172.04 1518.17 178.73C1525.08 185.42 1533.29 188.77 1542.79 188.77C1552.29 188.77 1560.41 185.42 1567.15 178.73C1573.9 172.04 1577.27 164.09 1577.27 154.9H1577.26Z" fill="white"/>
<path d="M1543.37 194.34H1541.85C1530.83 194.34 1521.23 190.31 1513.32 182.37C1505.41 174.43 1501.39 165.05 1501.39 154.48C1501.39 143.91 1505.46 134.63 1513.5 126.9C1521.52 119.19 1531.31 115.27 1542.6 115.27C1553.89 115.27 1563.65 119.18 1571.62 126.9C1579.6 134.63 1583.64 143.93 1583.64 154.56C1583.64 165.19 1579.69 174.56 1571.89 182.45C1564.09 190.34 1554.49 194.34 1543.36 194.34H1543.37ZM1542.61 117.29C1531.86 117.29 1522.53 121.01 1514.89 128.36C1507.26 135.69 1503.39 144.49 1503.39 154.49C1503.39 164.49 1507.21 173.42 1514.73 180.97C1522.25 188.52 1531.37 192.35 1541.84 192.35H1543.36C1553.93 192.35 1563.06 188.55 1570.47 181.06C1577.89 173.56 1581.65 164.65 1581.65 154.58C1581.65 144.51 1577.81 135.7 1570.24 128.36C1562.65 121.02 1553.36 117.3 1542.61 117.3V117.29ZM1542.78 189.78C1533.06 189.78 1524.54 186.31 1517.47 179.46C1510.39 172.6 1506.8 164.37 1506.8 154.99C1506.8 145.61 1510.39 137.33 1517.47 130.36C1524.55 123.4 1533.04 119.87 1542.7 119.87C1552.36 119.87 1560.8 123.37 1567.77 130.28C1574.74 137.19 1578.27 145.48 1578.27 154.91C1578.27 164.34 1574.77 172.6 1567.86 179.45C1560.95 186.31 1552.52 189.78 1542.79 189.78H1542.78ZM1542.7 121.86C1533.57 121.86 1525.56 125.2 1518.87 131.78C1512.19 138.36 1508.8 146.17 1508.8 154.98C1508.8 163.79 1512.19 171.55 1518.87 178.01C1525.56 184.49 1533.61 187.77 1542.79 187.77C1551.97 187.77 1559.93 184.49 1566.45 178.02C1572.97 171.55 1576.27 163.77 1576.27 154.9C1576.27 146.03 1572.94 138.21 1566.36 131.69C1559.78 125.17 1551.82 121.86 1542.7 121.86Z" fill="white"/>
<path d="M1626.66 120.86C1620.7 120.86 1615.45 123.04 1610.9 127.39C1606.35 131.75 1604.07 136.81 1604.07 142.57V191.55H1598.67V118.08H1604.07V129.02C1606.09 125.32 1609.24 122.27 1613.51 119.88C1617.78 117.49 1622.56 116.29 1627.84 116.29C1633.12 116.29 1638.18 118.03 1643.01 121.51V128.04C1638.06 123.25 1632.61 120.86 1626.65 120.86H1626.66Z" fill="white"/>
<path d="M1605.07 192.55H1597.67V117.09H1605.07V125.68C1607.09 123.08 1609.75 120.84 1613.02 119.01C1617.43 116.54 1622.41 115.29 1627.84 115.29C1633.27 115.29 1638.61 117.11 1643.6 120.7L1644.02 121V130.4L1642.32 128.76C1637.59 124.18 1632.32 121.86 1626.66 121.86C1621 121.86 1615.93 123.96 1611.59 128.11C1607.26 132.25 1605.07 137.11 1605.07 142.57V192.55ZM1599.67 190.55H1603.07V142.57C1603.07 136.55 1605.47 131.19 1610.21 126.66C1614.94 122.14 1620.47 119.85 1626.67 119.85C1632.19 119.85 1637.35 121.84 1642.03 125.78V122.02C1637.51 118.87 1632.75 117.28 1627.86 117.28C1622.97 117.28 1618.12 118.45 1614.02 120.74C1609.94 123.03 1606.89 125.97 1604.97 129.49L1603.09 132.92V119.07H1599.69V190.53L1599.67 190.55Z" fill="white"/>
<path d="M1686.18 88.37V92.94C1679.66 92.94 1674.13 95.12 1669.57 99.47C1665.01 103.82 1662.74 109.32 1662.74 115.96V158.9H1686.34V163.47H1662.74V191.55H1657.34V115.96C1657.34 107.91 1660.15 101.29 1665.77 96.12C1671.39 90.95 1678.19 88.37 1686.17 88.37H1686.18Z" fill="white"/>
<path d="M1663.74 192.55H1656.34V115.96C1656.34 107.65 1659.29 100.73 1665.1 95.39C1670.89 90.07 1677.98 87.37 1686.18 87.37H1687.18V93.94H1686.18C1679.96 93.94 1674.61 96.04 1670.26 100.2C1665.93 104.34 1663.74 109.64 1663.74 115.97V157.91H1687.34V164.48H1663.74V192.56V192.55ZM1658.35 190.55H1661.75V162.47H1685.35V159.9H1661.75V115.96C1661.75 109.07 1664.15 103.28 1668.89 98.75C1673.38 94.46 1678.86 92.17 1685.19 91.96V89.39C1677.93 89.6 1671.64 92.11 1666.47 96.87C1661.09 101.82 1658.36 108.24 1658.36 115.97V190.56L1658.35 190.55Z" fill="white"/>
<path d="M1737.78 193.51H1736.26C1725.58 193.51 1716.28 189.62 1708.35 181.84C1700.43 174.06 1696.47 165 1696.47 154.66C1696.47 144.32 1700.4 135.37 1708.27 127.8C1716.14 120.24 1725.86 116.45 1737.44 116.45C1749.02 116.45 1758.96 120.91 1767.28 129.84L1714.34 180.45C1721.65 186.11 1728.67 188.94 1735.42 188.94C1742.17 188.94 1748.21 187.44 1753.54 184.45C1758.88 181.46 1763.29 177.46 1766.78 172.45V180.78C1758.8 189.27 1749.13 193.51 1737.78 193.51ZM1736 121.02C1727.07 121.02 1719.14 124.37 1712.23 131.06C1705.32 137.75 1701.86 145.46 1701.86 154.16C1701.86 162.86 1704.84 170.48 1710.8 177.02L1759.86 129.84C1752.89 123.96 1744.94 121.02 1736 121.02Z" fill="white"/>
<path d="M1737.78 194.51H1736.26C1725.36 194.51 1715.74 190.49 1707.65 182.55C1699.57 174.61 1695.47 165.23 1695.47 154.66C1695.47 144.09 1699.54 134.81 1707.58 127.08C1715.6 119.37 1725.65 115.45 1737.44 115.45C1749.23 115.45 1759.53 120.06 1768.02 129.16L1768.69 129.88L1715.88 180.36C1722.64 185.39 1729.21 187.94 1735.42 187.94C1741.96 187.94 1747.89 186.47 1753.06 183.58C1758.24 180.68 1762.59 176.74 1765.97 171.88L1767.79 169.26V181.17L1767.52 181.46C1759.38 190.12 1749.37 194.51 1737.79 194.51H1737.78ZM1737.44 117.45C1726.18 117.45 1716.6 121.17 1708.96 128.52C1701.33 135.85 1697.46 144.65 1697.46 154.66C1697.46 164.67 1701.36 173.58 1709.04 181.13C1716.74 188.69 1725.89 192.52 1736.25 192.52H1737.77C1748.65 192.52 1758.07 188.44 1765.77 180.39V175.46C1762.52 179.47 1758.58 182.78 1754.02 185.34C1748.56 188.4 1742.3 189.96 1735.41 189.96C1728.52 189.96 1721.17 187.03 1713.72 181.26L1712.8 180.55L1765.86 129.83C1757.91 121.63 1748.35 117.48 1737.43 117.48L1737.44 117.45ZM1710.75 178.45L1710.06 177.69C1703.96 171 1700.86 163.08 1700.86 154.16C1700.86 145.24 1704.45 137.2 1711.53 130.34C1718.61 123.49 1726.84 120.02 1736 120.02C1745.16 120.02 1753.38 123.07 1760.5 129.07L1761.35 129.79L1710.75 178.45ZM1736 122.02C1727.38 122.02 1719.61 125.3 1712.92 131.78C1706.24 138.24 1702.85 145.78 1702.85 154.16C1702.85 162.54 1705.54 169.43 1710.85 175.57L1758.35 129.89C1751.8 124.66 1744.28 122.01 1736 122.01V122.02Z" fill="white"/>
<path d="M1811.29 120.86C1805.33 120.86 1800.08 123.04 1795.53 127.39C1790.98 131.75 1788.7 136.81 1788.7 142.57V191.55H1783.3V118.08H1788.7V129.02C1790.72 125.32 1793.87 122.27 1798.14 119.88C1802.41 117.49 1807.19 116.29 1812.47 116.29C1817.75 116.29 1822.81 118.03 1827.64 121.51V128.04C1822.69 123.25 1817.24 120.86 1811.28 120.86H1811.29Z" fill="white"/>
<path d="M1789.69 192.55H1782.29V117.09H1789.69V125.68C1791.71 123.08 1794.37 120.84 1797.64 119.01C1802.05 116.54 1807.03 115.29 1812.46 115.29C1817.89 115.29 1823.23 117.11 1828.22 120.7L1828.64 121V130.4L1826.94 128.76C1822.21 124.18 1816.94 121.86 1811.28 121.86C1805.62 121.86 1800.55 123.96 1796.21 128.11C1791.88 132.25 1789.69 137.11 1789.69 142.57V192.55ZM1784.3 190.55H1787.7V142.57C1787.7 136.55 1790.1 131.19 1794.84 126.66C1799.57 122.14 1805.1 119.85 1811.3 119.85C1816.82 119.85 1821.98 121.84 1826.66 125.78V122.02C1822.14 118.87 1817.38 117.28 1812.49 117.28C1807.6 117.28 1802.75 118.45 1798.65 120.74C1794.57 123.03 1791.52 125.97 1789.6 129.49L1787.72 132.92V119.07H1784.32V190.53L1784.3 190.55Z" fill="white"/>
<path d="M6.66998 244.33V236.32C18.29 236.32 28.14 232.5 36.22 224.87C44.3 217.24 48.34 207.6 48.34 195.97V58.9H57.8V195.97C57.8 210.09 52.82 221.68 42.88 230.74C32.93 239.8 20.86 244.33 6.67998 244.33H6.66998Z" fill="white"/>
<path d="M6.67 251H0V229.65H6.67C16.61 229.65 24.78 226.5 31.64 220.02C38.39 213.65 41.67 205.78 41.67 195.97V52.23H64.47V195.97C64.47 211.97 58.72 225.33 47.37 235.67C36.19 245.84 22.5 251 6.67 251Z" fill="white"/>
<path d="M141.26 6.82001V14.83C129.83 14.83 120.13 18.65 112.15 26.28C104.17 33.91 100.18 43.55 100.18 55.18V130.44H141.56V138.45H100.18V187.67H90.72V55.18C90.72 41.06 95.64 29.48 105.5 20.41C115.35 11.35 127.27 6.82001 141.26 6.82001Z" fill="white"/>
<path d="M106.85 194.34H84.05V55.18C84.05 39.19 89.75 25.84 100.98 15.5C112.06 5.30999 125.62 0.149994 141.26 0.149994H147.93V21.5H141.26C131.53 21.5 123.51 24.64 116.76 31.1C110.09 37.48 106.85 45.35 106.85 55.18V123.77H148.23V145.12H106.85V194.34Z" fill="white"/>
<path d="M53.15 39.98C64.1901 39.98 73.14 31.0302 73.14 19.99C73.14 8.94983 64.1901 0 53.15 0C42.1098 0 33.16 8.94983 33.16 19.99C33.16 31.0302 42.1098 39.98 53.15 39.98Z" fill="#B0CEFF"/>
</g>
<defs>
<clipPath id="clip0_551_138">
<rect width="1828.64" height="251" fill="white"/>
</clipPath>
</defs>
</svg>
