<svg width="388" height="295" viewBox="0 0 388 295" fill="none" xmlns="http://www.w3.org/2000/svg">
<g clip-path="url(#clip0_6_517)">
<g opacity="0.3">
<path d="M232.919 295C228.352 295 223.734 294.611 219.117 293.809C207.925 291.871 193.409 288.732 180.42 281.636C171.19 276.589 162.854 269.603 154.797 262.842C143.376 253.265 131.565 243.364 117.294 239.224C110.33 237.206 102.483 237.27 94.8903 237.345C88.4608 237.405 81.8067 237.46 75.6518 236.264C57.9059 232.806 40.9835 224.166 28.0098 211.929C27.7352 211.719 19.7134 205.277 12.2655 188.769C5.43173 173.627 -2.14088 146.76 0.574677 104.756C0.809293 101.114 0.993991 97.3915 1.1687 93.789C1.86257 79.6083 2.5764 64.9492 6.72461 51.0774C14.3072 25.6657 30.94 8.21635 53.548 1.94315C73.7299 -3.65739 92.025 3.84654 111.393 11.7889C114.289 12.9748 117.284 14.2055 120.254 15.3715C125.161 17.2998 130.048 19.547 134.775 21.7194C145.438 26.6224 156.47 31.6948 168.21 33.2843C172.558 33.8722 177.051 33.9868 181.399 34.0964C183.126 34.1413 184.853 34.1861 186.575 34.2559C213.331 35.377 243.582 38.5659 265.087 53.6983C283.891 66.9323 296.965 90.1517 301.902 119.076C304.932 136.829 304.967 155.121 304.996 172.809C305.011 180.009 305.021 187.454 305.241 194.753C305.311 197.13 305.401 199.517 305.491 201.913C306.115 218.406 306.764 235.462 300.783 251.063C298.243 257.699 294.484 263.968 289.622 269.693C275.874 285.877 254.973 294.995 232.909 294.995L232.919 295ZM99.0585 235.432C105.448 235.432 111.892 235.691 117.823 237.41C132.479 241.66 144.444 251.695 156.015 261.397C164.002 268.093 172.264 275.019 181.334 279.977C194.078 286.943 208.395 290.032 219.441 291.945C245.689 296.495 272.025 287.501 288.184 268.472C292.911 262.906 296.555 256.823 299.021 250.39C304.862 235.148 304.223 218.286 303.604 201.983C303.514 199.586 303.424 197.195 303.354 194.808C303.14 187.483 303.125 180.024 303.11 172.814C303.08 155.206 303.045 136.994 300.04 119.395C295.188 90.9688 282.388 68.183 263.999 55.243C242.888 40.3896 212.977 37.2505 186.495 36.1443C184.783 36.0746 183.066 36.0297 181.349 35.9849C176.951 35.8752 172.408 35.7557 167.956 35.1528C155.93 33.5234 144.774 28.3913 133.981 23.4335C129.279 21.271 124.417 19.0387 119.56 17.1254C116.575 15.9545 113.575 14.7237 110.674 13.5329C91.6157 5.72003 73.6101 -1.66431 54.0522 3.76183C32.0981 9.85566 15.9295 26.8516 8.52666 51.6205C4.44834 65.2731 3.73451 79.8176 3.05062 93.8837C2.87591 97.4911 2.69121 101.223 2.4566 104.88C-2.68 184.404 28.9233 210.249 29.2428 210.503C42.0268 222.552 58.6147 231.027 76.0112 234.41C81.9815 235.571 88.5357 235.517 94.8753 235.457C96.2631 235.447 97.6608 235.432 99.0585 235.432Z" fill="white"/>
<path d="M220.334 275.607C215.917 275.607 211.449 275.178 206.991 274.306C197.427 272.428 185.037 269.453 174.035 263.12C166.218 258.616 159.199 252.457 152.411 246.503C142.771 238.042 132.803 229.298 120.593 225.456C114.627 223.583 107.868 223.488 101.334 223.403C95.8132 223.329 90.1075 223.254 84.8561 222.108C69.7059 218.804 55.3694 211.071 44.4772 200.328C44.2376 200.134 37.4986 194.474 31.4336 180.183C25.8627 167.059 19.8875 143.865 23.0273 107.865C23.3019 104.736 23.5265 101.542 23.7511 98.4524C24.6197 86.2946 25.5182 73.7233 29.342 61.9094C36.3405 40.2845 50.9217 25.6503 70.4048 20.7125C87.7963 16.3078 103.341 23.0942 119.799 30.2793C122.265 31.3555 124.816 32.4716 127.347 33.528C131.52 35.2769 135.673 37.2999 139.691 39.2581C148.772 43.6827 158.156 48.2518 168.24 49.8513C171.974 50.4442 175.837 50.6286 179.576 50.8079C181.059 50.8777 182.536 50.9474 184.014 51.0471C206.951 52.522 232.849 55.8404 250.999 69.2289C266.863 80.9333 277.621 101.093 281.295 125.997C283.551 141.294 283.226 156.999 282.912 172.186C282.782 178.375 282.652 184.768 282.697 191.046C282.712 193.089 282.742 195.141 282.777 197.199C282.997 211.365 283.221 226.014 277.795 239.268C275.489 244.899 272.155 250.195 267.877 255.008C256.116 268.242 238.679 275.612 220.334 275.612V275.607ZM23.6763 107.915L24.3202 107.969C18.3699 176.187 45.0762 199.143 45.3508 199.367C56.1082 209.975 70.2251 217.588 85.1357 220.842C90.2573 221.958 95.898 222.033 101.354 222.108C107.983 222.197 114.837 222.292 120.982 224.22C133.457 228.142 143.525 236.981 153.264 245.526C160.003 251.441 166.972 257.555 174.679 261.999C185.516 268.242 197.771 271.177 207.236 273.036C229.749 277.46 252.612 270.221 266.903 254.141C271.086 249.438 274.346 244.266 276.592 238.77C281.919 225.76 281.694 211.245 281.479 197.209C281.449 195.146 281.414 193.089 281.399 191.041C281.355 184.748 281.489 178.34 281.614 172.146C281.929 157.009 282.248 141.358 280.007 126.171C276.383 101.611 265.805 81.7554 250.22 70.2554C232.34 57.0612 206.672 53.7826 183.919 52.3177C182.446 52.223 180.974 52.1533 179.501 52.0835C175.732 51.9041 171.829 51.7148 168.025 51.1119C157.752 49.4825 148.277 44.8686 139.112 40.4041C135.114 38.4558 130.976 36.4379 126.837 34.7039C124.302 33.6426 121.746 32.5265 119.275 31.4452C103.026 24.3499 87.6765 17.6432 70.7143 21.9482C51.6754 26.7764 37.4138 41.1017 30.56 62.293C26.7862 73.9625 25.8926 86.4541 25.029 98.5321C24.8094 101.626 24.5798 104.83 24.3052 107.964L23.6613 107.91L23.6763 107.915Z" fill="white"/>
<path d="M156.684 163.323C155.65 163.323 154.637 163.064 153.728 162.481C151.567 161.09 150.778 158.559 150.014 156.103C149.84 155.545 149.67 154.997 149.485 154.459C146.53 145.993 138.598 140.701 130.926 135.589C129.488 134.632 128.06 133.681 126.673 132.714C121.197 128.897 118.746 125.16 119.185 121.289C119.664 117.049 123.638 114.243 127.192 113.027C137.949 109.36 152.73 114.906 159.788 122.385C164.765 127.657 166.827 136.71 165.913 149.296C165.679 152.515 165.389 156.526 163.323 159.606C161.895 161.733 159.234 163.318 156.679 163.318L156.684 163.323ZM134.705 112.514C132.164 112.514 129.693 112.868 127.406 113.645C124.037 114.791 120.278 117.427 119.829 121.369C119.42 124.986 121.781 128.524 127.047 132.191C128.43 133.153 129.852 134.104 131.285 135.061C139.047 140.233 147.069 145.579 150.094 154.254C150.284 154.797 150.459 155.355 150.633 155.918C151.362 158.26 152.111 160.682 154.078 161.943C156.928 163.771 160.957 161.997 162.794 159.257C164.765 156.317 165.035 152.565 165.274 149.257C166.173 136.86 164.166 127.971 159.324 122.833C153.908 117.093 143.86 112.514 134.705 112.514Z" fill="white"/>
<path d="M181.683 215.955C181.478 215.955 181.278 215.955 181.074 215.95C170.526 215.731 159.489 210.444 149.985 201.062C148.098 199.198 146.286 197.205 144.528 195.277C141.728 192.193 138.828 189.009 135.583 186.313C132.034 183.363 127.976 180.932 124.057 178.58C119.709 175.974 115.211 173.273 111.348 169.845C106.406 165.455 102.178 159.666 98.0496 151.624C91.8098 139.466 88.9195 128.055 89.4536 117.701C90.1126 104.966 96.3873 93.4507 105.832 87.6458C117.243 80.6302 131.465 80.969 141.389 82.4888C185.836 89.2901 195.191 112.101 195.665 113.347C196.763 115.081 199.299 119.909 199.808 128.075C200.013 131.334 200.127 134.653 200.242 137.866C200.587 147.677 200.946 157.822 203.806 167.364C204.281 168.943 204.795 170.533 205.309 172.132C208 180.478 210.78 189.113 208.459 197.519C205.539 208.112 194.087 215.95 181.678 215.95L181.683 215.955ZM130.052 82.4539C122.25 82.4539 113.659 83.854 106.291 88.3833C97.0861 94.0386 90.9662 105.295 90.3222 117.751C89.7931 127.951 92.6584 139.217 98.8233 151.235C102.902 159.182 107.065 164.892 111.927 169.207C115.726 172.581 120.188 175.256 124.506 177.847C128.455 180.214 132.538 182.666 136.137 185.655C139.427 188.391 142.347 191.6 145.167 194.704C146.915 196.622 148.717 198.61 150.589 200.459C159.933 209.687 170.766 214.884 181.094 215.098C193.394 215.362 204.765 207.699 207.635 197.3C209.887 189.138 207.146 180.633 204.495 172.406C203.981 170.802 203.467 169.207 202.988 167.623C200.093 157.976 199.733 147.772 199.389 137.911C199.274 134.707 199.159 131.394 198.954 128.145C198.455 120.118 195.969 115.424 194.921 113.785L194.876 113.695C194.796 113.461 186.175 90.2219 141.264 83.3557C137.924 82.8475 134.091 82.4688 130.047 82.4688L130.052 82.4539Z" fill="white"/>
<path d="M190.543 238.919C181.977 238.919 173.361 237.315 163.667 234.031C158.995 232.447 153.599 228.809 148.382 225.291C144.099 222.401 140.056 219.676 136.497 218.086C131.19 215.72 125.659 214.509 120.308 213.333C114.907 212.147 109.321 210.921 103.92 208.515C98.3789 206.043 92.6433 203.487 88.0458 199.272C81.4816 193.248 76.959 187.961 73.8141 182.625C64.8138 167.353 59.5824 152.255 58.2596 137.756C56.9218 123.057 60.3262 97.311 61.8487 86.9271C62.6823 81.2369 64.3446 76.02 66.7756 71.426C72.2666 61.057 80.6529 54.0065 91.016 51.0468C101.888 47.9426 113.584 53.0249 124.891 57.9378C130.721 60.474 136.227 62.8657 141.613 64.2061C149.8 66.244 158.061 67.106 166.043 67.9381C177.14 69.0941 188.616 70.2949 199.673 74.6996L201.555 75.447C208.214 78.0828 215.098 80.8084 220.983 85.0736C232.375 93.3249 240.292 107.805 243.282 125.842C245.119 136.918 245.139 148.334 245.159 159.375C245.169 163.87 245.174 168.519 245.308 173.078C245.353 174.563 245.408 176.052 245.463 177.547C245.843 187.836 246.232 198.48 242.613 208.201C237.416 222.162 223.829 233.189 207.151 236.981C201.46 238.276 196.014 238.929 190.543 238.929V238.919ZM98.0494 51.1215C95.7632 51.1215 93.5119 51.4005 91.3055 52.0284C81.217 54.9133 73.0504 61.7845 67.6941 71.8993C65.313 76.3937 63.6957 81.496 62.877 87.0666C61.3545 97.4157 57.965 123.062 59.2929 137.651C60.6007 151.996 65.7872 166.949 74.7076 182.086C77.7976 187.333 82.2603 192.545 88.7497 198.499C93.2223 202.6 98.8781 205.121 104.344 207.563C109.65 209.93 115.181 211.141 120.533 212.316C125.934 213.502 131.52 214.728 136.921 217.135C140.565 218.759 144.643 221.514 148.966 224.429C154.128 227.912 159.464 231.51 164.006 233.049C179.691 238.361 192.53 239.233 206.926 235.959C223.27 232.242 236.578 221.465 241.654 207.827C245.204 198.295 244.814 187.757 244.44 177.567C244.385 176.072 244.33 174.578 244.285 173.093C244.155 168.519 244.145 163.865 244.135 159.365C244.115 148.369 244.095 136.993 242.273 125.996C239.328 108.228 231.556 93.9826 220.389 85.8957C214.609 81.7102 207.785 79.0046 201.186 76.3937L199.304 75.6463C188.382 71.2914 177.484 70.1554 165.948 68.9496C157.926 68.1125 149.63 67.2505 141.374 65.1926C135.902 63.8324 130.097 61.3111 124.486 58.8696C115.686 55.0429 106.645 51.1165 98.0544 51.1165L98.0494 51.1215Z" fill="white"/>
</g>
<path d="M333.02 234.351H328.777L328.208 236.145H325.353L329.236 224.739H332.566L336.449 236.145H333.594L333.025 234.351H333.02ZM332.236 231.909L330.898 227.724L329.561 231.909H332.236Z" fill="white"/>
<path d="M348.42 232.398H347.177V236.145H344.566V224.739H349.139C351.31 224.739 353.057 226.483 353.057 228.651C353.057 230.051 352.209 231.321 350.951 231.959L353.382 236.145H350.576L348.425 232.398H348.42ZM347.177 230.116H349.134C349.852 230.116 350.441 229.483 350.441 228.651C350.441 227.819 349.852 227.186 349.134 227.186H347.177V230.116Z" fill="white"/>
<path d="M325.477 249.986C325.477 246.633 327.973 244.057 331.418 244.057C333.489 244.057 335.316 245.083 336.315 246.697L334.063 248.003C333.559 247.121 332.576 246.603 331.418 246.603C329.396 246.603 328.088 247.953 328.088 249.991C328.088 252.029 329.396 253.379 331.418 253.379C332.576 253.379 333.574 252.856 334.063 251.979L336.315 253.285C335.336 254.899 333.509 255.925 331.418 255.925C327.973 255.925 325.477 253.349 325.477 249.996V249.986Z" fill="white"/>
<path d="M353.382 244.286V255.691H350.771V251.162H347.182V255.691H344.571V244.286H347.182V248.651H350.771V244.286H353.382Z" fill="white"/>
<path d="M368.347 244.286V255.691H365.736V244.286H368.347Z" fill="white"/>
<path d="M335.141 266.339H332.201V275.234H329.591V266.339H326.65V263.828H335.137V266.339H335.141Z" fill="white"/>
<path d="M352.563 272.722V275.234H345.38V263.828H352.478V266.339H347.99V268.228H352.069V270.704H347.99V272.722H352.563Z" fill="white"/>
<path d="M361.623 269.528C361.623 266.175 364.119 263.599 367.563 263.599C369.635 263.599 371.462 264.625 372.46 266.239L370.209 267.545C369.705 266.663 368.722 266.145 367.563 266.145C365.542 266.145 364.234 267.495 364.234 269.533C364.234 271.571 365.542 272.921 367.563 272.921C368.722 272.921 369.72 272.398 370.209 271.521L372.46 272.827C371.482 274.441 369.655 275.467 367.563 275.467C364.119 275.467 361.623 272.896 361.623 269.538V269.528Z" fill="white"/>
<path d="M335.141 285.882H332.201V294.776H329.591V285.882H326.65V283.371H335.137V285.882H335.141Z" fill="white"/>
<path d="M344.566 291.094V283.371H347.177V290.865C347.177 291.732 347.586 292.464 348.974 292.464C350.362 292.464 350.771 291.732 350.771 290.865V283.371H353.382V291.094C353.382 293.536 351.49 295.006 348.974 295.006C346.458 295.006 344.566 293.541 344.566 291.094Z" fill="white"/>
<path d="M366.485 291.029H365.242V294.776H362.632V283.371H367.204C369.375 283.371 371.123 285.115 371.123 287.282C371.123 288.683 370.274 289.953 369.016 290.591L371.447 294.776H368.642L366.49 291.029H366.485ZM365.242 288.747H367.199C367.918 288.747 368.507 288.115 368.507 287.282C368.507 286.45 367.918 285.818 367.199 285.818H365.242V288.747Z" fill="white"/>
<path d="M388 292.265V294.776H380.817V283.371H387.915V285.882H383.427V287.771H387.506V290.247H383.427V292.265H388Z" fill="white"/>
<path d="M99.0329 96.5148C99.4922 96.5148 99.9165 96.8088 100.041 97.2522C100.935 100.371 103.406 101.697 107.095 101.697C110.784 101.697 112.526 100.396 112.526 97.9648C112.526 95.2143 110.664 94.168 104.04 92.5885C91.665 89.5988 89.199 85.0895 89.199 79.4541C89.199 72.4285 94.3706 66.5439 106.046 66.5439C117.722 66.5439 122.465 71.9153 123.558 78.0141C123.678 78.6818 123.153 79.2946 122.475 79.2946H112.691C112.221 79.2946 111.817 78.9708 111.707 78.5124C111.223 76.5442 109.875 74.7604 106.021 74.7604C103.206 74.7604 101.479 75.8217 101.479 78.0888C101.479 80.356 103.016 81.2379 109.486 82.8224C122.415 86.0412 124.98 90.6901 124.98 96.6444C124.98 104.507 118.905 109.973 106.586 109.973C95.7233 109.973 89.6433 105.235 88.1507 98.0196C87.991 97.2473 88.59 96.5148 89.3837 96.5148H99.0379H99.0329Z" fill="white"/>
<path d="M186.779 80.371V119.266C186.779 120.103 186.14 120.786 185.347 120.786H177.49C176.701 120.786 176.057 120.103 176.057 119.266V80.371C176.057 79.5687 176.671 78.916 177.43 78.916H185.407C186.165 78.916 186.779 79.5687 186.779 80.371Z" fill="white"/>
<path d="M120.593 162.222H110.519C109.97 162.222 109.526 161.779 109.526 161.231V154.18C109.526 153.602 109.995 153.129 110.579 153.129H143.58C144.159 153.129 144.633 153.597 144.633 154.18V161.231C144.633 161.779 144.189 162.222 143.64 162.222H133.671C133.162 162.222 132.748 162.636 132.748 163.144V193.548C132.748 194.351 132.099 194.998 131.295 194.998H122.974C122.17 194.998 121.521 194.351 121.521 193.548V163.144C121.521 162.636 121.107 162.222 120.598 162.222H120.593Z" fill="white"/>
<path d="M210.241 188.435H199.459V195.565C199.459 196.557 200.267 197.364 201.261 197.364H217.799C218.612 197.364 219.271 198.022 219.271 198.834V204.983C219.271 205.795 218.612 206.453 217.799 206.453H190.179C189.365 206.453 188.706 205.795 188.706 204.983V166.053C188.706 165.241 189.365 164.583 190.179 164.583H217.799C218.612 164.583 219.271 165.241 219.271 166.053V172.202C219.271 173.014 218.612 173.671 217.799 173.671H200.776C200.048 173.671 199.459 174.259 199.459 174.987V180.413H210.241C211.055 180.413 211.714 181.071 211.714 181.883V186.955C211.714 187.767 211.055 188.425 210.241 188.425V188.435Z" fill="white"/>
</g>
<defs>
<clipPath id="clip0_6_517">
<rect width="388" height="295" fill="white"/>
</clipPath>
</defs>
</svg>
