<svg width="205" height="201" viewBox="0 0 205 201" fill="none" xmlns="http://www.w3.org/2000/svg">
<g clip-path="url(#clip0_48_16)">
<path d="M155.67 200.726C152.617 200.726 149.533 200.459 146.446 199.915C138.965 198.593 129.262 196.46 120.583 191.63C114.413 188.195 108.841 183.443 103.456 178.842C95.8214 172.325 87.9278 165.588 78.391 162.772C73.7374 161.4 68.4883 161.447 63.4155 161.491C59.1178 161.532 54.6704 161.572 50.5556 160.754C38.6937 158.405 27.3839 152.523 18.7119 144.194C18.529 144.052 13.1668 139.672 8.18716 128.436C3.62 118.133 -1.4428 99.852 0.373421 71.2718C0.529763 68.7907 0.65284 66.2589 0.769264 63.8082C1.23163 54.1609 1.71064 44.1823 4.48154 34.748C9.56096 17.4647 20.6745 5.58977 35.7864 1.32049C49.275 -2.49246 61.5062 2.61513 74.4492 8.02018C76.3852 8.82807 78.3877 9.663 80.3702 10.4574C83.6501 11.7689 86.9166 13.2968 90.0767 14.7773C97.2052 18.1137 104.573 21.5616 112.424 22.6466C115.327 23.0489 118.331 23.1266 121.235 23.201C122.389 23.2314 123.547 23.2618 124.701 23.3091C142.584 24.0697 162.799 26.2398 177.175 36.5395C189.743 45.5446 198.484 61.344 201.781 81.0273C203.807 93.1084 203.827 105.551 203.85 117.588C203.86 122.486 203.866 127.553 204.013 132.519C204.059 134.138 204.119 135.761 204.183 137.39C204.602 148.612 205.031 160.217 201.036 170.834C199.336 175.347 196.828 179.613 193.575 183.51C184.387 194.523 170.416 200.726 155.67 200.726ZM66.2031 160.193C70.4742 160.193 74.7819 160.369 78.7469 161.542C88.5432 164.432 96.5399 171.26 104.274 177.862C109.613 182.419 115.135 187.134 121.195 190.504C129.711 195.243 139.281 197.346 146.666 198.651C164.206 201.747 181.812 195.625 192.613 182.679C195.77 178.893 198.208 174.752 199.858 170.375C203.76 160.004 203.334 148.531 202.922 137.437C202.862 135.805 202.802 134.179 202.752 132.556C202.606 127.574 202.599 122.496 202.589 117.592C202.569 105.609 202.546 93.2199 200.537 81.2436C197.294 61.9017 188.741 46.3964 176.45 37.5908C162.343 27.4838 142.348 25.3475 124.651 24.5937C123.504 24.5463 122.356 24.5159 121.209 24.4855C118.271 24.4077 115.234 24.33 112.261 23.921C104.224 22.8122 96.7661 19.3204 89.5545 15.9469C86.411 14.4765 83.1611 12.9554 79.9145 11.6574C77.922 10.8596 75.9162 10.0213 73.9736 9.21342C61.2301 3.89287 49.1951 -1.13359 36.1257 2.56105C21.4496 6.70526 10.642 18.2692 5.69568 35.1232C2.96802 44.4122 2.49567 54.3096 2.0333 63.8792C1.91688 66.3332 1.7938 68.8718 1.63413 71.3631C-1.79872 125.474 19.324 143.059 19.5369 143.231C28.0824 151.432 39.166 157.195 50.7951 159.5C54.7835 160.291 59.1677 160.251 63.4022 160.213C64.3303 160.207 65.2617 160.197 66.1997 160.197L66.2031 160.193Z" fill="white"/>
<path d="M147.263 187.531C144.31 187.531 141.326 187.24 138.349 186.645C131.955 185.367 123.673 183.346 116.325 179.033C111.099 175.967 106.409 171.779 101.871 167.726C95.428 161.969 88.7686 156.02 80.6022 153.403C76.6139 152.126 72.0999 152.065 67.729 152.004C64.04 151.953 60.228 151.899 56.7186 151.122C46.593 148.874 37.0096 143.611 29.7314 136.303C29.5718 136.171 25.0678 132.317 21.0163 122.596C17.294 113.668 13.299 97.8825 15.398 73.3891C15.5809 71.2595 15.7339 69.086 15.8803 66.9835C16.4624 58.7119 17.0612 50.1565 19.6158 42.1182C24.2928 27.4039 34.0391 17.4456 47.062 14.0856C58.6878 11.0873 69.0762 15.7047 80.0767 20.596C81.7232 21.3295 83.4297 22.0867 85.1195 22.8067C87.9104 23.9965 90.6846 25.3723 93.369 26.7041C99.4364 29.7126 105.71 32.8258 112.449 33.9143C114.944 34.3165 117.522 34.4416 120.02 34.5633C121.011 34.6106 122.003 34.6613 122.994 34.7255C138.325 35.7295 155.633 37.9875 167.764 47.0973C178.365 55.0612 185.557 68.7784 188.012 85.7203C189.519 96.1282 189.303 106.813 189.093 117.15C189.007 121.359 188.92 125.712 188.95 129.982C188.96 131.371 188.98 132.77 189.003 134.17C189.15 143.807 189.299 153.775 185.674 162.794C184.133 166.627 181.901 170.23 179.044 173.506C171.184 182.508 159.528 187.524 147.267 187.527L147.263 187.531ZM15.8237 73.4296L16.2528 73.4668C12.2745 119.885 30.1273 135.505 30.3069 135.657C37.4986 142.877 46.9323 148.056 56.8982 150.27C60.3211 151.031 64.0899 151.081 67.7357 151.132C72.1665 151.193 76.7469 151.257 80.855 152.572C89.191 155.242 95.9237 161.256 102.433 167.07C106.937 171.092 111.594 175.254 116.747 178.276C123.989 182.521 132.182 184.519 138.508 185.786C153.554 188.798 168.835 183.87 178.389 172.931C181.183 169.73 183.362 166.211 184.865 162.469C188.424 153.616 188.275 143.739 188.132 134.19C188.112 132.787 188.088 131.388 188.079 129.995C188.049 125.712 188.138 121.352 188.222 117.137C188.431 106.837 188.647 96.189 187.15 85.8521C184.729 69.1401 177.657 55.6291 167.242 47.8038C155.29 38.8258 138.136 36.5982 122.931 35.601C121.946 35.5368 120.958 35.4895 119.974 35.4388C117.456 35.3171 114.851 35.1886 112.31 34.7796C105.444 33.6709 99.1104 30.5306 92.9865 27.4917C90.312 26.1667 87.5478 24.7943 84.7802 23.6146C83.0837 22.8912 81.3773 22.1306 79.7274 21.3971C68.8667 16.5701 58.608 12.0067 47.2683 14.934C34.5448 18.2197 25.0113 27.9684 20.4308 42.3852C17.9094 50.3221 17.3106 58.8235 16.7352 67.0443C16.5888 69.1502 16.4358 71.3271 16.2495 73.4634L15.8204 73.4263L15.8237 73.4296Z" fill="white"/>
<path d="M104.722 111.13C104.034 111.13 103.355 110.954 102.746 110.559C101.299 109.615 100.774 107.888 100.265 106.218C100.148 105.84 100.035 105.465 99.9088 105.099C97.9329 99.3395 92.6306 95.7395 87.5046 92.2612C86.5433 91.6088 85.5886 90.9598 84.6605 90.304C81.0015 87.7079 79.3616 85.166 79.6543 82.5294C79.9736 79.6426 82.6314 77.7328 85.0065 76.908C92.1948 74.4133 102.074 78.1857 106.791 83.2764C110.118 86.8629 111.495 93.0251 110.886 101.587C110.73 103.778 110.537 106.506 109.156 108.605C108.205 110.052 106.425 111.13 104.715 111.13H104.722ZM85.1528 77.3271C82.9009 78.108 80.3861 79.8995 80.09 82.5801C79.8173 85.0409 81.394 87.4477 84.9133 89.9457C85.8381 90.6015 86.7894 91.2471 87.7474 91.8995C92.9333 95.4183 98.2955 99.0555 100.318 104.957C100.444 105.326 100.561 105.708 100.677 106.09C101.163 107.682 101.665 109.332 102.979 110.19C104.885 111.434 107.576 110.227 108.804 108.365C110.121 106.364 110.304 103.812 110.463 101.56C111.062 93.1265 109.725 87.0758 106.485 83.5806C101.861 78.5913 92.1849 74.89 85.1528 77.3271Z" fill="white"/>
<path d="M121.431 146.944C121.294 146.944 121.161 146.944 121.025 146.94C113.976 146.792 106.598 143.195 100.245 136.81C98.984 135.542 97.7699 134.183 96.599 132.872C94.7262 130.776 92.7902 128.606 90.6214 126.774C88.2464 124.766 85.5387 123.113 82.9175 121.514C80.0102 119.739 77.0031 117.904 74.4251 115.571C71.122 112.587 68.2979 108.645 65.537 103.173C61.3657 94.9011 59.433 87.1366 59.7923 80.0921C60.2313 71.4285 64.4259 63.593 70.7395 59.6415C78.3669 54.8685 87.8738 55.0984 94.5033 56.1328C124.215 60.7604 130.462 76.2826 130.781 77.1276C131.513 78.3073 133.209 81.593 133.549 87.1501C133.685 89.3676 133.762 91.6256 133.838 93.8093C134.071 100.485 134.31 107.388 136.223 113.881C136.539 114.956 136.882 116.038 137.228 117.126C139.024 122.805 140.883 128.68 139.333 134.4C137.381 141.606 129.73 146.944 121.434 146.944H121.431ZM86.9225 56.1057C81.71 56.1057 75.9653 57.059 71.0422 60.1384C64.8883 63.9885 60.8002 71.6448 60.3677 80.1192C60.0151 87.0589 61.9278 94.7253 66.0526 102.902C68.7802 108.311 71.5611 112.195 74.811 115.132C77.3524 117.427 80.3328 119.249 83.2168 121.01C85.8547 122.623 88.5823 124.286 90.9907 126.321C93.1894 128.18 95.142 130.364 97.0281 132.476C98.1957 133.784 99.4031 135.133 100.654 136.391C106.901 142.668 114.142 146.207 121.041 146.352C129.231 146.535 136.865 141.319 138.781 134.244C140.285 128.69 138.455 122.903 136.682 117.306C136.336 116.214 135.994 115.129 135.674 114.05C133.742 107.486 133.499 100.546 133.266 93.8329C133.189 91.6527 133.113 89.398 132.977 87.1873C132.644 81.7248 130.981 78.5338 130.282 77.415L130.252 77.3541C130.199 77.1952 124.438 61.3823 94.4169 56.7074C92.1848 56.3592 89.6235 56.1057 86.9225 56.1057Z" fill="white"/>
<path d="M66.189 65.672C66.4983 65.672 66.7777 65.8748 66.8642 66.1756C67.4596 68.2984 69.1129 69.201 71.5777 69.201C74.0426 69.201 75.2102 68.3153 75.2102 66.6624C75.2102 64.7897 73.9661 64.0799 69.5387 63.0049C61.2659 60.97 59.6193 57.9007 59.6193 54.0675C59.6193 49.2878 63.0754 45.2822 70.8792 45.2822C78.683 45.2822 81.853 48.9396 82.5848 53.0872C82.6647 53.5402 82.3154 53.9593 81.8597 53.9593H75.32C75.0039 53.9593 74.7378 53.7396 74.6613 53.4286C74.3387 52.09 73.4372 50.8765 70.8592 50.8765C68.9765 50.8765 67.8222 51.5965 67.8222 53.1413C67.8222 54.6861 68.8501 55.2844 73.1744 56.3627C81.8131 58.5531 83.5295 61.717 83.5295 65.77C83.5295 71.121 79.468 74.8393 71.2351 74.8393C63.9736 74.8393 59.912 71.6145 58.9141 66.7029C58.8077 66.1756 59.2102 65.6787 59.7391 65.6787H66.1923L66.189 65.672Z" fill="white"/>
<path d="M124.834 54.6861V81.1536C124.834 81.7249 124.404 82.188 123.876 82.188H118.626C118.098 82.188 117.668 81.7249 117.668 81.1536V54.6861C117.668 54.1385 118.078 53.6957 118.587 53.6957H123.919C124.424 53.6957 124.837 54.1385 124.837 54.6861H124.834Z" fill="white"/>
<path d="M80.5989 110.379H73.8663C73.5004 110.379 73.201 110.079 73.201 109.703V104.907C73.201 104.511 73.517 104.193 73.9029 104.193H95.9603C96.3495 104.193 96.6622 104.515 96.6622 104.907V109.703C96.6622 110.075 96.3661 110.379 95.9969 110.379H89.3341C88.9915 110.379 88.7154 110.66 88.7154 111.008V131.695C88.7154 132.24 88.2796 132.682 87.7441 132.682H82.1823C81.6467 132.682 81.211 132.24 81.211 131.695V111.008C81.211 110.66 80.9349 110.379 80.5923 110.379H80.5989Z" fill="white"/>
<path d="M140.518 128.217H133.309V133.068C133.309 133.744 133.848 134.292 134.513 134.292H145.567C146.113 134.292 146.552 134.741 146.552 135.292V139.477C146.552 140.031 146.109 140.477 145.567 140.477H127.109C126.563 140.477 126.124 140.028 126.124 139.477V112.989C126.124 112.435 126.567 111.989 127.109 111.989H145.567C146.113 111.989 146.552 112.438 146.552 112.989V117.174C146.552 117.728 146.109 118.174 145.567 118.174H134.191C133.705 118.174 133.309 118.577 133.309 119.07V122.761H140.518C141.063 122.761 141.502 123.211 141.502 123.762V127.213C141.502 127.768 141.06 128.214 140.518 128.214V128.217Z" fill="white"/>
<path d="M127.352 162.567C121.627 162.567 115.865 161.476 109.389 159.241C106.265 158.163 102.66 155.689 99.1735 153.295C96.3095 151.328 93.6084 149.472 91.2267 148.394C87.6808 146.785 83.9818 145.957 80.4059 145.159C76.7968 144.351 73.0612 143.516 69.452 141.88C65.7464 140.2 61.9177 138.459 58.8441 135.59C54.4566 131.493 51.4329 127.893 49.3306 124.262C43.3165 113.871 39.8171 103.599 38.9356 93.735C38.0408 83.7327 40.316 66.2162 41.3339 59.1514C41.8928 55.281 43.0004 51.7317 44.6271 48.605C48.2961 41.547 53.9011 36.7537 60.83 34.7357C68.0982 32.6231 75.9119 36.0811 83.4695 39.4242C87.3681 41.1481 91.0471 42.7774 94.6463 43.6901C100.118 45.076 105.637 45.6608 110.976 46.2286C118.394 47.0162 126.064 47.8309 133.455 50.8292L134.716 51.3396C139.164 53.1345 143.764 54.9869 147.696 57.8872C155.307 63.5018 160.599 73.3519 162.598 85.6291C163.826 93.1671 163.839 100.935 163.852 108.446C163.859 111.505 163.862 114.669 163.952 117.769C163.982 118.779 164.019 119.793 164.055 120.808C164.308 127.808 164.571 135.049 162.152 141.667C158.68 151.166 149.599 158.67 138.448 161.249C134.646 162.128 131.004 162.574 127.348 162.574L127.352 162.567ZM65.5335 34.783C64.0067 34.783 62.4999 34.9723 61.0263 35.4016C54.2803 37.3622 48.825 42.0405 45.2424 48.9227C43.6524 51.9785 42.568 55.4534 42.0225 59.2461C41.0046 66.2872 38.7393 83.7395 39.6275 93.664C40.499 103.426 43.9684 113.597 49.9294 123.901C51.9951 127.47 54.9788 131.016 59.3132 135.066C62.3036 137.858 66.0824 139.575 69.7381 141.231C73.2841 142.84 76.983 143.668 80.5589 144.466C84.1681 145.274 87.9036 146.109 91.5128 147.745C93.9477 148.85 96.6754 150.723 99.5627 152.707C103.012 155.077 106.578 157.524 109.615 158.572C120.1 162.189 128.679 162.78 138.302 160.553C149.226 158.024 158.117 150.689 161.51 141.41C163.882 134.924 163.623 127.754 163.373 120.821C163.337 119.804 163.3 118.786 163.27 117.775C163.184 114.666 163.177 111.498 163.17 108.436C163.157 100.952 163.144 93.2144 161.926 85.7339C159.957 73.6426 154.764 63.9514 147.3 58.4449C143.438 55.5954 138.878 53.7565 134.47 51.9819L133.206 51.4714C125.905 48.5103 118.623 47.7362 110.912 46.9182C105.55 46.3503 100.008 45.7588 94.4899 44.3627C90.8342 43.4365 86.9556 41.7194 83.2034 40.0596C77.3223 37.4568 71.2816 34.783 65.5369 34.783H65.5335Z" fill="white"/>
</g>
<defs>
<clipPath id="clip0_48_16">
<rect width="204.444" height="200.727" fill="white"/>
</clipPath>
</defs>
</svg>
