<?xml version="1.0" encoding="UTF-8"?>
<svg id="Layer_1" data-name="Layer 1" xmlns="http://www.w3.org/2000/svg" viewBox="0 0 811 624">
  <defs>
    <style>
      .cls-1 {
        opacity: .5;
      }

      .cls-2 {
        opacity: .8;
      }

      .cls-3 {
        opacity: .3;
      }

      .cls-4 {
        opacity: .6;
      }

      .cls-5 {
        fill: #1f1d1d;
        stroke-width: 0px;
      }
    </style>
  </defs>
  <g>
    <path class="cls-5" d="M483.46,608.03c-9.15,0-18.4-.78-27.65-2.39-22.42-3.89-51.5-10.19-77.52-24.43-18.49-10.13-35.19-24.15-51.33-37.72-22.88-19.22-46.54-39.09-75.13-47.4-13.95-4.05-29.67-3.92-44.88-3.77-12.88.12-26.21.23-38.54-2.17-35.55-6.94-69.45-24.28-95.44-48.84-.55-.42-16.62-13.35-31.54-46.48-13.69-30.39-28.86-84.31-23.42-168.61.47-7.31.84-14.78,1.19-22.01,1.39-28.46,2.82-57.88,11.13-85.72,15.21-51,48.53-86.02,93.82-98.61,40.43-11.24,77.08,3.82,115.88,19.76,5.8,2.38,11.8,4.85,17.75,7.19,9.83,3.87,19.62,8.38,29.09,12.74,21.36,9.84,43.46,20.02,66.98,23.21,8.71,1.18,17.71,1.41,26.42,1.63,3.46.09,6.92.18,10.37.32,53.6,2.25,114.2,8.65,157.28,39.02,37.67,26.56,63.86,73.16,73.75,131.21,6.07,35.63,6.14,72.34,6.2,107.84.03,14.45.05,29.39.49,44.04.14,4.77.32,9.56.5,14.37,1.25,33.1,2.55,67.33-9.43,98.64-5.09,13.32-12.62,25.9-22.36,37.39-27.54,32.48-69.41,50.78-113.61,50.78ZM215.3,488.47c12.8,0,25.71.52,37.59,3.97,29.36,8.53,53.33,28.67,76.51,48.14,16,13.44,32.55,27.34,50.72,37.29,25.53,13.98,54.21,20.18,76.34,24.02,52.58,9.13,105.34-8.92,137.71-47.11,9.47-11.17,16.77-23.38,21.71-36.29,11.7-30.59,10.42-64.43,9.18-97.15-.18-4.81-.36-9.61-.5-14.4-.43-14.7-.46-29.67-.49-44.14-.06-35.34-.13-71.89-6.15-107.21-9.72-57.05-35.36-102.78-72.2-128.75-42.29-29.81-102.21-36.11-155.26-38.33-3.43-.14-6.87-.23-10.31-.32-8.81-.22-17.91-.46-26.83-1.67-24.09-3.27-46.44-13.57-68.06-23.52-9.42-4.34-19.16-8.82-28.89-12.66-5.98-2.35-11.99-4.82-17.8-7.21-38.18-15.69-74.25-30.51-113.43-19.62-43.99,12.23-76.38,46.34-91.2,96.05-8.17,27.4-9.6,56.59-10.97,84.82-.35,7.24-.72,14.73-1.19,22.07-10.29,159.6,53.02,211.47,53.66,211.98,25.61,24.18,58.84,41.19,93.69,47.98,11.96,2.33,25.09,2.22,37.79,2.1,2.78-.02,5.58-.05,8.38-.05Z"/>
    <g class="cls-2">
      <path class="cls-5" d="M458.26,569.1c-8.85,0-17.8-.86-26.73-2.61-19.16-3.77-43.98-9.74-66.02-22.45-15.66-9.04-29.72-21.4-43.32-33.35-19.31-16.98-39.28-34.53-63.74-42.24-11.95-3.76-25.49-3.95-38.58-4.12-11.06-.15-22.49-.3-33.01-2.6-30.35-6.63-59.07-22.15-80.89-43.71-.48-.39-13.98-11.75-26.13-40.43-11.16-26.34-23.13-72.89-16.84-145.14h0c.55-6.28,1-12.69,1.45-18.89,1.74-24.4,3.54-49.63,11.2-73.34,14.02-43.4,43.23-72.77,82.26-82.68,34.84-8.84,65.98,4.78,98.95,19.2,4.94,2.16,10.05,4.4,15.12,6.52,8.36,3.51,16.68,7.57,24.73,11.5,18.19,8.88,36.99,18.05,57.19,21.26,7.48,1.19,15.22,1.56,22.71,1.92,2.97.14,5.93.28,8.89.48,45.95,2.96,97.83,9.62,134.19,36.49,31.78,23.49,53.33,63.95,60.69,113.93,4.52,30.7,3.87,62.22,3.24,92.7-.26,12.42-.52,25.25-.43,37.85.03,4.1.09,8.22.16,12.35.44,28.43.89,57.83-9.98,84.43-4.62,11.3-11.3,21.93-19.87,31.59-23.56,26.56-58.49,41.35-95.24,41.35ZM64.3,232.55l1.29.11c-11.92,136.91,41.58,182.98,42.13,183.43,21.55,21.29,49.83,36.57,79.7,43.1,10.26,2.24,21.56,2.39,32.49,2.54,13.28.18,27.01.37,39.32,4.24,24.99,7.87,45.16,25.61,64.67,42.76,13.5,11.87,27.46,24.14,42.9,33.06,21.71,12.53,46.26,18.42,65.22,22.15,45.1,8.88,90.9-5.65,119.53-37.92,8.38-9.44,14.91-19.82,19.41-30.85,10.67-26.11,10.22-55.24,9.79-83.41-.06-4.14-.13-8.27-.16-12.38-.09-12.63.18-25.49.43-37.92.63-30.38,1.27-61.79-3.22-92.27-7.26-49.29-28.45-89.14-59.67-112.22-35.82-26.48-87.24-33.06-132.82-36-2.95-.19-5.9-.33-8.85-.47-7.55-.36-15.37-.74-22.99-1.95-20.58-3.27-39.56-12.53-57.92-21.49-8.01-3.91-16.3-7.96-24.59-11.44-5.08-2.13-10.2-4.37-15.15-6.54-32.55-14.24-63.3-27.7-97.28-19.06-38.14,9.69-66.71,38.44-80.44,80.97-7.56,23.42-9.35,48.49-11.08,72.73-.44,6.21-.9,12.64-1.45,18.93l-1.29-.11Z"/>
    </g>
    <g class="cls-3">
      <path class="cls-5" d="M330.75,343.75c-2.07,0-4.1-.52-5.92-1.69-4.33-2.79-5.91-7.87-7.44-12.8-.35-1.12-.69-2.22-1.06-3.3-5.92-16.99-21.81-27.61-37.18-37.87-2.88-1.92-5.74-3.83-8.52-5.77-10.97-7.66-15.88-15.16-15-22.93.96-8.51,8.92-14.14,16.04-16.58h0c21.55-7.36,51.16,3.77,65.3,18.78,9.97,10.58,14.1,28.75,12.27,54.01-.47,6.46-1.05,14.51-5.19,20.69-2.86,4.27-8.19,7.45-13.31,7.45ZM286.71,241.78c-5.09,0-10.04.71-14.62,2.27h0c-6.75,2.3-14.28,7.59-15.18,15.5-.82,7.26,3.91,14.36,14.46,21.72,2.77,1.93,5.62,3.84,8.49,5.76,15.55,10.38,31.62,21.11,37.68,38.52.38,1.09.73,2.21,1.08,3.34,1.46,4.7,2.96,9.56,6.9,12.09,5.71,3.67,13.78.11,17.46-5.39,3.95-5.9,4.49-13.43,4.97-20.07,1.8-24.88-2.22-42.72-11.92-53.03-10.85-11.52-30.98-20.71-49.32-20.71Z"/>
    </g>
    <g class="cls-1">
      <path class="cls-5" d="M380.83,449.39c-.41,0-.81,0-1.22-.01-21.13-.44-43.24-11.05-62.28-29.88-3.78-3.74-7.41-7.74-10.93-11.61-5.61-6.19-11.42-12.58-17.92-17.99-7.11-5.92-15.24-10.8-23.09-15.52-8.71-5.23-17.72-10.65-25.46-17.53-9.9-8.81-18.37-20.43-26.64-36.57-12.5-24.4-18.29-47.3-17.22-68.08,1.32-25.56,13.89-48.67,32.81-60.32,22.86-14.08,51.35-13.4,71.23-10.35,89.04,13.65,107.78,59.43,108.73,61.93,2.2,3.48,7.28,13.17,8.3,29.56.41,6.54.64,13.2.87,19.65.69,19.69,1.41,40.05,7.14,59.2.95,3.17,1.98,6.36,3.01,9.57,5.39,16.75,10.96,34.08,6.31,50.95-5.85,21.26-28.79,36.99-53.65,36.99ZM277.39,181.46c-15.63,0-32.84,2.81-47.6,11.9-18.44,11.35-30.7,33.94-31.99,58.94-1.06,20.47,4.68,43.08,17.03,67.2,8.17,15.95,16.51,27.41,26.25,36.07,7.61,6.77,16.55,12.14,25.2,17.34,7.91,4.75,16.09,9.67,23.3,15.67,6.59,5.49,12.44,11.93,18.09,18.16,3.5,3.85,7.11,7.84,10.86,11.55,18.72,18.52,40.42,28.95,61.11,29.38,24.64.53,47.42-14.85,53.17-35.72,4.51-16.38-.98-33.45-6.29-49.96-1.03-3.22-2.06-6.42-3.02-9.6-5.8-19.36-6.52-39.84-7.21-59.63-.23-6.43-.46-13.08-.87-19.6-1-16.11-5.98-25.53-8.08-28.82l-.09-.18c-.16-.47-17.43-47.11-107.4-60.89h0c-6.69-1.02-14.37-1.78-22.47-1.78Z"/>
    </g>
    <g class="cls-4">
      <path class="cls-5" d="M398.58,495.47c-17.16,0-34.42-3.22-53.84-9.81-9.36-3.18-20.17-10.48-30.62-17.54-8.58-5.8-16.68-11.27-23.81-14.46-10.63-4.75-21.71-7.18-32.43-9.54-10.82-2.38-22.01-4.84-32.83-9.67-11.1-4.96-22.59-10.09-31.8-18.55-13.15-12.09-22.21-22.7-28.51-33.41-18.03-30.65-28.51-60.95-31.16-90.05-2.68-29.5,4.14-81.17,7.19-102.01,1.67-11.42,5-21.89,9.87-31.11,11-20.81,27.8-34.96,48.56-40.9,21.78-6.23,45.21,3.97,67.86,13.83,11.68,5.09,22.71,9.89,33.5,12.58,16.4,4.09,32.95,5.82,48.94,7.49,22.23,2.32,45.22,4.73,67.37,13.57l3.77,1.5c13.34,5.29,27.13,10.76,38.92,19.32,22.82,16.56,38.68,45.62,44.67,81.82,3.68,22.23,3.72,45.14,3.76,67.3.02,9.02.03,18.35.3,27.5.09,2.98.2,5.97.31,8.97.76,20.65,1.54,42.01-5.71,61.52-10.41,28.02-37.63,50.15-71.04,57.76-11.4,2.6-22.31,3.91-33.27,3.91ZM213.29,118.57c-4.58,0-9.09.56-13.51,1.82-20.21,5.79-36.57,19.58-47.3,39.88-4.77,9.02-8.01,19.26-9.65,30.44-3.05,20.77-9.84,72.24-7.18,101.52h0c2.62,28.79,13.01,58.8,30.88,89.18,6.19,10.53,15.13,20.99,28.13,32.94,8.96,8.23,20.29,13.29,31.24,18.19,10.63,4.75,21.71,7.18,32.43,9.54,10.82,2.38,22.01,4.84,32.83,9.67,7.3,3.26,15.47,8.79,24.13,14.64,10.34,6.99,21.03,14.21,30.13,17.3,31.42,10.66,57.14,12.41,85.98,5.84,32.74-7.46,59.4-29.09,69.57-56.46,7.11-19.13,6.33-40.28,5.58-60.73-.11-3-.22-6-.31-8.98-.26-9.18-.28-18.52-.3-27.55-.04-22.07-.08-44.9-3.73-66.97-5.9-35.66-21.47-64.25-43.84-80.48-11.58-8.4-25.25-13.83-38.47-19.07l-3.77-1.5c-21.88-8.74-43.71-11.02-66.82-13.44-16.07-1.68-32.69-3.41-49.23-7.54-10.96-2.73-22.59-7.79-33.83-12.69-17.63-7.68-35.74-15.56-52.95-15.56Z"/>
    </g>
  </g>
  <g>
    <path class="cls-5" d="M684,486.31h-8.5l-1.14,3.6h-5.72l7.78-22.89h6.67l7.78,22.89h-5.72l-1.14-3.6ZM682.43,481.4l-2.68-8.4-2.68,8.4h5.36Z"/>
    <path class="cls-5" d="M714.85,482.39h-2.49v7.52h-5.23v-22.89h9.16c4.35,0,7.85,3.5,7.85,7.85,0,2.81-1.7,5.36-4.22,6.64l4.87,8.4h-5.62l-4.31-7.52ZM712.36,477.81h3.92c1.44,0,2.62-1.27,2.62-2.94s-1.18-2.94-2.62-2.94h-3.92v5.88Z"/>
    <path class="cls-5" d="M668.89,517.68c0-6.73,5-11.9,11.9-11.9,4.15,0,7.81,2.06,9.81,5.3l-4.51,2.62c-1.01-1.77-2.98-2.81-5.3-2.81-4.05,0-6.67,2.71-6.67,6.8s2.62,6.8,6.67,6.8c2.32,0,4.32-1.05,5.3-2.81l4.51,2.62c-1.96,3.24-5.62,5.3-9.81,5.3-6.9,0-11.9-5.17-11.9-11.9Z"/>
    <path class="cls-5" d="M724.78,506.24v22.89h-5.23v-9.09h-7.19v9.09h-5.23v-22.89h5.23v8.76h7.19v-8.76h5.23Z"/>
    <path class="cls-5" d="M754.76,506.24v22.89h-5.23v-22.89h5.23Z"/>
    <path class="cls-5" d="M688.25,550.5h-5.89v17.85h-5.23v-17.85h-5.89v-5.04h17v5.04Z"/>
    <path class="cls-5" d="M723.15,563.31v5.04h-14.39v-22.89h14.22v5.04h-8.99v3.79h8.17v4.97h-8.17v4.05h9.16Z"/>
    <path class="cls-5" d="M741.29,556.9c0-6.73,5-11.9,11.9-11.9,4.15,0,7.81,2.06,9.81,5.3l-4.51,2.62c-1.01-1.77-2.98-2.81-5.3-2.81-4.05,0-6.67,2.71-6.67,6.8s2.62,6.8,6.67,6.8c2.32,0,4.32-1.05,5.3-2.81l4.51,2.62c-1.96,3.24-5.62,5.3-9.81,5.3-6.9,0-11.9-5.16-11.9-11.9Z"/>
    <path class="cls-5" d="M688.25,589.72h-5.89v17.85h-5.23v-17.85h-5.89v-5.04h17v5.04Z"/>
    <path class="cls-5" d="M707.13,600.18v-15.5h5.23v15.04c0,1.74.82,3.21,3.6,3.21s3.6-1.47,3.6-3.21v-15.04h5.23v15.5c0,4.9-3.79,7.85-8.83,7.85s-8.83-2.94-8.83-7.85Z"/>
    <path class="cls-5" d="M751.04,600.05h-2.49v7.52h-5.23v-22.89h9.16c4.35,0,7.85,3.5,7.85,7.85,0,2.81-1.7,5.36-4.22,6.64l4.87,8.4h-5.62l-4.31-7.52ZM748.55,595.47h3.92c1.44,0,2.62-1.27,2.62-2.94s-1.18-2.94-2.62-2.94h-3.92v5.88Z"/>
    <path class="cls-5" d="M794.13,602.53v5.04h-14.39v-22.89h14.22v5.04h-8.99v3.79h8.17v4.97h-8.17v4.05h9.16Z"/>
  </g>
  <g>
    <path class="cls-5" d="M215.26,209.68c.92,0,1.77.59,2.02,1.48,1.79,6.26,6.74,8.92,14.13,8.92s10.88-2.61,10.88-7.49c0-5.52-3.73-7.62-17-10.79-24.79-6-29.73-15.05-29.73-26.36,0-14.1,10.36-25.91,33.75-25.91s32.89,10.78,35.08,23.02c.24,1.34-.81,2.57-2.17,2.57h-19.6c-.94,0-1.75-.65-1.97-1.57-.97-3.95-3.67-7.53-11.39-7.53-5.64,0-9.1,2.13-9.1,6.68s3.08,6.32,16.04,9.5c25.9,6.46,31.04,15.79,31.04,27.74,0,15.78-12.17,26.75-36.85,26.75-21.76,0-33.94-9.51-36.93-23.99-.32-1.55.88-3.02,2.47-3.02h19.34Z"/>
    <path class="cls-5" d="M391.03,177.27v78.06c0,1.68-1.28,3.05-2.87,3.05h-15.74c-1.58,0-2.87-1.37-2.87-3.05v-78.06c0-1.61,1.23-2.92,2.75-2.92h15.98c1.52,0,2.75,1.31,2.75,2.92Z"/>
    <path class="cls-5" d="M258.45,341.54h-20.18c-1.1,0-1.99-.89-1.99-1.99v-14.15c0-1.16.94-2.11,2.11-2.11h66.11c1.16,0,2.11.94,2.11,2.11v14.15c0,1.1-.89,1.99-1.99,1.99h-19.97c-1.02,0-1.85.83-1.85,1.85v61.02c0,1.61-1.3,2.91-2.91,2.91h-16.67c-1.61,0-2.91-1.3-2.91-2.91v-61.02c0-1.02-.83-1.85-1.85-1.85Z"/>
    <path class="cls-5" d="M438.03,394.15h-21.6v14.31c0,1.99,1.62,3.61,3.61,3.61h33.13c1.63,0,2.95,1.32,2.95,2.95v12.34c0,1.63-1.32,2.95-2.95,2.95h-55.33c-1.63,0-2.95-1.32-2.95-2.95v-78.13c0-1.63,1.32-2.95,2.95-2.95h55.33c1.63,0,2.95,1.32,2.95,2.95v12.34c0,1.63-1.32,2.95-2.95,2.95h-34.1c-1.46,0-2.64,1.18-2.64,2.64v10.89h21.6c1.63,0,2.95,1.32,2.95,2.95v10.18c0,1.63-1.32,2.95-2.95,2.95Z"/>
  </g>
</svg>